
CASCADE Topology V1, (c) Matra-Datavision
Locations 16
1
1.000000000000000 0.000000000000000 0.000000000000000 0.000000000000000 
0.000000000000000 1.000000000000000 0.000000000000000 0.000000000000000 
0.000000000000000 0.000000000000000 1.000000000000000 3.000000000000000 
1
1.000000000000000 0.000000000000000 0.000000000000000 0.000000000000000 
0.000000000000000 1.000000000000000 0.000000000000000 0.000000000000000 
0.000000000000000 0.000000000000000 1.000000000000000 0.000000000000000 
2  2 -1 0
1
1.000000000000000 0.000000000000000 0.000000000000000 0.000000000000000 
0.000000000000000 1.000000000000000 0.000000000000000 0.000000000000000 
0.000000000000000 0.000000000000000 1.000000000000000 0.000000000000000 
1
1.000000000000000 0.000000000000000 0.000000000000000 0.000000000000000 
0.000000000000000 1.000000000000000 0.000000000000000 0.000000000000000 
0.000000000000000 0.000000000000000 1.000000000000000 0.000000000000000 
1
1.000000000000000 0.000000000000000 0.000000000000000 0.000000000000000 
0.000000000000000 1.000000000000000 0.000000000000000 0.000000000000000 
0.000000000000000 0.000000000000000 1.000000000000000 0.000000000000000 
2  4 1 5 1 6 -1 0
2  2 -1 6 1 5 -1 4 -1 0
1
1.000000000000000 0.000000000000000 0.000000000000000 0.000000000000000 
0.000000000000000 1.000000000000000 0.000000000000000 0.000000000000000 
0.000000000000000 0.000000000000000 1.000000000000000 3.000000000000000 
2  4 1 5 1 6 -1 9 1 0
2  2 -1 9 -1 6 1 5 -1 4 -1 0
2  6 1 5 -1 4 -1 0
2  9 -1 6 1 5 -1 4 -1 0
2  6 -1 0
2  4 1 5 1 0
2  6 -1 9 1 0
Curve2ds 32
1 0.00000000000000000 0.00000000000000000 0.00000000000000000 -1.00000000000000000 
1 6.28318530717958623 0.00000000000000000 0.00000000000000000 -1.00000000000000000 
1 0.00000000000000000 0.00000000000000000 1.00000000000000000 0.00000000000000000 
1 0.00000000000000000 -3.00000000000000000 1.00000000000000000 0.00000000000000000 
1 0.00000000000000000 0.00000000000000000 0.00000000000000000 -1.00000000000000000 
1 6.28318530717958623 0.00000000000000000 0.00000000000000000 -1.00000000000000000 
1 0.00000000000000000 0.00000000000000000 1.00000000000000000 0.00000000000000000 
1 0.00000000000000000 -3.00000000000000000 1.00000000000000000 0.00000000000000000 
1 0.00000000000000000 0.00000000000000000 0.00000000000000000 -1.00000000000000000 
1 6.28318530717958623 0.00000000000000000 0.00000000000000000 -1.00000000000000000 
1 0.00000000000000000 0.00000000000000000 1.00000000000000000 0.00000000000000000 
1 0.00000000000000000 -3.00000000000000000 1.00000000000000000 0.00000000000000000 
1 0.00000000000000000 0.00000000000000000 0.00000000000000000 -1.00000000000000000 
1 6.28318530717958623 0.00000000000000000 0.00000000000000000 -1.00000000000000000 
1 0.00000000000000000 0.00000000000000000 1.00000000000000000 0.00000000000000000 
1 0.00000000000000000 -3.00000000000000000 1.00000000000000000 0.00000000000000000 
1 0.00000000000000000 0.00000000000000000 0.00000000000000000 -1.00000000000000000 
1 6.28318530717958623 0.00000000000000000 0.00000000000000000 -1.00000000000000000 
1 0.00000000000000000 0.00000000000000000 1.00000000000000000 0.00000000000000000 
1 0.00000000000000000 -3.00000000000000000 1.00000000000000000 0.00000000000000000 
1 0.00000000000000000 0.00000000000000000 0.00000000000000000 -1.00000000000000000 
1 6.28318530717958623 0.00000000000000000 0.00000000000000000 -1.00000000000000000 
1 0.00000000000000000 0.00000000000000000 1.00000000000000000 0.00000000000000000 
1 0.00000000000000000 -3.00000000000000000 1.00000000000000000 0.00000000000000000 
1 0.00000000000000000 0.00000000000000000 0.00000000000000000 -1.00000000000000000 
1 6.28318530717958623 0.00000000000000000 0.00000000000000000 -1.00000000000000000 
1 0.00000000000000000 0.00000000000000000 1.00000000000000000 0.00000000000000000 
1 0.00000000000000000 -3.00000000000000000 1.00000000000000000 0.00000000000000000 
1 0.00000000000000000 0.00000000000000000 0.00000000000000000 -1.00000000000000000 
1 6.28318530717958623 0.00000000000000000 0.00000000000000000 -1.00000000000000000 
1 0.00000000000000000 0.00000000000000000 1.00000000000000000 0.00000000000000000 
1 0.00000000000000000 -3.00000000000000000 1.00000000000000000 0.00000000000000000 
Curves 48
1 119.43430137437299265 89.15615867352637736 0.00000000000000000 0.00000000000000000 0.00000000000000000 1.00000000000000000 
1 119.43430137437299265 69.15615867352637736 0.00000000000000000 0.00000000000000000 0.00000000000000000 1.00000000000000000 
1 119.43430137437299265 89.15615867352637736 0.00000000000000000 0.00000000000000000 -1.00000000000000000 0.00000000000000000 
1 119.43430137437299265 89.15615867352637736 0.00000000000000000 0.00000000000000000 -1.00000000000000000 0.00000000000000000 
1 159.43430137437297844 69.15615867352637736 0.00000000000000000 0.00000000000000000 0.00000000000000000 1.00000000000000000 
1 119.43430137437299265 69.15615867352637736 0.00000000000000000 1.00000000000000000 0.00000000000000000 0.00000000000000000 
1 119.43430137437299265 69.15615867352637736 0.00000000000000000 1.00000000000000000 0.00000000000000000 0.00000000000000000 
1 159.43430137437297844 89.15615867352637736 0.00000000000000000 0.00000000000000000 0.00000000000000000 1.00000000000000000 
1 159.43430137437297844 69.15615867352637736 0.00000000000000000 0.00000000000000000 1.00000000000000000 0.00000000000000000 
1 159.43430137437297844 69.15615867352637736 0.00000000000000000 0.00000000000000000 1.00000000000000000 0.00000000000000000 
1 159.43430137437297844 89.15615867352637736 0.00000000000000000 -1.00000000000000000 0.00000000000000000 0.00000000000000000 
1 159.43430137437297844 89.15615867352637736 0.00000000000000000 -1.00000000000000000 0.00000000000000000 0.00000000000000000 
1 128.05930137437300687 72.90615867352639157 0.00000000000000000 0.00000000000000000 0.00000000000000000 1.00000000000000000 
2 126.93430137437300687 72.90615867352639157 0.00000000000000000 0.00000000000000000 0.00000000000000000 1.00000000000000000 1.00000000000000000 0.00000000000000000 0.00000000000000000 0.00000000000000000 1.00000000000000000 0.00000000000000000 1.12500000000000000
2 126.93430137437300687 72.90615867352639157 0.00000000000000000 0.00000000000000000 0.00000000000000000 1.00000000000000000 1.00000000000000000 0.00000000000000000 0.00000000000000000 0.00000000000000000 1.00000000000000000 0.00000000000000000 1.12500000000000000
1 153.05930137437300687 72.90615867352639157 0.00000000000000000 0.00000000000000000 0.00000000000000000 1.00000000000000000 
2 151.93430137437300687 72.90615867352639157 0.00000000000000000 0.00000000000000000 0.00000000000000000 1.00000000000000000 1.00000000000000000 0.00000000000000000 0.00000000000000000 0.00000000000000000 1.00000000000000000 0.00000000000000000 1.12500000000000000
2 151.93430137437300687 72.90615867352639157 0.00000000000000000 0.00000000000000000 0.00000000000000000 1.00000000000000000 1.00000000000000000 0.00000000000000000 0.00000000000000000 0.00000000000000000 1.00000000000000000 0.00000000000000000 1.12500000000000000
1 128.05930137437300687 85.40615867352637736 0.00000000000000000 0.00000000000000000 0.00000000000000000 1.00000000000000000 
2 126.93430137437300687 85.40615867352637736 0.00000000000000000 0.00000000000000000 0.00000000000000000 1.00000000000000000 1.00000000000000000 0.00000000000000000 0.00000000000000000 0.00000000000000000 1.00000000000000000 0.00000000000000000 1.12500000000000000
2 126.93430137437300687 85.40615867352637736 0.00000000000000000 0.00000000000000000 0.00000000000000000 1.00000000000000000 1.00000000000000000 0.00000000000000000 0.00000000000000000 0.00000000000000000 1.00000000000000000 0.00000000000000000 1.12500000000000000
1 153.05930137437300687 85.40615867352637736 0.00000000000000000 0.00000000000000000 0.00000000000000000 1.00000000000000000 
2 151.93430137437300687 85.40615867352637736 0.00000000000000000 0.00000000000000000 0.00000000000000000 1.00000000000000000 1.00000000000000000 0.00000000000000000 0.00000000000000000 0.00000000000000000 1.00000000000000000 0.00000000000000000 1.12500000000000000
2 151.93430137437300687 85.40615867352637736 0.00000000000000000 0.00000000000000000 0.00000000000000000 1.00000000000000000 1.00000000000000000 0.00000000000000000 0.00000000000000000 0.00000000000000000 1.00000000000000000 0.00000000000000000 1.12500000000000000
1 119.43430137437299265 9.15615867352632051 0.00000000000000000 0.00000000000000000 0.00000000000000000 1.00000000000000000 
1 159.43430137437297844 9.15615867352632051 0.00000000000000000 0.00000000000000000 0.00000000000000000 1.00000000000000000 
1 119.43430137437299265 9.15615867352632051 0.00000000000000000 1.00000000000000000 0.00000000000000000 0.00000000000000000 
1 119.43430137437299265 9.15615867352632051 0.00000000000000000 1.00000000000000000 0.00000000000000000 0.00000000000000000 
1 159.43430137437297844 29.15615867352632051 0.00000000000000000 0.00000000000000000 0.00000000000000000 1.00000000000000000 
1 159.43430137437297844 9.15615867352632051 0.00000000000000000 0.00000000000000000 1.00000000000000000 0.00000000000000000 
1 159.43430137437297844 9.15615867352632051 0.00000000000000000 0.00000000000000000 1.00000000000000000 0.00000000000000000 
1 119.43430137437299265 29.15615867352632051 0.00000000000000000 0.00000000000000000 0.00000000000000000 1.00000000000000000 
1 159.43430137437297844 29.15615867352632051 0.00000000000000000 -1.00000000000000000 0.00000000000000000 0.00000000000000000 
1 159.43430137437297844 29.15615867352632051 0.00000000000000000 -1.00000000000000000 0.00000000000000000 0.00000000000000000 
1 119.43430137437299265 29.15615867352632051 0.00000000000000000 0.00000000000000000 -1.00000000000000000 0.00000000000000000 
1 119.43430137437299265 29.15615867352632051 0.00000000000000000 0.00000000000000000 -1.00000000000000000 0.00000000000000000 
1 128.05930137437297844 12.90615867352630097 0.00000000000000000 0.00000000000000000 0.00000000000000000 1.00000000000000000 
2 126.93430137437297844 12.90615867352630097 0.00000000000000000 0.00000000000000000 0.00000000000000000 1.00000000000000000 1.00000000000000000 0.00000000000000000 0.00000000000000000 0.00000000000000000 1.00000000000000000 0.00000000000000000 1.12500000000000000
2 126.93430137437297844 12.90615867352630097 0.00000000000000000 0.00000000000000000 0.00000000000000000 1.00000000000000000 1.00000000000000000 0.00000000000000000 0.00000000000000000 0.00000000000000000 1.00000000000000000 0.00000000000000000 1.12500000000000000
1 153.05930137437297844 12.90615867352630097 0.00000000000000000 0.00000000000000000 0.00000000000000000 1.00000000000000000 
2 151.93430137437297844 12.90615867352630097 0.00000000000000000 0.00000000000000000 0.00000000000000000 1.00000000000000000 1.00000000000000000 0.00000000000000000 0.00000000000000000 0.00000000000000000 1.00000000000000000 0.00000000000000000 1.12500000000000000
2 151.93430137437297844 12.90615867352630097 0.00000000000000000 0.00000000000000000 0.00000000000000000 1.00000000000000000 1.00000000000000000 0.00000000000000000 0.00000000000000000 0.00000000000000000 1.00000000000000000 0.00000000000000000 1.12500000000000000
1 128.05930137437297844 25.40615867352632762 0.00000000000000000 0.00000000000000000 0.00000000000000000 1.00000000000000000 
2 126.93430137437297844 25.40615867352632762 0.00000000000000000 0.00000000000000000 0.00000000000000000 1.00000000000000000 1.00000000000000000 0.00000000000000000 0.00000000000000000 0.00000000000000000 1.00000000000000000 0.00000000000000000 1.12500000000000000
2 126.93430137437297844 25.40615867352632762 0.00000000000000000 0.00000000000000000 0.00000000000000000 1.00000000000000000 1.00000000000000000 0.00000000000000000 0.00000000000000000 0.00000000000000000 1.00000000000000000 0.00000000000000000 1.12500000000000000
1 153.05930137437297844 25.40615867352632762 0.00000000000000000 0.00000000000000000 0.00000000000000000 1.00000000000000000 
2 151.93430137437297844 25.40615867352632762 0.00000000000000000 0.00000000000000000 0.00000000000000000 1.00000000000000000 1.00000000000000000 0.00000000000000000 0.00000000000000000 0.00000000000000000 1.00000000000000000 0.00000000000000000 1.12500000000000000
2 151.93430137437297844 25.40615867352632762 0.00000000000000000 0.00000000000000000 0.00000000000000000 1.00000000000000000 1.00000000000000000 0.00000000000000000 0.00000000000000000 0.00000000000000000 1.00000000000000000 0.00000000000000000 1.12500000000000000
Polygon3D 0
PolygonOnTriangulations 0
Surfaces 20
1 119.43430137437299265 89.15615867352637736 0.00000000000000000 1.00000000000000000 0.00000000000000000 0.00000000000000000 0.00000000000000000 -1.00000000000000000 0.00000000000000000 0.00000000000000000 0.00000000000000000 -1.00000000000000000 
1 119.43430137437299265 69.15615867352637736 0.00000000000000000 0.00000000000000000 1.00000000000000000 0.00000000000000000 1.00000000000000000 0.00000000000000000 0.00000000000000000 0.00000000000000000 0.00000000000000000 -1.00000000000000000 
1 159.43430137437297844 69.15615867352637736 0.00000000000000000 -1.00000000000000000 0.00000000000000000 0.00000000000000000 0.00000000000000000 1.00000000000000000 0.00000000000000000 0.00000000000000000 0.00000000000000000 -1.00000000000000000 
1 159.43430137437297844 89.15615867352637736 0.00000000000000000 0.00000000000000000 -1.00000000000000000 0.00000000000000000 -1.00000000000000000 0.00000000000000000 0.00000000000000000 -0.00000000000000000 -0.00000000000000000 -1.00000000000000000 
2 126.93430137437300687 72.90615867352639157 0.00000000000000000 -0.00000000000000000 -0.00000000000000000 -1.00000000000000000 1.00000000000000000 0.00000000000000000 0.00000000000000000 0.00000000000000000 1.00000000000000000 0.00000000000000000 1.12500000000000000
2 151.93430137437300687 72.90615867352639157 0.00000000000000000 -0.00000000000000000 -0.00000000000000000 -1.00000000000000000 1.00000000000000000 0.00000000000000000 0.00000000000000000 0.00000000000000000 1.00000000000000000 0.00000000000000000 1.12500000000000000
2 126.93430137437300687 85.40615867352637736 0.00000000000000000 -0.00000000000000000 -0.00000000000000000 -1.00000000000000000 1.00000000000000000 0.00000000000000000 0.00000000000000000 0.00000000000000000 1.00000000000000000 0.00000000000000000 1.12500000000000000
2 151.93430137437300687 85.40615867352637736 0.00000000000000000 -0.00000000000000000 -0.00000000000000000 -1.00000000000000000 1.00000000000000000 0.00000000000000000 0.00000000000000000 0.00000000000000000 1.00000000000000000 0.00000000000000000 1.12500000000000000
1 139.43430137437329108 49.15615867352634893 0.00000000000000000 0.00000000000000000 0.00000000000000000 1.00000000000000000 1.00000000000000000 0.00000000000000000 0.00000000000000000 0.00000000000000000 1.00000000000000000 0.00000000000000000 
1 139.43430137437329108 49.15615867352634893 0.00000000000000000 0.00000000000000000 0.00000000000000000 1.00000000000000000 1.00000000000000000 0.00000000000000000 0.00000000000000000 0.00000000000000000 1.00000000000000000 0.00000000000000000 
1 119.43430137437299265 9.15615867352632051 0.00000000000000000 0.00000000000000000 1.00000000000000000 0.00000000000000000 1.00000000000000000 0.00000000000000000 0.00000000000000000 0.00000000000000000 0.00000000000000000 -1.00000000000000000 
1 159.43430137437297844 9.15615867352632051 0.00000000000000000 -1.00000000000000000 0.00000000000000000 0.00000000000000000 0.00000000000000000 1.00000000000000000 0.00000000000000000 0.00000000000000000 0.00000000000000000 -1.00000000000000000 
1 159.43430137437297844 29.15615867352632051 0.00000000000000000 0.00000000000000000 -1.00000000000000000 0.00000000000000000 -1.00000000000000000 0.00000000000000000 0.00000000000000000 -0.00000000000000000 -0.00000000000000000 -1.00000000000000000 
1 119.43430137437299265 29.15615867352632051 0.00000000000000000 1.00000000000000000 0.00000000000000000 0.00000000000000000 0.00000000000000000 -1.00000000000000000 0.00000000000000000 0.00000000000000000 0.00000000000000000 -1.00000000000000000 
2 126.93430137437297844 12.90615867352630097 0.00000000000000000 -0.00000000000000000 -0.00000000000000000 -1.00000000000000000 1.00000000000000000 0.00000000000000000 0.00000000000000000 0.00000000000000000 1.00000000000000000 0.00000000000000000 1.12500000000000000
2 151.93430137437297844 12.90615867352630097 0.00000000000000000 -0.00000000000000000 -0.00000000000000000 -1.00000000000000000 1.00000000000000000 0.00000000000000000 0.00000000000000000 0.00000000000000000 1.00000000000000000 0.00000000000000000 1.12500000000000000
2 126.93430137437297844 25.40615867352632762 0.00000000000000000 -0.00000000000000000 -0.00000000000000000 -1.00000000000000000 1.00000000000000000 0.00000000000000000 0.00000000000000000 0.00000000000000000 1.00000000000000000 0.00000000000000000 1.12500000000000000
2 151.93430137437297844 25.40615867352632762 0.00000000000000000 -0.00000000000000000 -0.00000000000000000 -1.00000000000000000 1.00000000000000000 0.00000000000000000 0.00000000000000000 0.00000000000000000 1.00000000000000000 0.00000000000000000 1.12500000000000000
1 139.43430137437329108 49.15615867352634893 0.00000000000000000 0.00000000000000000 0.00000000000000000 1.00000000000000000 1.00000000000000000 0.00000000000000000 0.00000000000000000 0.00000000000000000 1.00000000000000000 0.00000000000000000 
1 139.43430137437329108 49.15615867352634893 0.00000000000000000 0.00000000000000000 0.00000000000000000 1.00000000000000000 1.00000000000000000 0.00000000000000000 0.00000000000000000 0.00000000000000000 1.00000000000000000 0.00000000000000000 
Triangulations 0

TShapes 141
Ve
0.000000100000000
119.434301374372993 89.156158673526377 0.000000000000000
0 0

0101101
*
Ve
0.000000100000000
119.434301374372993 89.156158673526377 3.000000000000000
0 0

0101101
*
Ed
 0.000000100000000 1 1 0
1  1 0 0.000000000000000 3.000000000000000
0

0101000
+141 3 -140 3 *
Ve
0.000000100000000
119.434301374372993 69.156158673526377 0.000000000000000
0 0

0101101
*
Ve
0.000000100000000
119.434301374372993 69.156158673526377 3.000000000000000
0 0

0101101
*
Ed
 0.000000100000000 1 1 0
1  2 0 0.000000000000000 3.000000000000000
0

0101000
+138 3 -137 3 *
Ed
 0.000000100000000 1 1 0
1  3 0 0.000000000000000 20.000000000000000
0

0101000
+141 8 -138 8 *
Ed
 0.000000100000000 1 1 0
1  4 0 0.000000000000000 20.000000000000000
0

0101000
+140 11 -137 11 *
Wi

0101100
+139 0 -136 0 -135 7 +134 10 *
Fa
0  0.000000100000000 1 0

0101000
+133 0 *
Ve
0.000000100000000
159.434301374372978 69.156158673526377 0.000000000000000
0 0

0101101
*
Ve
0.000000100000000
159.434301374372978 69.156158673526377 3.000000000000000
0 0

0101101
*
Ed
 0.000000100000000 1 1 0
1  5 0 0.000000000000000 3.000000000000000
0

0101000
+131 3 -130 3 *
Ed
 0.000000100000000 1 1 0
1  6 0 0.000000000000000 39.999999999999986
0

0101000
+138 8 -131 8 *
Ed
 0.000000100000000 1 1 0
1  7 0 0.000000000000000 39.999999999999986
0

0101000
+137 11 -130 11 *
Wi

0101100
+136 0 -129 0 -128 7 +127 10 *
Fa
0  0.000000100000000 2 0

0101000
+126 0 *
Ve
0.000000100000000
159.434301374372978 89.156158673526377 0.000000000000000
0 0

0101101
*
Ve
0.000000100000000
159.434301374372978 89.156158673526377 3.000000000000000
0 0

0101101
*
Ed
 0.000000100000000 1 1 0
1  8 0 0.000000000000000 3.000000000000000
0

0101000
+124 3 -123 3 *
Ed
 0.000000100000000 1 1 0
1  9 0 0.000000000000000 20.000000000000000
0

0101000
+131 8 -124 8 *
Ed
 0.000000100000000 1 1 0
1  10 0 0.000000000000000 20.000000000000000
0

0101000
+130 11 -123 11 *
Wi

0101100
+129 0 -122 0 -121 7 +120 10 *
Fa
0  0.000000100000000 3 0

0101000
+119 0 *
Ed
 0.000000100000000 1 1 0
1  11 0 0.000000000000000 39.999999999999986
0

0101000
+124 8 -141 8 *
Ed
 0.000000100000000 1 1 0
1  12 0 0.000000000000000 39.999999999999986
0

0101000
+123 11 -140 11 *
Wi

0101100
+122 0 -139 0 -117 7 +116 10 *
Fa
0  0.000000100000000 4 0

0101000
+115 0 *
Ve
0.000000100000000
128.059301374373007 72.906158673526392 0.000000000000000
0 0

0101101
*
Ve
0.000000100000000
128.059301374373007 72.906158673526392 3.000000000000000
0 0

0101101
*
Ed
 0.000000100000000 1 1 0
1  13 0 0.000000000000000 3.000000000000000
3  1 2CN 5 0 0.000000000000000 3.000000000000000
0

0101000
+113 3 -112 3 *
Ed
 0.000000100000000 1 1 0
1  14 0 0.000000000000000 6.283185307179586
2  3 5 12 0.000000000000000 6.283185307179586
0

0101100
+113 8 -113 8 *
Ed
 0.000000100000000 1 1 0
1  15 0 0.000000000000000 6.283185307179586
2  4 5 13 0.000000000000000 6.283185307179586
0

0101100
+112 11 -112 11 *
Wi

0101100
+111 0 -111 0 -110 7 +109 10 *
Fa
0  0.000000100000000 5 0

0101000
+108 0 *
Ve
0.000000100000000
153.059301374373007 72.906158673526392 0.000000000000000
0 0

0101101
*
Ve
0.000000100000000
153.059301374373007 72.906158673526392 3.000000000000000
0 0

0101101
*
Ed
 0.000000100000000 1 1 0
1  16 0 0.000000000000000 3.000000000000000
3  5 6CN 6 0 0.000000000000000 3.000000000000000
0

0101000
+106 3 -105 3 *
Ed
 0.000000100000000 1 1 0
1  17 0 0.000000000000000 6.283185307179586
2  7 6 12 0.000000000000000 6.283185307179586
0

0101100
+106 8 -106 8 *
Ed
 0.000000100000000 1 1 0
1  18 0 0.000000000000000 6.283185307179586
2  8 6 13 0.000000000000000 6.283185307179586
0

0101100
+105 11 -105 11 *
Wi

0101100
+104 0 -104 0 -103 7 +102 10 *
Fa
0  0.000000100000000 6 0

0101000
+101 0 *
Ve
0.000000100000000
128.059301374373007 85.406158673526377 0.000000000000000
0 0

0101101
*
Ve
0.000000100000000
128.059301374373007 85.406158673526377 3.000000000000000
0 0

0101101
*
Ed
 0.000000100000000 1 1 0
1  19 0 0.000000000000000 3.000000000000000
3  9 10CN 7 0 0.000000000000000 3.000000000000000
0

0101000
+99 3 -98 3 *
Ed
 0.000000100000000 1 1 0
1  20 0 0.000000000000000 6.283185307179586
2  11 7 12 0.000000000000000 6.283185307179586
0

0101100
+99 8 -99 8 *
Ed
 0.000000100000000 1 1 0
1  21 0 0.000000000000000 6.283185307179586
2  12 7 13 0.000000000000000 6.283185307179586
0

0101100
+98 11 -98 11 *
Wi

0101100
+97 0 -97 0 -96 7 +95 10 *
Fa
0  0.000000100000000 7 0

0101000
+94 0 *
Ve
0.000000100000000
153.059301374373007 85.406158673526377 0.000000000000000
0 0

0101101
*
Ve
0.000000100000000
153.059301374373007 85.406158673526377 3.000000000000000
0 0

0101101
*
Ed
 0.000000100000000 1 1 0
1  22 0 0.000000000000000 3.000000000000000
3  13 14CN 8 0 0.000000000000000 3.000000000000000
0

0101000
+92 3 -91 3 *
Ed
 0.000000100000000 1 1 0
1  23 0 0.000000000000000 6.283185307179586
2  15 8 12 0.000000000000000 6.283185307179586
0

0101100
+92 8 -92 8 *
Ed
 0.000000100000000 1 1 0
1  24 0 0.000000000000000 6.283185307179586
2  16 8 13 0.000000000000000 6.283185307179586
0

0101100
+91 11 -91 11 *
Wi

0101100
+90 0 -90 0 -89 7 +88 10 *
Fa
0  0.000000100000000 8 0

0101000
+87 0 *
Wi

0101100
+135 0 +128 0 +121 0 +117 0 *
Wi

0101100
+110 0 *
Wi

0101100
+103 0 *
Wi

0101100
+96 0 *
Wi

0101100
+89 0 *
Fa
0  0.000000100000000 9 0

0101000
+85 15 -84 15 -83 15 -82 15 -81 15 *
Wi

0101100
+134 0 +127 0 +120 0 +116 0 *
Wi

0101100
+109 0 *
Wi

0101100
+102 0 *
Wi

0101100
+95 0 *
Wi

0101100
+88 0 *
Fa
0  0.000000100000000 10 0

0101000
+79 15 -78 15 -77 15 -76 15 -75 15 *
Sh

0101100
+132 0 +125 0 +118 0 +114 0 -107 0 -100 0 -93 0 -86 0 +80 14 -74 16 
*
So

0100000
-73 0 *
Ve
0.000000100000000
119.434301374372993 9.156158673526321 0.000000000000000
0 0

0101101
*
Ve
0.000000100000000
119.434301374372993 9.156158673526321 3.000000000000000
0 0

0101101
*
Ed
 0.000000100000000 1 1 0
1  25 0 0.000000000000000 3.000000000000000
0

0101000
+71 3 -70 3 *
Ve
0.000000100000000
159.434301374372978 9.156158673526321 0.000000000000000
0 0

0101101
*
Ve
0.000000100000000
159.434301374372978 9.156158673526321 3.000000000000000
0 0

0101101
*
Ed
 0.000000100000000 1 1 0
1  26 0 0.000000000000000 3.000000000000000
0

0101000
+68 3 -67 3 *
Ed
 0.000000100000000 1 1 0
1  27 0 0.000000000000000 39.999999999999986
0

0101000
+71 8 -68 8 *
Ed
 0.000000100000000 1 1 0
1  28 0 0.000000000000000 39.999999999999986
0

0101000
+70 11 -67 11 *
Wi

0101100
+69 0 -66 0 -65 7 +64 10 *
Fa
0  0.000000100000000 11 0

0101000
+63 0 *
Ve
0.000000100000000
159.434301374372978 29.156158673526321 0.000000000000000
0 0

0101101
*
Ve
0.000000100000000
159.434301374372978 29.156158673526321 3.000000000000000
0 0

0101101
*
Ed
 0.000000100000000 1 1 0
1  29 0 0.000000000000000 3.000000000000000
0

0101000
+61 3 -60 3 *
Ed
 0.000000100000000 1 1 0
1  30 0 0.000000000000000 20.000000000000000
0

0101000
+68 8 -61 8 *
Ed
 0.000000100000000 1 1 0
1  31 0 0.000000000000000 20.000000000000000
0

0101000
+67 11 -60 11 *
Wi

0101100
+66 0 -59 0 -58 7 +57 10 *
Fa
0  0.000000100000000 12 0

0101000
+56 0 *
Ve
0.000000100000000
119.434301374372993 29.156158673526321 0.000000000000000
0 0

0101101
*
Ve
0.000000100000000
119.434301374372993 29.156158673526321 3.000000000000000
0 0

0101101
*
Ed
 0.000000100000000 1 1 0
1  32 0 0.000000000000000 3.000000000000000
0

0101000
+54 3 -53 3 *
Ed
 0.000000100000000 1 1 0
1  33 0 0.000000000000000 39.999999999999986
0

0101000
+61 8 -54 8 *
Ed
 0.000000100000000 1 1 0
1  34 0 0.000000000000000 39.999999999999986
0

0101000
+60 11 -53 11 *
Wi

0101100
+59 0 -52 0 -51 7 +50 10 *
Fa
0  0.000000100000000 13 0

0101000
+49 0 *
Ed
 0.000000100000000 1 1 0
1  35 0 0.000000000000000 20.000000000000000
0

0101000
+54 8 -71 8 *
Ed
 0.000000100000000 1 1 0
1  36 0 0.000000000000000 20.000000000000000
0

0101000
+53 11 -70 11 *
Wi

0101100
+52 0 -69 0 -47 7 +46 10 *
Fa
0  0.000000100000000 14 0

0101000
+45 0 *
Ve
0.000000100000000
128.059301374372978 12.906158673526301 0.000000000000000
0 0

0101101
*
Ve
0.000000100000000
128.059301374372978 12.906158673526301 3.000000000000000
0 0

0101101
*
Ed
 0.000000100000000 1 1 0
1  37 0 0.000000000000000 3.000000000000000
3  17 18CN 15 0 0.000000000000000 3.000000000000000
0

0101000
+43 3 -42 3 *
Ed
 0.000000100000000 1 1 0
1  38 0 0.000000000000000 6.283185307179586
2  19 15 12 0.000000000000000 6.283185307179586
0

0101100
+43 8 -43 8 *
Ed
 0.000000100000000 1 1 0
1  39 0 0.000000000000000 6.283185307179586
2  20 15 13 0.000000000000000 6.283185307179586
0

0101100
+42 11 -42 11 *
Wi

0101100
+41 0 -41 0 -40 7 +39 10 *
Fa
0  0.000000100000000 15 0

0101000
+38 0 *
Ve
0.000000100000000
153.059301374372978 12.906158673526301 0.000000000000000
0 0

0101101
*
Ve
0.000000100000000
153.059301374372978 12.906158673526301 3.000000000000000
0 0

0101101
*
Ed
 0.000000100000000 1 1 0
1  40 0 0.000000000000000 3.000000000000000
3  21 22CN 16 0 0.000000000000000 3.000000000000000
0

0101000
+36 3 -35 3 *
Ed
 0.000000100000000 1 1 0
1  41 0 0.000000000000000 6.283185307179586
2  23 16 12 0.000000000000000 6.283185307179586
0

0101100
+36 8 -36 8 *
Ed
 0.000000100000000 1 1 0
1  42 0 0.000000000000000 6.283185307179586
2  24 16 13 0.000000000000000 6.283185307179586
0

0101100
+35 11 -35 11 *
Wi

0101100
+34 0 -34 0 -33 7 +32 10 *
Fa
0  0.000000100000000 16 0

0101000
+31 0 *
Ve
0.000000100000000
128.059301374372978 25.406158673526328 0.000000000000000
0 0

0101101
*
Ve
0.000000100000000
128.059301374372978 25.406158673526328 3.000000000000000
0 0

0101101
*
Ed
 0.000000100000000 1 1 0
1  43 0 0.000000000000000 3.000000000000000
3  25 26CN 17 0 0.000000000000000 3.000000000000000
0

0101000
+29 3 -28 3 *
Ed
 0.000000100000000 1 1 0
1  44 0 0.000000000000000 6.283185307179586
2  27 17 12 0.000000000000000 6.283185307179586
0

0101100
+29 8 -29 8 *
Ed
 0.000000100000000 1 1 0
1  45 0 0.000000000000000 6.283185307179586
2  28 17 13 0.000000000000000 6.283185307179586
0

0101100
+28 11 -28 11 *
Wi

0101100
+27 0 -27 0 -26 7 +25 10 *
Fa
0  0.000000100000000 17 0

0101000
+24 0 *
Ve
0.000000100000000
153.059301374372978 25.406158673526328 0.000000000000000
0 0

0101101
*
Ve
0.000000100000000
153.059301374372978 25.406158673526328 3.000000000000000
0 0

0101101
*
Ed
 0.000000100000000 1 1 0
1  46 0 0.000000000000000 3.000000000000000
3  29 30CN 18 0 0.000000000000000 3.000000000000000
0

0101000
+22 3 -21 3 *
Ed
 0.000000100000000 1 1 0
1  47 0 0.000000000000000 6.283185307179586
2  31 18 12 0.000000000000000 6.283185307179586
0

0101100
+22 8 -22 8 *
Ed
 0.000000100000000 1 1 0
1  48 0 0.000000000000000 6.283185307179586
2  32 18 13 0.000000000000000 6.283185307179586
0

0101100
+21 11 -21 11 *
Wi

0101100
+20 0 -20 0 -19 7 +18 10 *
Fa
0  0.000000100000000 18 0

0101000
+17 0 *
Wi

0101100
+65 0 +58 0 +51 0 +47 0 *
Wi

0101100
+40 0 *
Wi

0101100
+33 0 *
Wi

0101100
+26 0 *
Wi

0101100
+19 0 *
Fa
0  0.000000100000000 19 0

0101000
+15 15 -14 15 -13 15 -12 15 -11 15 *
Wi

0101100
+64 0 +57 0 +50 0 +46 0 *
Wi

0101100
+39 0 *
Wi

0101100
+32 0 *
Wi

0101100
+25 0 *
Wi

0101100
+18 0 *
Fa
0  0.000000100000000 20 0

0101000
+9 15 -8 15 -7 15 -6 15 -5 15 *
Sh

0101100
+62 0 +55 0 +48 0 +44 0 -37 0 -30 0 -23 0 -16 0 +10 14 -4 16 
*
So

0100000
-3 0 *
Co

1100000
+72 0 +2 0 *

+1 1 