
CASCADE Topology V1, (c) Matra-Datavision
Locations 11
1
1.000000000000000 0.000000000000000 0.000000000000000 0.000000000000000 
0.000000000000000 1.000000000000000 0.000000000000000 0.000000000000000 
0.000000000000000 0.000000000000000 1.000000000000000 0.000000000000000 
1
1.000000000000000 0.000000000000000 0.000000000000000 0.000000000000000 
0.000000000000000 1.000000000000000 0.000000000000000 0.000000000000000 
0.000000000000000 0.000000000000000 1.000000000000000 2.999999999999996 
1
1.000000000000000 0.000000000000000 0.000000000000000 0.000000000000000 
0.000000000000000 1.000000000000000 0.000000000000000 0.000000000000000 
0.000000000000000 0.000000000000000 1.000000000000000 0.000000000000000 
2  1 1 2 1 3 -1 0
1
1.000000000000000 0.000000000000000 0.000000000000000 0.000000000000000 
0.000000000000000 1.000000000000000 0.000000000000000 0.000000000000000 
0.000000000000000 0.000000000000000 1.000000000000000 6.000000000000000 
2  1 1 2 1 3 -1 5 1 0
2  3 1 2 -1 1 -1 0
2  5 -1 3 1 2 -1 1 -1 0
2  3 -1 0
2  1 1 2 1 0
2  3 -1 5 1 0
Curve2ds 40
1 1.57079632679489656 0.00000000000000000 0.00000000000000000 -1.00000000000000000 
1 4.71238898038468967 0.00000000000000000 0.00000000000000000 -1.00000000000000000 
1 0.00000000000000000 0.00000000000000000 1.00000000000000000 0.00000000000000000 
1 0.00000000000000000 -6.00000000000000000 1.00000000000000000 0.00000000000000000 
1 0.00000000000000000 0.00000000000000000 1.00000000000000000 0.00000000000000000 
1 0.00000000000000000 -6.00000000000000000 1.00000000000000000 0.00000000000000000 
1 1.57079632679489656 0.00000000000000000 0.00000000000000000 -1.00000000000000000 
1 4.71238898038468967 0.00000000000000000 0.00000000000000000 -1.00000000000000000 
1 0.00000000000000000 0.00000000000000000 0.00000000000000000 -1.00000000000000000 
1 6.28318530717958623 0.00000000000000000 0.00000000000000000 -1.00000000000000000 
1 0.00000000000000000 0.00000000000000000 1.00000000000000000 0.00000000000000000 
1 0.00000000000000000 -6.00000000000000000 1.00000000000000000 0.00000000000000000 
1 0.00000000000000000 0.00000000000000000 0.00000000000000000 -1.00000000000000000 
1 6.28318530717958623 0.00000000000000000 0.00000000000000000 -1.00000000000000000 
1 0.00000000000000000 0.00000000000000000 1.00000000000000000 0.00000000000000000 
1 0.00000000000000000 -6.00000000000000000 1.00000000000000000 0.00000000000000000 
1 0.00000000000000000 0.00000000000000000 0.00000000000000000 -1.00000000000000000 
1 6.28318530717958623 0.00000000000000000 0.00000000000000000 -1.00000000000000000 
1 0.00000000000000000 0.00000000000000000 1.00000000000000000 0.00000000000000000 
1 0.00000000000000000 -6.00000000000000000 1.00000000000000000 0.00000000000000000 
1 0.00000000000000000 0.00000000000000000 0.00000000000000000 -1.00000000000000000 
1 6.28318530717958623 0.00000000000000000 0.00000000000000000 -1.00000000000000000 
1 0.00000000000000000 0.00000000000000000 1.00000000000000000 0.00000000000000000 
1 0.00000000000000000 -6.00000000000000000 1.00000000000000000 0.00000000000000000 
1 0.00000000000000000 0.00000000000000000 0.00000000000000000 -1.00000000000000000 
1 6.28318530717958623 0.00000000000000000 0.00000000000000000 -1.00000000000000000 
1 0.00000000000000000 0.00000000000000000 1.00000000000000000 0.00000000000000000 
1 0.00000000000000000 -6.00000000000000000 1.00000000000000000 0.00000000000000000 
1 0.00000000000000000 0.00000000000000000 0.00000000000000000 -1.00000000000000000 
1 6.28318530717958623 0.00000000000000000 0.00000000000000000 -1.00000000000000000 
1 0.00000000000000000 0.00000000000000000 1.00000000000000000 0.00000000000000000 
1 0.00000000000000000 -6.00000000000000000 1.00000000000000000 0.00000000000000000 
1 0.00000000000000000 0.00000000000000000 0.00000000000000000 -1.00000000000000000 
1 6.28318530717958623 0.00000000000000000 0.00000000000000000 -1.00000000000000000 
1 0.00000000000000000 0.00000000000000000 1.00000000000000000 0.00000000000000000 
1 0.00000000000000000 -6.00000000000000000 1.00000000000000000 0.00000000000000000 
1 0.00000000000000000 0.00000000000000000 0.00000000000000000 -1.00000000000000000 
1 6.28318530717958623 0.00000000000000000 0.00000000000000000 -1.00000000000000000 
1 0.00000000000000000 0.00000000000000000 1.00000000000000000 0.00000000000000000 
1 0.00000000000000000 -6.00000000000000000 1.00000000000000000 0.00000000000000000 
Curves 26
1 136.46694322978711966 -0.64410999249784329 2.99999999999999645 0.00000000000000000 0.00000000000000000 1.00000000000000000 
1 136.46693232382935435 -15.64410999249388112 2.99999999999999645 0.00000000000000000 0.00000000000000000 1.00000000000000000 
2 136.46693777680823700 -8.14410999249586176 0.00000000000000000 0.00000000000000000 -0.00000000000000000 1.00000000000000000 0.99999999999973577 -0.00000072706385173 -0.00000000000000000 0.00000072706385173 0.99999999999973577 0.00000000000000000 7.50000000000000000
1 138.37885456959770636 -15.64411138258343392 2.99999999999999645 0.99999999999973577 -0.00000072706385157 0.00000000000000000 
2 142.20270451411329304 -8.14411416276451838 0.00000000000000000 -0.00000000000000000 -0.00000000000000000 1.00000000000000000 -0.99999999999973577 0.00000072706385173 0.00000000000000000 -0.00000072706385173 -0.99999999999973577 -0.00000000000000000 7.50000000000000000
1 136.46694322978711966 -0.64410999249784329 2.99999999999999645 0.99999999999973577 -0.00000072706385174 0.00000000000000000 
1 142.20269906113441039 -15.64411416276253775 2.99999999999999645 0.00000000000000000 0.00000000000000000 1.00000000000000000 
1 142.20270996709217570 -0.64411416276649991 2.99999999999999645 0.00000000000000000 0.00000000000000000 1.00000000000000000 
1 136.46693232382935435 -15.64410999249388112 8.99999999999999645 0.99999999999973577 -0.00000072706385203 0.00000000000000000 
1 138.37886547555547168 -0.64411138258739553 8.99999999999999645 0.99999999999973577 -0.00000072706385172 0.00000000000000000 
1 46.30473849999999914 104.48929900000000259 2.99999999999999645 0.00000000000000000 0.00000000000000000 1.00000000000000000 
2 42.80473849999999914 104.48929900000000259 0.00000000000000000 0.00000000000000000 0.00000000000000000 1.00000000000000000 1.00000000000000000 0.00000000000000000 0.00000000000000000 0.00000000000000000 1.00000000000000000 0.00000000000000000 3.50000000000000000
1 26.75918750000001367 50.78734399999997606 2.99999999999999645 0.00000000000000000 0.00000000000000000 1.00000000000000000 
2 23.25918750000001367 50.78734399999997606 0.00000000000000000 0.00000000000000000 0.00000000000000000 1.00000000000000000 1.00000000000000000 0.00000000000000000 0.00000000000000000 0.00000000000000000 1.00000000000000000 0.00000000000000000 3.50000000000000000
1 117.90849550000022816 78.42854700000009416 2.99999999999999645 0.00000000000000000 0.00000000000000000 1.00000000000000000 
2 114.40849550000022816 78.42854700000009416 0.00000000000000000 0.00000000000000000 0.00000000000000000 1.00000000000000000 1.00000000000000000 0.00000000000000000 0.00000000000000000 0.00000000000000000 1.00000000000000000 0.00000000000000000 3.50000000000000000
1 98.36453491668089555 24.72790095131058052 2.99999999999999645 0.00000000000000000 0.00000000000000000 1.00000000000000000 
2 94.86453491668089555 24.72790095131058052 0.00000000000000000 0.00000000000000000 0.00000000000000000 1.00000000000000000 1.00000000000000000 0.00000000000000000 0.00000000000000000 0.00000000000000000 1.00000000000000000 0.00000000000000000 3.50000000000000000
1 167.98996100000002230 78.51059499999999503 2.99999999999999645 0.00000000000000000 0.00000000000000000 1.00000000000000000 
2 164.48996100000002230 78.51059499999999503 0.00000000000000000 0.00000000000000000 0.00000000000000000 1.00000000000000000 1.00000000000000000 0.00000000000000000 0.00000000000000000 0.00000000000000000 1.00000000000000000 0.00000000000000000 3.50000000000000000
1 239.59226749999999129 104.57179700000000366 2.99999999999999645 0.00000000000000000 0.00000000000000000 1.00000000000000000 
2 236.09226749999999129 104.57179700000000366 0.00000000000000000 0.00000000000000000 0.00000000000000000 1.00000000000000000 1.00000000000000000 0.00000000000000000 0.00000000000000000 0.00000000000000000 1.00000000000000000 0.00000000000000000 3.50000000000000000
1 259.13666899999998350 50.87004199999999798 2.99999999999999645 0.00000000000000000 0.00000000000000000 1.00000000000000000 
2 255.63666899999998350 50.87004199999999798 0.00000000000000000 0.00000000000000000 0.00000000000000000 1.00000000000000000 1.00000000000000000 0.00000000000000000 0.00000000000000000 0.00000000000000000 1.00000000000000000 0.00000000000000000 3.50000000000000000
1 187.53591183914011253 24.80843132448038446 2.99999999999999645 0.00000000000000000 0.00000000000000000 1.00000000000000000 
2 184.03591183914011253 24.80843132448038446 0.00000000000000000 0.00000000000000000 0.00000000000000000 1.00000000000000000 1.00000000000000000 0.00000000000000000 0.00000000000000000 0.00000000000000000 1.00000000000000000 0.00000000000000000 3.50000000000000000
Polygon3D 0
PolygonOnTriangulations 0
Surfaces 25
2 136.46693777680823700 -8.14410999249586176 2.99999999999999645 0.00000000000000000 -0.00000000000000000 -1.00000000000000000 0.99999999999973577 -0.00000072706385173 0.00000000000000000 0.00000072706385173 0.99999999999973577 0.00000000000000000 7.50000000000000000
1 136.46694322978711966 -0.64410999249784329 2.99999999999999645 0.00000072706385174 0.99999999999973577 -0.00000000000000000 0.99999999999973577 -0.00000072706385174 0.00000000000000000 0.00000000000000000 -0.00000000000000000 -1.00000000000000000 
1 136.46693232382935435 -15.64410999249388112 2.99999999999999645 0.00000072706385203 0.99999999999973577 -0.00000000000000000 0.99999999999973577 -0.00000072706385203 0.00000000000000000 0.00000000000000000 -0.00000000000000000 -1.00000000000000000 
1 139.41705311123106981 44.29533730962393179 2.99999999999999645 0.00000000000000000 0.00000000000000000 1.00000000000000000 1.00000000000000000 0.00000000000000000 -0.00000000000000000 -0.00000000000000000 1.00000000000000000 0.00000000000000000 
2 142.20270451411329304 -8.14411416276451838 2.99999999999999645 -0.00000000000000000 0.00000000000000000 -1.00000000000000000 -0.99999999999973577 0.00000072706385173 0.00000000000000000 -0.00000072706385173 -0.99999999999973577 -0.00000000000000000 7.50000000000000000
1 138.37885456959770636 -15.64411138258343392 2.99999999999999645 0.00000072706385157 0.99999999999973577 -0.00000000000000000 0.99999999999973577 -0.00000072706385157 0.00000000000000000 0.00000000000000000 -0.00000000000000000 -1.00000000000000000 
1 138.37886547555547168 -0.64411138258739553 2.99999999999999645 0.00000072706385172 0.99999999999973577 -0.00000000000000000 0.99999999999973577 -0.00000072706385172 0.00000000000000000 0.00000000000000000 -0.00000000000000000 -1.00000000000000000 
1 139.33481569248189658 -15.64411207762821299 5.99999999999999645 -0.00000072706385170 -0.99999999999973577 -0.00000000000000000 -0.99999999999973577 0.00000072706385170 0.00000000000000000 0.00000000000000000 0.00000000000000000 -1.00000000000000000 
1 139.33482659843963347 -0.64411207763217182 5.99999999999999734 0.00000072706385172 0.99999999999973577 0.00000000000000000 0.99999999999973577 -0.00000072706385172 0.00000000000000000 0.00000000000000000 0.00000000000000000 -1.00000000000000000 
2 42.80473849999999914 104.48929900000000259 2.99999999999999645 -0.00000000000000000 -0.00000000000000000 -1.00000000000000000 1.00000000000000000 0.00000000000000000 0.00000000000000000 0.00000000000000000 1.00000000000000000 0.00000000000000000 3.50000000000000000
1 139.41705311123106981 44.29533730962393179 2.99999999999999645 0.00000000000000000 0.00000000000000000 1.00000000000000000 1.00000000000000000 0.00000000000000000 -0.00000000000000000 -0.00000000000000000 1.00000000000000000 0.00000000000000000 
2 23.25918750000001367 50.78734399999997606 2.99999999999999645 -0.00000000000000000 -0.00000000000000000 -1.00000000000000000 1.00000000000000000 0.00000000000000000 0.00000000000000000 0.00000000000000000 1.00000000000000000 0.00000000000000000 3.50000000000000000
1 139.41705311123106981 44.29533730962393179 2.99999999999999645 0.00000000000000000 0.00000000000000000 1.00000000000000000 1.00000000000000000 0.00000000000000000 -0.00000000000000000 -0.00000000000000000 1.00000000000000000 0.00000000000000000 
2 114.40849550000022816 78.42854700000009416 2.99999999999999645 -0.00000000000000000 -0.00000000000000000 -1.00000000000000000 1.00000000000000000 0.00000000000000000 0.00000000000000000 0.00000000000000000 1.00000000000000000 0.00000000000000000 3.50000000000000000
1 139.41705311123106981 44.29533730962393179 2.99999999999999645 0.00000000000000000 0.00000000000000000 1.00000000000000000 1.00000000000000000 0.00000000000000000 -0.00000000000000000 -0.00000000000000000 1.00000000000000000 0.00000000000000000 
2 94.86453491668089555 24.72790095131058052 2.99999999999999645 -0.00000000000000000 -0.00000000000000000 -1.00000000000000000 1.00000000000000000 0.00000000000000000 0.00000000000000000 0.00000000000000000 1.00000000000000000 0.00000000000000000 3.50000000000000000
1 139.41705311123106981 44.29533730962393179 2.99999999999999645 0.00000000000000000 0.00000000000000000 1.00000000000000000 1.00000000000000000 0.00000000000000000 -0.00000000000000000 -0.00000000000000000 1.00000000000000000 0.00000000000000000 
2 164.48996100000002230 78.51059499999999503 2.99999999999999645 -0.00000000000000000 -0.00000000000000000 -1.00000000000000000 1.00000000000000000 0.00000000000000000 0.00000000000000000 0.00000000000000000 1.00000000000000000 0.00000000000000000 3.50000000000000000
1 139.41705311123106981 44.29533730962393179 2.99999999999999645 0.00000000000000000 0.00000000000000000 1.00000000000000000 1.00000000000000000 0.00000000000000000 -0.00000000000000000 -0.00000000000000000 1.00000000000000000 0.00000000000000000 
2 236.09226749999999129 104.57179700000000366 2.99999999999999645 -0.00000000000000000 -0.00000000000000000 -1.00000000000000000 1.00000000000000000 0.00000000000000000 0.00000000000000000 0.00000000000000000 1.00000000000000000 0.00000000000000000 3.50000000000000000
1 139.41705311123106981 44.29533730962393179 2.99999999999999645 0.00000000000000000 0.00000000000000000 1.00000000000000000 1.00000000000000000 0.00000000000000000 -0.00000000000000000 -0.00000000000000000 1.00000000000000000 0.00000000000000000 
2 255.63666899999998350 50.87004199999999798 2.99999999999999645 -0.00000000000000000 -0.00000000000000000 -1.00000000000000000 1.00000000000000000 0.00000000000000000 0.00000000000000000 0.00000000000000000 1.00000000000000000 0.00000000000000000 3.50000000000000000
1 139.41705311123106981 44.29533730962393179 2.99999999999999645 0.00000000000000000 0.00000000000000000 1.00000000000000000 1.00000000000000000 0.00000000000000000 -0.00000000000000000 -0.00000000000000000 1.00000000000000000 0.00000000000000000 
2 184.03591183914011253 24.80843132448038446 2.99999999999999645 -0.00000000000000000 -0.00000000000000000 -1.00000000000000000 1.00000000000000000 0.00000000000000000 0.00000000000000000 0.00000000000000000 1.00000000000000000 0.00000000000000000 3.50000000000000000
1 139.41705311123106981 44.29533730962393179 2.99999999999999645 0.00000000000000000 0.00000000000000000 1.00000000000000000 1.00000000000000000 0.00000000000000000 -0.00000000000000000 -0.00000000000000000 1.00000000000000000 0.00000000000000000 
Triangulations 0

TShapes 101
Ve
0.000000100000000
136.466943229787120 -0.644109992497843 0.000000000000000
0 0

0101101
*
Ed
 0.000000100000000 1 1 0
1  1 0 0.000000000000000 6.000000000000000
2  1 1 0 0.000000000000000 6.000000000000000
4 G1 1 0 2 0
0

0101000
+101 4 -101 6 *
Ve
0.000000100000000
136.466932323829354 -15.644109992493881 0.000000000000000
0 0

0101101
*
Ed
 0.000000100000000 1 1 0
1  2 0 0.000000000000000 6.000000000000000
2  2 1 0 0.000000000000000 6.000000000000000
4 G1 1 0 3 0
0

0101000
+99 4 -99 6 *
Ed
 0.000000100000000 1 1 0
1  3 0 1.570796326794897 4.712388980384690
2  3 1 7 1.570796326794897 4.712388980384690
2  4 1 8 1.570796326794897 4.712388980384690
0

0101000
+101 0 -99 0 *
Wi

0101100
+100 0 -98 0 -97 4 +97 6 *
Fa
0  0.000000100000000 1 0

0101000
+96 0 *
Ve
0.000000100000000
142.202699061134410 -15.644114162762538 0.000000000000000
0 0

0101101
*
Ed
 0.000000100000000 1 1 0
1  4 0 -1.911922245768858 3.823844491537715
0

0101000
+99 4 -94 4 *
Ve
0.000000100000000
142.202709967092176 -0.644114162766500 0.000000000000000
0 0

0101101
*
Ed
 0.000000100000000 1 1 0
1  5 0 1.570796326794897 4.712388980384690
2  5 5 7 1.570796326794897 4.712388980384690
2  6 5 8 1.570796326794897 4.712388980384690
0

0101000
+94 0 -92 0 *
Ed
 0.000000100000000 1 1 0
1  6 0 0.000000000000000 5.735766737306573
0

0101000
+101 4 -92 4 *
Wi

0101000
+97 0 +93 7 +91 0 -90 7 *
Fa
0  0.000000100000000 4 0

0111000
+89 10 *
Ed
 0.000000100000000 1 1 0
1  7 0 0.000000000000000 6.000000000000000
2  7 5 0 0.000000000000000 6.000000000000000
4 G1 6 0 5 0
0

0101000
+94 4 -94 6 *
Ed
 0.000000100000000 1 1 0
1  8 0 0.000000000000000 6.000000000000000
2  8 5 0 0.000000000000000 6.000000000000000
4 G1 5 0 7 0
0

0101000
+92 4 -92 6 *
Wi

0101100
+87 0 -86 0 -91 4 +91 6 *
Fa
0  0.000000100000000 5 0

0101000
+85 0 *
Ed
 0.000000100000000 1 1 0
1  9 0 0.000000000000000 5.735766737306573
0

0101000
+99 6 -94 6 *
Ed
 0.000000100000000 1 1 0
1  10 0 -1.911922245768858 3.823844491537715
0

0101000
+101 6 -92 6 *
Wi

0101000
+97 0 +83 8 +91 0 -82 8 *
Fa
0  0.000000100000000 4 0

0111000
+81 10 *
Wi

0101000
-98 0 +93 0 +87 0 -83 0 *
Fa
0  0.000000100000000 8 0

0111000
+79 0 *
Wi

0101000
-86 0 -90 0 +100 0 +82 0 *
Fa
0  0.000000100000000 9 0

0111000
+77 0 *
Sh

0101000
-95 0 -88 9 -84 0 +80 11 +78 0 +76 0 *
So

0100000
+75 0 *
Ve
0.000000100000000
46.304738499999999 104.489299000000003 0.000000000000000
0 0

0101101
*
Ed
 0.000000100000000 1 1 0
1  11 0 0.000000000000000 6.000000000000000
3  9 10CN 10 0 0.000000000000000 6.000000000000000
0

0101000
+73 4 -73 6 *
Ed
 0.000000100000000 1 1 0
1  12 0 0.000000000000000 6.283185307179586
2  11 10 7 0.000000000000000 6.283185307179586
2  12 10 8 0.000000000000000 6.283185307179586
0

0101100
+73 0 -73 0 *
Wi

0101100
+72 0 -72 0 -71 4 +71 6 *
Fa
0  0.000000100000000 10 0

0101000
+70 0 *
Wi

0101100
+71 0 *
Fa
0  0.000000100000000 11 0

0101000
+68 10 *
Sh

0101100
+69 0 +67 9 -67 11 *
So

0100000
-66 0 *
Ve
0.000000100000000
26.759187500000014 50.787343999999976 0.000000000000000
0 0

0101101
*
Ed
 0.000000100000000 1 1 0
1  13 0 0.000000000000000 6.000000000000000
3  13 14CN 12 0 0.000000000000000 6.000000000000000
0

0101000
+64 4 -64 6 *
Ed
 0.000000100000000 1 1 0
1  14 0 0.000000000000000 6.283185307179586
2  15 12 7 0.000000000000000 6.283185307179586
2  16 12 8 0.000000000000000 6.283185307179586
0

0101100
+64 0 -64 0 *
Wi

0101100
+63 0 -63 0 -62 4 +62 6 *
Fa
0  0.000000100000000 12 0

0101000
+61 0 *
Wi

0101100
+62 0 *
Fa
0  0.000000100000000 13 0

0101000
+59 10 *
Sh

0101100
+60 0 +58 9 -58 11 *
So

0100000
-57 0 *
Ve
0.000000100000000
117.908495500000228 78.428547000000094 0.000000000000000
0 0

0101101
*
Ed
 0.000000100000000 1 1 0
1  15 0 0.000000000000000 6.000000000000000
3  17 18CN 14 0 0.000000000000000 6.000000000000000
0

0101000
+55 4 -55 6 *
Ed
 0.000000100000000 1 1 0
1  16 0 0.000000000000000 6.283185307179586
2  19 14 7 0.000000000000000 6.283185307179586
2  20 14 8 0.000000000000000 6.283185307179586
0

0101100
+55 0 -55 0 *
Wi

0101100
+54 0 -54 0 -53 4 +53 6 *
Fa
0  0.000000100000000 14 0

0101000
+52 0 *
Wi

0101100
+53 0 *
Fa
0  0.000000100000000 15 0

0101000
+50 10 *
Sh

0101100
+51 0 +49 9 -49 11 *
So

0100000
-48 0 *
Ve
0.000000100000000
98.364534916680896 24.727900951310581 0.000000000000000
0 0

0101101
*
Ed
 0.000000100000000 1 1 0
1  17 0 0.000000000000000 6.000000000000000
3  21 22CN 16 0 0.000000000000000 6.000000000000000
0

0101000
+46 4 -46 6 *
Ed
 0.000000100000000 1 1 0
1  18 0 0.000000000000000 6.283185307179586
2  23 16 7 0.000000000000000 6.283185307179586
2  24 16 8 0.000000000000000 6.283185307179586
0

0101100
+46 0 -46 0 *
Wi

0101100
+45 0 -45 0 -44 4 +44 6 *
Fa
0  0.000000100000000 16 0

0101000
+43 0 *
Wi

0101100
+44 0 *
Fa
0  0.000000100000000 17 0

0101000
+41 10 *
Sh

0101100
+42 0 +40 9 -40 11 *
So

0100000
-39 0 *
Ve
0.000000100000000
167.989961000000022 78.510594999999995 0.000000000000000
0 0

0101101
*
Ed
 0.000000100000000 1 1 0
1  19 0 0.000000000000000 6.000000000000000
3  25 26CN 18 0 0.000000000000000 6.000000000000000
0

0101000
+37 4 -37 6 *
Ed
 0.000000100000000 1 1 0
1  20 0 0.000000000000000 6.283185307179586
2  27 18 7 0.000000000000000 6.283185307179586
2  28 18 8 0.000000000000000 6.283185307179586
0

0101100
+37 0 -37 0 *
Wi

0101100
+36 0 -36 0 -35 4 +35 6 *
Fa
0  0.000000100000000 18 0

0101000
+34 0 *
Wi

0101100
+35 0 *
Fa
0  0.000000100000000 19 0

0101000
+32 10 *
Sh

0101100
+33 0 +31 9 -31 11 *
So

0100000
-30 0 *
Ve
0.000000100000000
239.592267499999991 104.571797000000004 0.000000000000000
0 0

0101101
*
Ed
 0.000000100000000 1 1 0
1  21 0 0.000000000000000 6.000000000000000
3  29 30CN 20 0 0.000000000000000 6.000000000000000
0

0101000
+28 4 -28 6 *
Ed
 0.000000100000000 1 1 0
1  22 0 0.000000000000000 6.283185307179586
2  31 20 7 0.000000000000000 6.283185307179586
2  32 20 8 0.000000000000000 6.283185307179586
0

0101100
+28 0 -28 0 *
Wi

0101100
+27 0 -27 0 -26 4 +26 6 *
Fa
0  0.000000100000000 20 0

0101000
+25 0 *
Wi

0101100
+26 0 *
Fa
0  0.000000100000000 21 0

0101000
+23 10 *
Sh

0101100
+24 0 +22 9 -22 11 *
So

0100000
-21 0 *
Ve
0.000000100000000
259.136668999999983 50.870041999999998 0.000000000000000
0 0

0101101
*
Ed
 0.000000100000000 1 1 0
1  23 0 0.000000000000000 6.000000000000000
3  33 34CN 22 0 0.000000000000000 6.000000000000000
0

0101000
+19 4 -19 6 *
Ed
 0.000000100000000 1 1 0
1  24 0 0.000000000000000 6.283185307179586
2  35 22 7 0.000000000000000 6.283185307179586
2  36 22 8 0.000000000000000 6.283185307179586
0

0101100
+19 0 -19 0 *
Wi

0101100
+18 0 -18 0 -17 4 +17 6 *
Fa
0  0.000000100000000 22 0

0101000
+16 0 *
Wi

0101100
+17 0 *
Fa
0  0.000000100000000 23 0

0101000
+14 10 *
Sh

0101100
+15 0 +13 9 -13 11 *
So

0100000
-12 0 *
Ve
0.000000100000000
187.535911839140113 24.808431324480384 0.000000000000000
0 0

0101101
*
Ed
 0.000000100000000 1 1 0
1  25 0 0.000000000000000 6.000000000000000
3  37 38CN 24 0 0.000000000000000 6.000000000000000
0

0101000
+10 4 -10 6 *
Ed
 0.000000100000000 1 1 0
1  26 0 0.000000000000000 6.283185307179586
2  39 24 7 0.000000000000000 6.283185307179586
2  40 24 8 0.000000000000000 6.283185307179586
0

0101100
+10 0 -10 0 *
Wi

0101100
+9 0 -9 0 -8 4 +8 6 *
Fa
0  0.000000100000000 24 0

0101000
+7 0 *
Wi

0101100
+8 0 *
Fa
0  0.000000100000000 25 0

0101000
+5 10 *
Sh

0101100
+6 0 +4 9 -4 11 *
So

0100000
-3 0 *
Co

1100000
+74 0 +65 0 +56 0 +47 0 +38 0 +29 0 +20 0 +11 0 +2 0 *

+1 0 