
CASCADE Topology V1, (c) Matra-Datavision
Locations 12
1
1.000000000000000 0.000000000000000 0.000000000000000 0.000000000000000 
0.000000000000000 1.000000000000000 0.000000000000000 0.000000000000000 
0.000000000000000 0.000000000000000 1.000000000000000 0.000000000000000 
1
1.000000000000000 0.000000000000000 0.000000000000000 0.000000000000000 
0.000000000000000 1.000000000000000 0.000000000000000 0.000000000000000 
0.000000000000000 0.000000000000000 1.000000000000000 0.000000000000000 
1
1.000000000000000 0.000000000000000 0.000000000000000 0.000000000000000 
0.000000000000000 1.000000000000000 0.000000000000000 0.000000000000000 
0.000000000000000 0.000000000000000 1.000000000000000 0.000000000000000 
1
1.000000000000000 0.000000000000000 0.000000000000000 0.000000000000000 
0.000000000000000 1.000000000000000 0.000000000000000 0.000000000000000 
0.000000000000000 0.000000000000000 1.000000000000000 0.000000000000000 
2  2 1 3 1 4 -1 0
1
1.000000000000000 0.000000000000000 0.000000000000000 0.000000000000000 
0.000000000000000 1.000000000000000 0.000000000000000 0.000000000000000 
0.000000000000000 0.000000000000000 1.000000000000000 3.000000000000000 
2  2 1 3 1 4 -1 6 1 0
2  4 1 3 -1 2 -1 0
2  6 -1 4 1 3 -1 2 -1 0
2  4 -1 0
2  2 1 3 1 0
2  4 -1 6 1 0
Curve2ds 32
1 0.00000000000000000 0.00000000000000000 0.00000000000000000 -1.00000000000000000 
1 6.28318530717958623 0.00000000000000000 0.00000000000000000 -1.00000000000000000 
1 0.00000000000000000 0.00000000000000000 1.00000000000000000 0.00000000000000000 
1 0.00000000000000000 -3.00000000000000000 1.00000000000000000 0.00000000000000000 
1 0.00000000000000000 0.00000000000000000 0.00000000000000000 -1.00000000000000000 
1 6.28318530717958623 0.00000000000000000 0.00000000000000000 -1.00000000000000000 
1 0.00000000000000000 0.00000000000000000 1.00000000000000000 0.00000000000000000 
1 0.00000000000000000 -3.00000000000000000 1.00000000000000000 0.00000000000000000 
1 0.00000000000000000 0.00000000000000000 0.00000000000000000 -1.00000000000000000 
1 6.28318530717958623 0.00000000000000000 0.00000000000000000 -1.00000000000000000 
1 0.00000000000000000 0.00000000000000000 1.00000000000000000 0.00000000000000000 
1 0.00000000000000000 -3.00000000000000000 1.00000000000000000 0.00000000000000000 
1 0.00000000000000000 0.00000000000000000 0.00000000000000000 -1.00000000000000000 
1 6.28318530717958623 0.00000000000000000 0.00000000000000000 -1.00000000000000000 
1 0.00000000000000000 0.00000000000000000 1.00000000000000000 0.00000000000000000 
1 0.00000000000000000 -3.00000000000000000 1.00000000000000000 0.00000000000000000 
1 0.00000000000000000 0.00000000000000000 0.00000000000000000 -1.00000000000000000 
1 6.28318530717958623 0.00000000000000000 0.00000000000000000 -1.00000000000000000 
1 0.00000000000000000 0.00000000000000000 1.00000000000000000 0.00000000000000000 
1 0.00000000000000000 -3.00000000000000000 1.00000000000000000 0.00000000000000000 
1 0.00000000000000000 0.00000000000000000 0.00000000000000000 -1.00000000000000000 
1 6.28318530717958623 0.00000000000000000 0.00000000000000000 -1.00000000000000000 
1 0.00000000000000000 0.00000000000000000 1.00000000000000000 0.00000000000000000 
1 0.00000000000000000 -3.00000000000000000 1.00000000000000000 0.00000000000000000 
1 0.00000000000000000 0.00000000000000000 0.00000000000000000 -1.00000000000000000 
1 6.28318530717958623 0.00000000000000000 0.00000000000000000 -1.00000000000000000 
1 0.00000000000000000 0.00000000000000000 1.00000000000000000 0.00000000000000000 
1 0.00000000000000000 -3.00000000000000000 1.00000000000000000 0.00000000000000000 
1 0.00000000000000000 0.00000000000000000 0.00000000000000000 -1.00000000000000000 
1 6.28318530717958623 0.00000000000000000 0.00000000000000000 -1.00000000000000000 
1 0.00000000000000000 0.00000000000000000 1.00000000000000000 0.00000000000000000 
1 0.00000000000000000 -3.00000000000000000 1.00000000000000000 0.00000000000000000 
Curves 32
1 119.43430137437299265 89.15615867352637736 0.00000000000000000 0.00000000000000000 0.00000000000000000 1.00000000000000000 
1 119.43430137437299265 69.15615867352637736 0.00000000000000000 0.00000000000000000 0.00000000000000000 1.00000000000000000 
1 119.43430137437299265 89.15615867352637736 0.00000000000000000 0.00000000000000000 -1.00000000000000000 0.00000000000000000 
1 159.43430137437297844 69.15615867352637736 0.00000000000000000 0.00000000000000000 0.00000000000000000 1.00000000000000000 
1 119.43430137437299265 69.15615867352637736 0.00000000000000000 1.00000000000000000 0.00000000000000000 0.00000000000000000 
1 159.43430137437297844 89.15615867352637736 0.00000000000000000 0.00000000000000000 0.00000000000000000 1.00000000000000000 
1 159.43430137437297844 69.15615867352637736 0.00000000000000000 0.00000000000000000 1.00000000000000000 0.00000000000000000 
1 159.43430137437297844 89.15615867352637736 0.00000000000000000 -1.00000000000000000 0.00000000000000000 0.00000000000000000 
1 128.05930137437300687 72.90615867352639157 0.00000000000000000 0.00000000000000000 0.00000000000000000 1.00000000000000000 
2 126.93430137437300687 72.90615867352639157 0.00000000000000000 0.00000000000000000 0.00000000000000000 1.00000000000000000 1.00000000000000000 0.00000000000000000 0.00000000000000000 0.00000000000000000 1.00000000000000000 0.00000000000000000 1.12500000000000000
1 153.05930137437300687 72.90615867352639157 0.00000000000000000 0.00000000000000000 0.00000000000000000 1.00000000000000000 
2 151.93430137437300687 72.90615867352639157 0.00000000000000000 0.00000000000000000 0.00000000000000000 1.00000000000000000 1.00000000000000000 0.00000000000000000 0.00000000000000000 0.00000000000000000 1.00000000000000000 0.00000000000000000 1.12500000000000000
1 128.05930137437300687 85.40615867352637736 0.00000000000000000 0.00000000000000000 0.00000000000000000 1.00000000000000000 
2 126.93430137437300687 85.40615867352637736 0.00000000000000000 0.00000000000000000 0.00000000000000000 1.00000000000000000 1.00000000000000000 0.00000000000000000 0.00000000000000000 0.00000000000000000 1.00000000000000000 0.00000000000000000 1.12500000000000000
1 153.05930137437300687 85.40615867352637736 0.00000000000000000 0.00000000000000000 0.00000000000000000 1.00000000000000000 
2 151.93430137437300687 85.40615867352637736 0.00000000000000000 0.00000000000000000 0.00000000000000000 1.00000000000000000 1.00000000000000000 0.00000000000000000 0.00000000000000000 0.00000000000000000 1.00000000000000000 0.00000000000000000 1.12500000000000000
1 119.43430137437299265 9.15615867352632051 0.00000000000000000 0.00000000000000000 0.00000000000000000 1.00000000000000000 
1 159.43430137437297844 9.15615867352632051 0.00000000000000000 0.00000000000000000 0.00000000000000000 1.00000000000000000 
1 119.43430137437299265 9.15615867352632051 0.00000000000000000 1.00000000000000000 0.00000000000000000 0.00000000000000000 
1 159.43430137437297844 29.15615867352632051 0.00000000000000000 0.00000000000000000 0.00000000000000000 1.00000000000000000 
1 159.43430137437297844 9.15615867352632051 0.00000000000000000 0.00000000000000000 1.00000000000000000 0.00000000000000000 
1 119.43430137437299265 29.15615867352632051 0.00000000000000000 0.00000000000000000 0.00000000000000000 1.00000000000000000 
1 159.43430137437297844 29.15615867352632051 0.00000000000000000 -1.00000000000000000 0.00000000000000000 0.00000000000000000 
1 119.43430137437299265 29.15615867352632051 0.00000000000000000 0.00000000000000000 -1.00000000000000000 0.00000000000000000 
1 128.05930137437297844 12.90615867352630097 0.00000000000000000 0.00000000000000000 0.00000000000000000 1.00000000000000000 
2 126.93430137437297844 12.90615867352630097 0.00000000000000000 0.00000000000000000 0.00000000000000000 1.00000000000000000 1.00000000000000000 0.00000000000000000 0.00000000000000000 0.00000000000000000 1.00000000000000000 0.00000000000000000 1.12500000000000000
1 153.05930137437297844 12.90615867352630097 0.00000000000000000 0.00000000000000000 0.00000000000000000 1.00000000000000000 
2 151.93430137437297844 12.90615867352630097 0.00000000000000000 0.00000000000000000 0.00000000000000000 1.00000000000000000 1.00000000000000000 0.00000000000000000 0.00000000000000000 0.00000000000000000 1.00000000000000000 0.00000000000000000 1.12500000000000000
1 128.05930137437297844 25.40615867352632762 0.00000000000000000 0.00000000000000000 0.00000000000000000 1.00000000000000000 
2 126.93430137437297844 25.40615867352632762 0.00000000000000000 0.00000000000000000 0.00000000000000000 1.00000000000000000 1.00000000000000000 0.00000000000000000 0.00000000000000000 0.00000000000000000 1.00000000000000000 0.00000000000000000 1.12500000000000000
1 153.05930137437297844 25.40615867352632762 0.00000000000000000 0.00000000000000000 0.00000000000000000 1.00000000000000000 
2 151.93430137437297844 25.40615867352632762 0.00000000000000000 0.00000000000000000 0.00000000000000000 1.00000000000000000 1.00000000000000000 0.00000000000000000 0.00000000000000000 0.00000000000000000 1.00000000000000000 0.00000000000000000 1.12500000000000000
Polygon3D 0
PolygonOnTriangulations 0
Surfaces 18
1 119.43430137437299265 89.15615867352637736 0.00000000000000000 1.00000000000000000 0.00000000000000000 -0.00000000000000000 0.00000000000000000 -1.00000000000000000 0.00000000000000000 0.00000000000000000 -0.00000000000000000 -1.00000000000000000 
1 119.43430137437299265 69.15615867352637736 0.00000000000000000 0.00000000000000000 1.00000000000000000 0.00000000000000000 1.00000000000000000 0.00000000000000000 0.00000000000000000 0.00000000000000000 0.00000000000000000 -1.00000000000000000 
1 159.43430137437297844 69.15615867352637736 0.00000000000000000 -1.00000000000000000 0.00000000000000000 0.00000000000000000 0.00000000000000000 1.00000000000000000 0.00000000000000000 0.00000000000000000 0.00000000000000000 -1.00000000000000000 
1 159.43430137437297844 89.15615867352637736 0.00000000000000000 0.00000000000000000 -1.00000000000000000 0.00000000000000000 -1.00000000000000000 0.00000000000000000 0.00000000000000000 -0.00000000000000000 -0.00000000000000000 -1.00000000000000000 
2 126.93430137437300687 72.90615867352639157 0.00000000000000000 -0.00000000000000000 -0.00000000000000000 -1.00000000000000000 1.00000000000000000 0.00000000000000000 0.00000000000000000 0.00000000000000000 1.00000000000000000 0.00000000000000000 1.12500000000000000
2 151.93430137437300687 72.90615867352639157 0.00000000000000000 -0.00000000000000000 -0.00000000000000000 -1.00000000000000000 1.00000000000000000 0.00000000000000000 0.00000000000000000 0.00000000000000000 1.00000000000000000 0.00000000000000000 1.12500000000000000
2 126.93430137437300687 85.40615867352637736 0.00000000000000000 -0.00000000000000000 -0.00000000000000000 -1.00000000000000000 1.00000000000000000 0.00000000000000000 0.00000000000000000 0.00000000000000000 1.00000000000000000 0.00000000000000000 1.12500000000000000
2 151.93430137437300687 85.40615867352637736 0.00000000000000000 -0.00000000000000000 -0.00000000000000000 -1.00000000000000000 1.00000000000000000 0.00000000000000000 0.00000000000000000 0.00000000000000000 1.00000000000000000 0.00000000000000000 1.12500000000000000
1 139.43430137437329108 49.15615867352634893 0.00000000000000000 0.00000000000000000 0.00000000000000000 1.00000000000000000 1.00000000000000000 0.00000000000000000 -0.00000000000000000 -0.00000000000000000 1.00000000000000000 0.00000000000000000 
1 119.43430137437299265 9.15615867352632051 0.00000000000000000 0.00000000000000000 1.00000000000000000 0.00000000000000000 1.00000000000000000 0.00000000000000000 0.00000000000000000 0.00000000000000000 0.00000000000000000 -1.00000000000000000 
1 159.43430137437297844 9.15615867352632051 0.00000000000000000 -1.00000000000000000 0.00000000000000000 0.00000000000000000 0.00000000000000000 1.00000000000000000 0.00000000000000000 0.00000000000000000 0.00000000000000000 -1.00000000000000000 
1 159.43430137437297844 29.15615867352632051 0.00000000000000000 0.00000000000000000 -1.00000000000000000 0.00000000000000000 -1.00000000000000000 0.00000000000000000 0.00000000000000000 -0.00000000000000000 -0.00000000000000000 -1.00000000000000000 
1 119.43430137437299265 29.15615867352632051 0.00000000000000000 1.00000000000000000 0.00000000000000000 -0.00000000000000000 0.00000000000000000 -1.00000000000000000 0.00000000000000000 0.00000000000000000 -0.00000000000000000 -1.00000000000000000 
2 126.93430137437297844 12.90615867352630097 0.00000000000000000 -0.00000000000000000 -0.00000000000000000 -1.00000000000000000 1.00000000000000000 0.00000000000000000 0.00000000000000000 0.00000000000000000 1.00000000000000000 0.00000000000000000 1.12500000000000000
2 151.93430137437297844 12.90615867352630097 0.00000000000000000 -0.00000000000000000 -0.00000000000000000 -1.00000000000000000 1.00000000000000000 0.00000000000000000 0.00000000000000000 0.00000000000000000 1.00000000000000000 0.00000000000000000 1.12500000000000000
2 126.93430137437297844 25.40615867352632762 0.00000000000000000 -0.00000000000000000 -0.00000000000000000 -1.00000000000000000 1.00000000000000000 0.00000000000000000 0.00000000000000000 0.00000000000000000 1.00000000000000000 0.00000000000000000 1.12500000000000000
2 151.93430137437297844 25.40615867352632762 0.00000000000000000 -0.00000000000000000 -0.00000000000000000 -1.00000000000000000 1.00000000000000000 0.00000000000000000 0.00000000000000000 0.00000000000000000 1.00000000000000000 0.00000000000000000 1.12500000000000000
1 139.43430137437329108 49.15615867352634893 0.00000000000000000 0.00000000000000000 0.00000000000000000 1.00000000000000000 1.00000000000000000 0.00000000000000000 -0.00000000000000000 -0.00000000000000000 1.00000000000000000 0.00000000000000000 
Triangulations 0

TShapes 97
Ve
0.000000100000000
119.434301374372993 89.156158673526377 0.000000000000000
0 0

0101101
*
Ed
 0.000000100000000 1 1 0
1  1 0 0.000000000000000 3.000000000000000
0

0101000
+97 5 -97 7 *
Ve
0.000000100000000
119.434301374372993 69.156158673526377 0.000000000000000
0 0

0101101
*
Ed
 0.000000100000000 1 1 0
1  2 0 0.000000000000000 3.000000000000000
0

0101000
+95 5 -95 7 *
Ed
 0.000000100000000 1 1 0
1  3 0 0.000000000000000 20.000000000000000
0

0101000
+97 0 -95 0 *
Wi

0101100
+96 0 -94 0 -93 5 +93 7 *
Fa
0  0.000000100000000 1 0

0101000
+92 0 *
Ve
0.000000100000000
159.434301374372978 69.156158673526377 0.000000000000000
0 0

0101101
*
Ed
 0.000000100000000 1 1 0
1  4 0 0.000000000000000 3.000000000000000
0

0101000
+90 5 -90 7 *
Ed
 0.000000100000000 1 1 0
1  5 0 0.000000000000000 39.999999999999986
0

0101000
+95 0 -90 0 *
Wi

0101100
+94 0 -89 0 -88 5 +88 7 *
Fa
0  0.000000100000000 2 0

0101000
+87 0 *
Ve
0.000000100000000
159.434301374372978 89.156158673526377 0.000000000000000
0 0

0101101
*
Ed
 0.000000100000000 1 1 0
1  6 0 0.000000000000000 3.000000000000000
0

0101000
+85 5 -85 7 *
Ed
 0.000000100000000 1 1 0
1  7 0 0.000000000000000 20.000000000000000
0

0101000
+90 0 -85 0 *
Wi

0101100
+89 0 -84 0 -83 5 +83 7 *
Fa
0  0.000000100000000 3 0

0101000
+82 0 *
Ed
 0.000000100000000 1 1 0
1  8 0 0.000000000000000 39.999999999999986
0

0101000
+85 0 -97 0 *
Wi

0101100
+84 0 -96 0 -80 5 +80 7 *
Fa
0  0.000000100000000 4 0

0101000
+79 0 *
Ve
0.000000100000000
128.059301374373007 72.906158673526392 0.000000000000000
0 0

0101101
*
Ed
 0.000000100000000 1 1 0
1  9 0 0.000000000000000 3.000000000000000
3  1 2CN 5 0 0.000000000000000 3.000000000000000
0

0101000
+77 5 -77 7 *
Ed
 0.000000100000000 1 1 0
1  10 0 0.000000000000000 6.283185307179586
2  3 5 8 0.000000000000000 6.283185307179586
2  4 5 9 0.000000000000000 6.283185307179586
0

0101100
+77 0 -77 0 *
Wi

0101100
+76 0 -76 0 -75 5 +75 7 *
Fa
0  0.000000100000000 5 0

0101000
+74 0 *
Ve
0.000000100000000
153.059301374373007 72.906158673526392 0.000000000000000
0 0

0101101
*
Ed
 0.000000100000000 1 1 0
1  11 0 0.000000000000000 3.000000000000000
3  5 6CN 6 0 0.000000000000000 3.000000000000000
0

0101000
+72 5 -72 7 *
Ed
 0.000000100000000 1 1 0
1  12 0 0.000000000000000 6.283185307179586
2  7 6 8 0.000000000000000 6.283185307179586
2  8 6 9 0.000000000000000 6.283185307179586
0

0101100
+72 0 -72 0 *
Wi

0101100
+71 0 -71 0 -70 5 +70 7 *
Fa
0  0.000000100000000 6 0

0101000
+69 0 *
Ve
0.000000100000000
128.059301374373007 85.406158673526377 0.000000000000000
0 0

0101101
*
Ed
 0.000000100000000 1 1 0
1  13 0 0.000000000000000 3.000000000000000
3  9 10CN 7 0 0.000000000000000 3.000000000000000
0

0101000
+67 5 -67 7 *
Ed
 0.000000100000000 1 1 0
1  14 0 0.000000000000000 6.283185307179586
2  11 7 8 0.000000000000000 6.283185307179586
2  12 7 9 0.000000000000000 6.283185307179586
0

0101100
+67 0 -67 0 *
Wi

0101100
+66 0 -66 0 -65 5 +65 7 *
Fa
0  0.000000100000000 7 0

0101000
+64 0 *
Ve
0.000000100000000
153.059301374373007 85.406158673526377 0.000000000000000
0 0

0101101
*
Ed
 0.000000100000000 1 1 0
1  15 0 0.000000000000000 3.000000000000000
3  13 14CN 8 0 0.000000000000000 3.000000000000000
0

0101000
+62 5 -62 7 *
Ed
 0.000000100000000 1 1 0
1  16 0 0.000000000000000 6.283185307179586
2  15 8 8 0.000000000000000 6.283185307179586
2  16 8 9 0.000000000000000 6.283185307179586
0

0101100
+62 0 -62 0 *
Wi

0101100
+61 0 -61 0 -60 5 +60 7 *
Fa
0  0.000000100000000 8 0

0101000
+59 0 *
Wi

0101100
+93 0 +88 0 +83 0 +80 0 *
Wi

0101100
+75 0 *
Wi

0101100
+70 0 *
Wi

0101100
+65 0 *
Wi

0101100
+60 0 *
Fa
0  0.000000100000000 9 0

0101000
+57 11 -56 11 -55 11 -54 11 -53 11 *
Sh

0101100
+91 0 +86 0 +81 0 +78 0 -73 0 -68 0 -63 0 -58 0 +52 10 -52 12 
*
So

0100000
-51 0 *
Ve
0.000000100000000
119.434301374372993 9.156158673526321 0.000000000000000
0 0

0101101
*
Ed
 0.000000100000000 1 1 0
1  17 0 0.000000000000000 3.000000000000000
0

0101000
+49 5 -49 7 *
Ve
0.000000100000000
159.434301374372978 9.156158673526321 0.000000000000000
0 0

0101101
*
Ed
 0.000000100000000 1 1 0
1  18 0 0.000000000000000 3.000000000000000
0

0101000
+47 5 -47 7 *
Ed
 0.000000100000000 1 1 0
1  19 0 0.000000000000000 39.999999999999986
0

0101000
+49 0 -47 0 *
Wi

0101100
+48 0 -46 0 -45 5 +45 7 *
Fa
0  0.000000100000000 10 0

0101000
+44 0 *
Ve
0.000000100000000
159.434301374372978 29.156158673526321 0.000000000000000
0 0

0101101
*
Ed
 0.000000100000000 1 1 0
1  20 0 0.000000000000000 3.000000000000000
0

0101000
+42 5 -42 7 *
Ed
 0.000000100000000 1 1 0
1  21 0 0.000000000000000 20.000000000000000
0

0101000
+47 0 -42 0 *
Wi

0101100
+46 0 -41 0 -40 5 +40 7 *
Fa
0  0.000000100000000 11 0

0101000
+39 0 *
Ve
0.000000100000000
119.434301374372993 29.156158673526321 0.000000000000000
0 0

0101101
*
Ed
 0.000000100000000 1 1 0
1  22 0 0.000000000000000 3.000000000000000
0

0101000
+37 5 -37 7 *
Ed
 0.000000100000000 1 1 0
1  23 0 0.000000000000000 39.999999999999986
0

0101000
+42 0 -37 0 *
Wi

0101100
+41 0 -36 0 -35 5 +35 7 *
Fa
0  0.000000100000000 12 0

0101000
+34 0 *
Ed
 0.000000100000000 1 1 0
1  24 0 0.000000000000000 20.000000000000000
0

0101000
+37 0 -49 0 *
Wi

0101100
+36 0 -48 0 -32 5 +32 7 *
Fa
0  0.000000100000000 13 0

0101000
+31 0 *
Ve
0.000000100000000
128.059301374372978 12.906158673526301 0.000000000000000
0 0

0101101
*
Ed
 0.000000100000000 1 1 0
1  25 0 0.000000000000000 3.000000000000000
3  17 18CN 14 0 0.000000000000000 3.000000000000000
0

0101000
+29 5 -29 7 *
Ed
 0.000000100000000 1 1 0
1  26 0 0.000000000000000 6.283185307179586
2  19 14 8 0.000000000000000 6.283185307179586
2  20 14 9 0.000000000000000 6.283185307179586
0

0101100
+29 0 -29 0 *
Wi

0101100
+28 0 -28 0 -27 5 +27 7 *
Fa
0  0.000000100000000 14 0

0101000
+26 0 *
Ve
0.000000100000000
153.059301374372978 12.906158673526301 0.000000000000000
0 0

0101101
*
Ed
 0.000000100000000 1 1 0
1  27 0 0.000000000000000 3.000000000000000
3  21 22CN 15 0 0.000000000000000 3.000000000000000
0

0101000
+24 5 -24 7 *
Ed
 0.000000100000000 1 1 0
1  28 0 0.000000000000000 6.283185307179586
2  23 15 8 0.000000000000000 6.283185307179586
2  24 15 9 0.000000000000000 6.283185307179586
0

0101100
+24 0 -24 0 *
Wi

0101100
+23 0 -23 0 -22 5 +22 7 *
Fa
0  0.000000100000000 15 0

0101000
+21 0 *
Ve
0.000000100000000
128.059301374372978 25.406158673526328 0.000000000000000
0 0

0101101
*
Ed
 0.000000100000000 1 1 0
1  29 0 0.000000000000000 3.000000000000000
3  25 26CN 16 0 0.000000000000000 3.000000000000000
0

0101000
+19 5 -19 7 *
Ed
 0.000000100000000 1 1 0
1  30 0 0.000000000000000 6.283185307179586
2  27 16 8 0.000000000000000 6.283185307179586
2  28 16 9 0.000000000000000 6.283185307179586
0

0101100
+19 0 -19 0 *
Wi

0101100
+18 0 -18 0 -17 5 +17 7 *
Fa
0  0.000000100000000 16 0

0101000
+16 0 *
Ve
0.000000100000000
153.059301374372978 25.406158673526328 0.000000000000000
0 0

0101101
*
Ed
 0.000000100000000 1 1 0
1  31 0 0.000000000000000 3.000000000000000
3  29 30CN 17 0 0.000000000000000 3.000000000000000
0

0101000
+14 5 -14 7 *
Ed
 0.000000100000000 1 1 0
1  32 0 0.000000000000000 6.283185307179586
2  31 17 8 0.000000000000000 6.283185307179586
2  32 17 9 0.000000000000000 6.283185307179586
0

0101100
+14 0 -14 0 *
Wi

0101100
+13 0 -13 0 -12 5 +12 7 *
Fa
0  0.000000100000000 17 0

0101000
+11 0 *
Wi

0101100
+45 0 +40 0 +35 0 +32 0 *
Wi

0101100
+27 0 *
Wi

0101100
+22 0 *
Wi

0101100
+17 0 *
Wi

0101100
+12 0 *
Fa
0  0.000000100000000 18 0

0101000
+9 11 -8 11 -7 11 -6 11 -5 11 *
Sh

0101100
+43 0 +38 0 +33 0 +30 0 -25 0 -20 0 -15 0 -10 0 +4 10 -4 12 
*
So

0100000
-3 0 *
Co

1100000
+50 0 +2 0 *

+1 1 