
CASCADE Topology V1, (c) Matra-Datavision
Locations 11
1
1.000000000000000 0.000000000000000 0.000000000000000 0.000000000000000 
0.000000000000000 1.000000000000000 0.000000000000000 0.000000000000000 
0.000000000000000 0.000000000000000 1.000000000000000 0.000000000000000 
1
1.000000000000000 0.000000000000000 0.000000000000000 0.000000000000000 
0.000000000000000 1.000000000000000 0.000000000000000 0.000000000000000 
0.000000000000000 0.000000000000000 1.000000000000000 0.000000000000000 
1
1.000000000000000 0.000000000000000 0.000000000000000 0.000000000000000 
0.000000000000000 1.000000000000000 0.000000000000000 0.000000000000000 
0.000000000000000 0.000000000000000 1.000000000000000 0.000000000000000 
2  1 1 2 1 3 -1 0
1
1.000000000000000 0.000000000000000 0.000000000000000 0.000000000000000 
0.000000000000000 1.000000000000000 0.000000000000000 0.000000000000000 
0.000000000000000 0.000000000000000 1.000000000000000 3.000000000000000 
2  1 1 2 1 3 -1 5 1 0
2  3 1 2 -1 1 -1 0
2  5 -1 3 1 2 -1 1 -1 0
2  3 -1 0
2  1 1 2 1 0
2  3 -1 5 1 0
Curve2ds 32
1 0.00000000000000000 0.00000000000000000 0.00000000000000000 -1.00000000000000000 
1 6.28318530717958623 0.00000000000000000 0.00000000000000000 -1.00000000000000000 
1 0.00000000000000000 0.00000000000000000 1.00000000000000000 0.00000000000000000 
1 0.00000000000000000 -3.00000000000000000 1.00000000000000000 0.00000000000000000 
1 0.00000000000000000 0.00000000000000000 0.00000000000000000 -1.00000000000000000 
1 6.28318530717958623 0.00000000000000000 0.00000000000000000 -1.00000000000000000 
1 0.00000000000000000 0.00000000000000000 1.00000000000000000 0.00000000000000000 
1 0.00000000000000000 -3.00000000000000000 1.00000000000000000 0.00000000000000000 
1 0.00000000000000000 0.00000000000000000 0.00000000000000000 -1.00000000000000000 
1 6.28318530717958623 0.00000000000000000 0.00000000000000000 -1.00000000000000000 
1 0.00000000000000000 0.00000000000000000 1.00000000000000000 0.00000000000000000 
1 0.00000000000000000 -3.00000000000000000 1.00000000000000000 0.00000000000000000 
1 0.00000000000000000 0.00000000000000000 0.00000000000000000 -1.00000000000000000 
1 6.28318530717958623 0.00000000000000000 0.00000000000000000 -1.00000000000000000 
1 0.00000000000000000 0.00000000000000000 1.00000000000000000 0.00000000000000000 
1 0.00000000000000000 -3.00000000000000000 1.00000000000000000 0.00000000000000000 
1 0.00000000000000000 0.00000000000000000 0.00000000000000000 -1.00000000000000000 
1 6.28318530717958623 0.00000000000000000 0.00000000000000000 -1.00000000000000000 
1 0.00000000000000000 0.00000000000000000 1.00000000000000000 0.00000000000000000 
1 0.00000000000000000 -3.00000000000000000 1.00000000000000000 0.00000000000000000 
1 0.00000000000000000 0.00000000000000000 0.00000000000000000 -1.00000000000000000 
1 6.28318530717958623 0.00000000000000000 0.00000000000000000 -1.00000000000000000 
1 0.00000000000000000 0.00000000000000000 1.00000000000000000 0.00000000000000000 
1 0.00000000000000000 -3.00000000000000000 1.00000000000000000 0.00000000000000000 
1 0.00000000000000000 0.00000000000000000 0.00000000000000000 -1.00000000000000000 
1 6.28318530717958623 0.00000000000000000 0.00000000000000000 -1.00000000000000000 
1 0.00000000000000000 0.00000000000000000 1.00000000000000000 0.00000000000000000 
1 0.00000000000000000 -3.00000000000000000 1.00000000000000000 0.00000000000000000 
1 0.00000000000000000 0.00000000000000000 0.00000000000000000 -1.00000000000000000 
1 6.28318530717958623 0.00000000000000000 0.00000000000000000 -1.00000000000000000 
1 0.00000000000000000 0.00000000000000000 1.00000000000000000 0.00000000000000000 
1 0.00000000000000000 -3.00000000000000000 1.00000000000000000 0.00000000000000000 
Curves 32
1 119.43430137437299265 89.15615867352637736 0.00000000000000000 0.00000000000000000 0.00000000000000000 1.00000000000000000 
1 119.43430137437299265 69.15615867352637736 0.00000000000000000 0.00000000000000000 0.00000000000000000 1.00000000000000000 
1 119.43430137437299265 89.15615867352637736 0.00000000000000000 0.00000000000000000 -1.00000000000000000 0.00000000000000000 
1 159.43430137437297844 69.15615867352637736 0.00000000000000000 0.00000000000000000 0.00000000000000000 1.00000000000000000 
1 119.43430137437299265 69.15615867352637736 0.00000000000000000 1.00000000000000000 0.00000000000000000 0.00000000000000000 
1 159.43430137437297844 89.15615867352637736 0.00000000000000000 0.00000000000000000 0.00000000000000000 1.00000000000000000 
1 159.43430137437297844 69.15615867352637736 0.00000000000000000 0.00000000000000000 1.00000000000000000 0.00000000000000000 
1 159.43430137437297844 89.15615867352637736 0.00000000000000000 -1.00000000000000000 0.00000000000000000 0.00000000000000000 
1 128.05930137437300687 72.90615867352639157 0.00000000000000000 0.00000000000000000 0.00000000000000000 1.00000000000000000 
2 126.93430137437300687 72.90615867352639157 0.00000000000000000 0.00000000000000000 0.00000000000000000 1.00000000000000000 1.00000000000000000 0.00000000000000000 0.00000000000000000 0.00000000000000000 1.00000000000000000 0.00000000000000000 1.12500000000000000
1 153.05930137437300687 72.90615867352639157 0.00000000000000000 0.00000000000000000 0.00000000000000000 1.00000000000000000 
2 151.93430137437300687 72.90615867352639157 0.00000000000000000 0.00000000000000000 0.00000000000000000 1.00000000000000000 1.00000000000000000 0.00000000000000000 0.00000000000000000 0.00000000000000000 1.00000000000000000 0.00000000000000000 1.12500000000000000
1 128.05930137437300687 85.40615867352637736 0.00000000000000000 0.00000000000000000 0.00000000000000000 1.00000000000000000 
2 126.93430137437300687 85.40615867352637736 0.00000000000000000 0.00000000000000000 0.00000000000000000 1.00000000000000000 1.00000000000000000 0.00000000000000000 0.00000000000000000 0.00000000000000000 1.00000000000000000 0.00000000000000000 1.12500000000000000
1 153.05930137437300687 85.40615867352637736 0.00000000000000000 0.00000000000000000 0.00000000000000000 1.00000000000000000 
2 151.93430137437300687 85.40615867352637736 0.00000000000000000 0.00000000000000000 0.00000000000000000 1.00000000000000000 1.00000000000000000 0.00000000000000000 0.00000000000000000 0.00000000000000000 1.00000000000000000 0.00000000000000000 1.12500000000000000
1 119.43430137437299265 9.15615867352632051 0.00000000000000000 0.00000000000000000 0.00000000000000000 1.00000000000000000 
1 159.43430137437297844 9.15615867352632051 0.00000000000000000 0.00000000000000000 0.00000000000000000 1.00000000000000000 
1 119.43430137437299265 9.15615867352632051 0.00000000000000000 1.00000000000000000 0.00000000000000000 0.00000000000000000 
1 159.43430137437297844 29.15615867352632051 0.00000000000000000 0.00000000000000000 0.00000000000000000 1.00000000000000000 
1 159.43430137437297844 9.15615867352632051 0.00000000000000000 0.00000000000000000 1.00000000000000000 0.00000000000000000 
1 119.43430137437299265 29.15615867352632051 0.00000000000000000 0.00000000000000000 0.00000000000000000 1.00000000000000000 
1 159.43430137437297844 29.15615867352632051 0.00000000000000000 -1.00000000000000000 0.00000000000000000 0.00000000000000000 
1 119.43430137437299265 29.15615867352632051 0.00000000000000000 0.00000000000000000 -1.00000000000000000 0.00000000000000000 
1 128.05930137437297844 12.90615867352630097 0.00000000000000000 0.00000000000000000 0.00000000000000000 1.00000000000000000 
2 126.93430137437297844 12.90615867352630097 0.00000000000000000 0.00000000000000000 0.00000000000000000 1.00000000000000000 1.00000000000000000 0.00000000000000000 0.00000000000000000 0.00000000000000000 1.00000000000000000 0.00000000000000000 1.12500000000000000
1 153.05930137437297844 12.90615867352630097 0.00000000000000000 0.00000000000000000 0.00000000000000000 1.00000000000000000 
2 151.93430137437297844 12.90615867352630097 0.00000000000000000 0.00000000000000000 0.00000000000000000 1.00000000000000000 1.00000000000000000 0.00000000000000000 0.00000000000000000 0.00000000000000000 1.00000000000000000 0.00000000000000000 1.12500000000000000
1 128.05930137437297844 25.40615867352632762 0.00000000000000000 0.00000000000000000 0.00000000000000000 1.00000000000000000 
2 126.93430137437297844 25.40615867352632762 0.00000000000000000 0.00000000000000000 0.00000000000000000 1.00000000000000000 1.00000000000000000 0.00000000000000000 0.00000000000000000 0.00000000000000000 1.00000000000000000 0.00000000000000000 1.12500000000000000
1 153.05930137437297844 25.40615867352632762 0.00000000000000000 0.00000000000000000 0.00000000000000000 1.00000000000000000 
2 151.93430137437297844 25.40615867352632762 0.00000000000000000 0.00000000000000000 0.00000000000000000 1.00000000000000000 1.00000000000000000 0.00000000000000000 0.00000000000000000 0.00000000000000000 1.00000000000000000 0.00000000000000000 1.12500000000000000
Polygon3D 0
PolygonOnTriangulations 0
Surfaces 18
1 119.43430137437299265 89.15615867352637736 0.00000000000000000 1.00000000000000000 0.00000000000000000 -0.00000000000000000 0.00000000000000000 -1.00000000000000000 0.00000000000000000 0.00000000000000000 -0.00000000000000000 -1.00000000000000000 
1 119.43430137437299265 69.15615867352637736 0.00000000000000000 0.00000000000000000 1.00000000000000000 0.00000000000000000 1.00000000000000000 0.00000000000000000 0.00000000000000000 0.00000000000000000 0.00000000000000000 -1.00000000000000000 
1 159.43430137437297844 69.15615867352637736 0.00000000000000000 -1.00000000000000000 0.00000000000000000 0.00000000000000000 0.00000000000000000 1.00000000000000000 0.00000000000000000 0.00000000000000000 0.00000000000000000 -1.00000000000000000 
1 159.43430137437297844 89.15615867352637736 0.00000000000000000 0.00000000000000000 -1.00000000000000000 0.00000000000000000 -1.00000000000000000 0.00000000000000000 0.00000000000000000 -0.00000000000000000 -0.00000000000000000 -1.00000000000000000 
2 126.93430137437300687 72.90615867352639157 0.00000000000000000 -0.00000000000000000 -0.00000000000000000 -1.00000000000000000 1.00000000000000000 0.00000000000000000 0.00000000000000000 0.00000000000000000 1.00000000000000000 0.00000000000000000 1.12500000000000000
2 151.93430137437300687 72.90615867352639157 0.00000000000000000 -0.00000000000000000 -0.00000000000000000 -1.00000000000000000 1.00000000000000000 0.00000000000000000 0.00000000000000000 0.00000000000000000 1.00000000000000000 0.00000000000000000 1.12500000000000000
2 126.93430137437300687 85.40615867352637736 0.00000000000000000 -0.00000000000000000 -0.00000000000000000 -1.00000000000000000 1.00000000000000000 0.00000000000000000 0.00000000000000000 0.00000000000000000 1.00000000000000000 0.00000000000000000 1.12500000000000000
2 151.93430137437300687 85.40615867352637736 0.00000000000000000 -0.00000000000000000 -0.00000000000000000 -1.00000000000000000 1.00000000000000000 0.00000000000000000 0.00000000000000000 0.00000000000000000 1.00000000000000000 0.00000000000000000 1.12500000000000000
1 139.43430137437329108 49.15615867352634893 0.00000000000000000 0.00000000000000000 0.00000000000000000 1.00000000000000000 1.00000000000000000 0.00000000000000000 -0.00000000000000000 -0.00000000000000000 1.00000000000000000 0.00000000000000000 
1 119.43430137437299265 9.15615867352632051 0.00000000000000000 0.00000000000000000 1.00000000000000000 0.00000000000000000 1.00000000000000000 0.00000000000000000 0.00000000000000000 0.00000000000000000 0.00000000000000000 -1.00000000000000000 
1 159.43430137437297844 9.15615867352632051 0.00000000000000000 -1.00000000000000000 0.00000000000000000 0.00000000000000000 0.00000000000000000 1.00000000000000000 0.00000000000000000 0.00000000000000000 0.00000000000000000 -1.00000000000000000 
1 159.43430137437297844 29.15615867352632051 0.00000000000000000 0.00000000000000000 -1.00000000000000000 0.00000000000000000 -1.00000000000000000 0.00000000000000000 0.00000000000000000 -0.00000000000000000 -0.00000000000000000 -1.00000000000000000 
1 119.43430137437299265 29.15615867352632051 0.00000000000000000 1.00000000000000000 0.00000000000000000 -0.00000000000000000 0.00000000000000000 -1.00000000000000000 0.00000000000000000 0.00000000000000000 -0.00000000000000000 -1.00000000000000000 
2 126.93430137437297844 12.90615867352630097 0.00000000000000000 -0.00000000000000000 -0.00000000000000000 -1.00000000000000000 1.00000000000000000 0.00000000000000000 0.00000000000000000 0.00000000000000000 1.00000000000000000 0.00000000000000000 1.12500000000000000
2 151.93430137437297844 12.90615867352630097 0.00000000000000000 -0.00000000000000000 -0.00000000000000000 -1.00000000000000000 1.00000000000000000 0.00000000000000000 0.00000000000000000 0.00000000000000000 1.00000000000000000 0.00000000000000000 1.12500000000000000
2 126.93430137437297844 25.40615867352632762 0.00000000000000000 -0.00000000000000000 -0.00000000000000000 -1.00000000000000000 1.00000000000000000 0.00000000000000000 0.00000000000000000 0.00000000000000000 1.00000000000000000 0.00000000000000000 1.12500000000000000
2 151.93430137437297844 25.40615867352632762 0.00000000000000000 -0.00000000000000000 -0.00000000000000000 -1.00000000000000000 1.00000000000000000 0.00000000000000000 0.00000000000000000 0.00000000000000000 1.00000000000000000 0.00000000000000000 1.12500000000000000
1 139.43430137437329108 49.15615867352634893 0.00000000000000000 0.00000000000000000 0.00000000000000000 1.00000000000000000 1.00000000000000000 0.00000000000000000 -0.00000000000000000 -0.00000000000000000 1.00000000000000000 0.00000000000000000 
Triangulations 0

TShapes 97
Ve
0.000000100000000
119.434301374372993 89.156158673526377 0.000000000000000
0 0

0101101
*
Ed
 0.000000100000000 1 1 0
1  1 0 0.000000000000000 3.000000000000000
0

0101000
+97 4 -97 6 *
Ve
0.000000100000000
119.434301374372993 69.156158673526377 0.000000000000000
0 0

0101101
*
Ed
 0.000000100000000 1 1 0
1  2 0 0.000000000000000 3.000000000000000
0

0101000
+95 4 -95 6 *
Ed
 0.000000100000000 1 1 0
1  3 0 0.000000000000000 20.000000000000000
0

0101000
+97 0 -95 0 *
Wi

0101100
+96 0 -94 0 -93 4 +93 6 *
Fa
0  0.000000100000000 1 0

0101000
+92 0 *
Ve
0.000000100000000
159.434301374372978 69.156158673526377 0.000000000000000
0 0

0101101
*
Ed
 0.000000100000000 1 1 0
1  4 0 0.000000000000000 3.000000000000000
0

0101000
+90 4 -90 6 *
Ed
 0.000000100000000 1 1 0
1  5 0 0.000000000000000 39.999999999999986
0

0101000
+95 0 -90 0 *
Wi

0101100
+94 0 -89 0 -88 4 +88 6 *
Fa
0  0.000000100000000 2 0

0101000
+87 0 *
Ve
0.000000100000000
159.434301374372978 89.156158673526377 0.000000000000000
0 0

0101101
*
Ed
 0.000000100000000 1 1 0
1  6 0 0.000000000000000 3.000000000000000
0

0101000
+85 4 -85 6 *
Ed
 0.000000100000000 1 1 0
1  7 0 0.000000000000000 20.000000000000000
0

0101000
+90 0 -85 0 *
Wi

0101100
+89 0 -84 0 -83 4 +83 6 *
Fa
0  0.000000100000000 3 0

0101000
+82 0 *
Ed
 0.000000100000000 1 1 0
1  8 0 0.000000000000000 39.999999999999986
0

0101000
+85 0 -97 0 *
Wi

0101100
+84 0 -96 0 -80 4 +80 6 *
Fa
0  0.000000100000000 4 0

0101000
+79 0 *
Ve
0.000000100000000
128.059301374373007 72.906158673526392 0.000000000000000
0 0

0101101
*
Ed
 0.000000100000000 1 1 0
1  9 0 0.000000000000000 3.000000000000000
3  1 2CN 5 0 0.000000000000000 3.000000000000000
0

0101000
+77 4 -77 6 *
Ed
 0.000000100000000 1 1 0
1  10 0 0.000000000000000 6.283185307179586
2  3 5 7 0.000000000000000 6.283185307179586
2  4 5 8 0.000000000000000 6.283185307179586
0

0101100
+77 0 -77 0 *
Wi

0101100
+76 0 -76 0 -75 4 +75 6 *
Fa
0  0.000000100000000 5 0

0101000
+74 0 *
Ve
0.000000100000000
153.059301374373007 72.906158673526392 0.000000000000000
0 0

0101101
*
Ed
 0.000000100000000 1 1 0
1  11 0 0.000000000000000 3.000000000000000
3  5 6CN 6 0 0.000000000000000 3.000000000000000
0

0101000
+72 4 -72 6 *
Ed
 0.000000100000000 1 1 0
1  12 0 0.000000000000000 6.283185307179586
2  7 6 7 0.000000000000000 6.283185307179586
2  8 6 8 0.000000000000000 6.283185307179586
0

0101100
+72 0 -72 0 *
Wi

0101100
+71 0 -71 0 -70 4 +70 6 *
Fa
0  0.000000100000000 6 0

0101000
+69 0 *
Ve
0.000000100000000
128.059301374373007 85.406158673526377 0.000000000000000
0 0

0101101
*
Ed
 0.000000100000000 1 1 0
1  13 0 0.000000000000000 3.000000000000000
3  9 10CN 7 0 0.000000000000000 3.000000000000000
0

0101000
+67 4 -67 6 *
Ed
 0.000000100000000 1 1 0
1  14 0 0.000000000000000 6.283185307179586
2  11 7 7 0.000000000000000 6.283185307179586
2  12 7 8 0.000000000000000 6.283185307179586
0

0101100
+67 0 -67 0 *
Wi

0101100
+66 0 -66 0 -65 4 +65 6 *
Fa
0  0.000000100000000 7 0

0101000
+64 0 *
Ve
0.000000100000000
153.059301374373007 85.406158673526377 0.000000000000000
0 0

0101101
*
Ed
 0.000000100000000 1 1 0
1  15 0 0.000000000000000 3.000000000000000
3  13 14CN 8 0 0.000000000000000 3.000000000000000
0

0101000
+62 4 -62 6 *
Ed
 0.000000100000000 1 1 0
1  16 0 0.000000000000000 6.283185307179586
2  15 8 7 0.000000000000000 6.283185307179586
2  16 8 8 0.000000000000000 6.283185307179586
0

0101100
+62 0 -62 0 *
Wi

0101100
+61 0 -61 0 -60 4 +60 6 *
Fa
0  0.000000100000000 8 0

0101000
+59 0 *
Wi

0101100
+93 0 +88 0 +83 0 +80 0 *
Wi

0101100
+75 0 *
Wi

0101100
+70 0 *
Wi

0101100
+65 0 *
Wi

0101100
+60 0 *
Fa
0  0.000000100000000 9 0

0101000
+57 10 -56 10 -55 10 -54 10 -53 10 *
Sh

0101100
+91 0 +86 0 +81 0 +78 0 -73 0 -68 0 -63 0 -58 0 +52 9 -52 11 
*
So

0100000
-51 0 *
Ve
0.000000100000000
119.434301374372993 9.156158673526321 0.000000000000000
0 0

0101101
*
Ed
 0.000000100000000 1 1 0
1  17 0 0.000000000000000 3.000000000000000
0

0101000
+49 4 -49 6 *
Ve
0.000000100000000
159.434301374372978 9.156158673526321 0.000000000000000
0 0

0101101
*
Ed
 0.000000100000000 1 1 0
1  18 0 0.000000000000000 3.000000000000000
0

0101000
+47 4 -47 6 *
Ed
 0.000000100000000 1 1 0
1  19 0 0.000000000000000 39.999999999999986
0

0101000
+49 0 -47 0 *
Wi

0101100
+48 0 -46 0 -45 4 +45 6 *
Fa
0  0.000000100000000 10 0

0101000
+44 0 *
Ve
0.000000100000000
159.434301374372978 29.156158673526321 0.000000000000000
0 0

0101101
*
Ed
 0.000000100000000 1 1 0
1  20 0 0.000000000000000 3.000000000000000
0

0101000
+42 4 -42 6 *
Ed
 0.000000100000000 1 1 0
1  21 0 0.000000000000000 20.000000000000000
0

0101000
+47 0 -42 0 *
Wi

0101100
+46 0 -41 0 -40 4 +40 6 *
Fa
0  0.000000100000000 11 0

0101000
+39 0 *
Ve
0.000000100000000
119.434301374372993 29.156158673526321 0.000000000000000
0 0

0101101
*
Ed
 0.000000100000000 1 1 0
1  22 0 0.000000000000000 3.000000000000000
0

0101000
+37 4 -37 6 *
Ed
 0.000000100000000 1 1 0
1  23 0 0.000000000000000 39.999999999999986
0

0101000
+42 0 -37 0 *
Wi

0101100
+41 0 -36 0 -35 4 +35 6 *
Fa
0  0.000000100000000 12 0

0101000
+34 0 *
Ed
 0.000000100000000 1 1 0
1  24 0 0.000000000000000 20.000000000000000
0

0101000
+37 0 -49 0 *
Wi

0101100
+36 0 -48 0 -32 4 +32 6 *
Fa
0  0.000000100000000 13 0

0101000
+31 0 *
Ve
0.000000100000000
128.059301374372978 12.906158673526301 0.000000000000000
0 0

0101101
*
Ed
 0.000000100000000 1 1 0
1  25 0 0.000000000000000 3.000000000000000
3  17 18CN 14 0 0.000000000000000 3.000000000000000
0

0101000
+29 4 -29 6 *
Ed
 0.000000100000000 1 1 0
1  26 0 0.000000000000000 6.283185307179586
2  19 14 7 0.000000000000000 6.283185307179586
2  20 14 8 0.000000000000000 6.283185307179586
0

0101100
+29 0 -29 0 *
Wi

0101100
+28 0 -28 0 -27 4 +27 6 *
Fa
0  0.000000100000000 14 0

0101000
+26 0 *
Ve
0.000000100000000
153.059301374372978 12.906158673526301 0.000000000000000
0 0

0101101
*
Ed
 0.000000100000000 1 1 0
1  27 0 0.000000000000000 3.000000000000000
3  21 22CN 15 0 0.000000000000000 3.000000000000000
0

0101000
+24 4 -24 6 *
Ed
 0.000000100000000 1 1 0
1  28 0 0.000000000000000 6.283185307179586
2  23 15 7 0.000000000000000 6.283185307179586
2  24 15 8 0.000000000000000 6.283185307179586
0

0101100
+24 0 -24 0 *
Wi

0101100
+23 0 -23 0 -22 4 +22 6 *
Fa
0  0.000000100000000 15 0

0101000
+21 0 *
Ve
0.000000100000000
128.059301374372978 25.406158673526328 0.000000000000000
0 0

0101101
*
Ed
 0.000000100000000 1 1 0
1  29 0 0.000000000000000 3.000000000000000
3  25 26CN 16 0 0.000000000000000 3.000000000000000
0

0101000
+19 4 -19 6 *
Ed
 0.000000100000000 1 1 0
1  30 0 0.000000000000000 6.283185307179586
2  27 16 7 0.000000000000000 6.283185307179586
2  28 16 8 0.000000000000000 6.283185307179586
0

0101100
+19 0 -19 0 *
Wi

0101100
+18 0 -18 0 -17 4 +17 6 *
Fa
0  0.000000100000000 16 0

0101000
+16 0 *
Ve
0.000000100000000
153.059301374372978 25.406158673526328 0.000000000000000
0 0

0101101
*
Ed
 0.000000100000000 1 1 0
1  31 0 0.000000000000000 3.000000000000000
3  29 30CN 17 0 0.000000000000000 3.000000000000000
0

0101000
+14 4 -14 6 *
Ed
 0.000000100000000 1 1 0
1  32 0 0.000000000000000 6.283185307179586
2  31 17 7 0.000000000000000 6.283185307179586
2  32 17 8 0.000000000000000 6.283185307179586
0

0101100
+14 0 -14 0 *
Wi

0101100
+13 0 -13 0 -12 4 +12 6 *
Fa
0  0.000000100000000 17 0

0101000
+11 0 *
Wi

0101100
+45 0 +40 0 +35 0 +32 0 *
Wi

0101100
+27 0 *
Wi

0101100
+22 0 *
Wi

0101100
+17 0 *
Wi

0101100
+12 0 *
Fa
0  0.000000100000000 18 0

0101000
+9 10 -8 10 -7 10 -6 10 -5 10 *
Sh

0101100
+43 0 +38 0 +33 0 +30 0 -25 0 -20 0 -15 0 -10 0 +4 9 -4 11 
*
So

0100000
-3 0 *
Co

1100000
+50 0 +2 0 *

+1 0 