
CASCADE Topology V1, (c) Matra-Datavision
Locations 11
1
1.000000000000000 0.000000000000000 0.000000000000000 0.000000000000000 
0.000000000000000 1.000000000000000 0.000000000000000 0.000000000000000 
0.000000000000000 0.000000000000000 1.000000000000000 0.000000000000000 
1
1.000000000000000 0.000000000000000 0.000000000000000 0.000000000000000 
0.000000000000000 1.000000000000000 0.000000000000000 0.000000000000000 
0.000000000000000 0.000000000000000 1.000000000000000 0.000000000000000 
1
1.000000000000000 0.000000000000000 0.000000000000000 0.000000000000000 
0.000000000000000 1.000000000000000 0.000000000000000 0.000000000000000 
0.000000000000000 0.000000000000000 1.000000000000000 0.000000000000000 
2  1 1 2 1 3 -1 0
1
1.000000000000000 0.000000000000000 0.000000000000000 0.000000000000000 
0.000000000000000 1.000000000000000 0.000000000000000 0.000000000000000 
0.000000000000000 0.000000000000000 1.000000000000000 27.000000000000000 
2  1 1 2 1 3 -1 5 1 0
2  3 1 2 -1 1 -1 0
2  5 -1 3 1 2 -1 1 -1 0
2  3 -1 0
2  1 1 2 1 0
2  3 -1 5 1 0
Curve2ds 20
1 3.14160635939550215 0.00000000000000000 0.00000000000000000 -1.00000000000000000 
1 1.57079632679489656 0.00000000000000000 0.00000000000000000 -1.00000000000000000 
1 0.00000000000000000 0.00000000000000000 1.00000000000000000 0.00000000000000000 
1 0.00000000000000000 -27.00000000000000000 1.00000000000000000 0.00000000000000000 
1 3.14157899965758958 0.00000000000000000 0.00000000000000000 -1.00000000000000000 
1 1.57079632679489656 0.00000000000000000 0.00000000000000000 -1.00000000000000000 
1 0.00000000000000000 0.00000000000000000 1.00000000000000000 0.00000000000000000 
1 0.00000000000000000 -27.00000000000000000 1.00000000000000000 0.00000000000000000 
1 2.26892744801857482 0.00000000000000000 0.00000000000000000 -1.00000000000000000 
1 1.57079632679489656 0.00000000000000000 0.00000000000000000 -1.00000000000000000 
1 0.00000000000000000 0.00000000000000000 1.00000000000000000 0.00000000000000000 
1 0.00000000000000000 -27.00000000000000000 1.00000000000000000 0.00000000000000000 
1 3.14160590275456286 0.00000000000000000 0.00000000000000000 -1.00000000000000000 
1 1.57079632679489678 0.00000000000000000 0.00000000000000000 -1.00000000000000000 
1 0.00000000000000000 0.00000000000000000 1.00000000000000000 0.00000000000000000 
1 0.00000000000000000 -27.00000000000000000 1.00000000000000000 0.00000000000000000 
1 3.14158027265902362 0.00000000000000000 0.00000000000000000 -1.00000000000000000 
1 1.57079632679490455 0.00000000000000000 0.00000000000000000 -1.00000000000000000 
1 0.00000000000000000 0.00000000000000000 1.00000000000000000 0.00000000000000000 
1 0.00000000000000000 -27.00000000000000000 1.00000000000000000 0.00000000000000000 
Curves 22
1 139.33961435442287780 96.52087888804388172 0.00000000000000000 0.00000000000000000 0.00000000000000000 1.00000000000000000 
1 242.89882687110946335 134.21323655744456005 0.00000000000000000 0.00000000000000000 0.00000000000000000 1.00000000000000000 
1 139.33961435442287780 96.52087888804388172 0.00000000000000000 0.93969295082716997 0.34201923654339400 0.00000000000000000 
1 254.43427874549303169 128.83405721536036026 0.00000000000000000 0.00000000000000000 0.00000000000000000 1.00000000000000000 
2 245.97700000000000387 125.75600000000002865 0.00000000000000000 -0.00000000000000000 0.00000000000000000 1.00000000000000000 0.34200635726225986 -0.93969763838811449 0.00000000000000000 0.93969763838811449 0.34200635726225986 0.00000000000000000 9.00000000000000355
1 285.28327874549302123 44.07325721536034280 0.00000000000000000 0.00000000000000000 0.00000000000000000 1.00000000000000000 
1 254.43427874549303169 128.83405721536036026 0.00000000000000000 0.34200635726225959 -0.93969763838811460 0.00000000000000000 
1 279.90417269018405477 32.53796328287987194 0.00000000000000000 0.00000000000000000 0.00000000000000000 1.00000000000000000 
2 276.82600000000002183 40.99520000000001119 0.00000000000000000 0.00000000000000000 0.00000000000000000 1.00000000000000000 -0.93969296856890550 -0.34201918779822582 0.00000000000000000 0.34201918779822582 -0.93969296856890550 0.00000000000000000 8.99999999999998934
1 142.41725837551695122 -17.50302280473559335 0.00000000000000000 0.00000000000000000 0.00000000000000000 1.00000000000000000 
1 279.90417269018405477 32.53796328287987194 0.00000000000000000 -0.93969296856890561 -0.34201918779822560 0.00000000000000000 
1 136.26090069724992304 -17.50301832867046414 0.00000000000000000 0.00000000000000000 0.00000000000000000 1.00000000000000000 
2 139.33908568533291827 -9.04578608761542569 0.00000000000000000 0.00000000000000000 0.00000000000000000 1.00000000000000000 -0.93969247122833621 0.34202055423144190 0.00000000000000000 -0.34202055423144190 -0.93969247122833621 0.00000000000000000 9.00000000000001243
1 -0.99872498808296806 32.45546775894497671 0.00000000000000000 0.00000000000000000 0.00000000000000000 1.00000000000000000 
1 -0.99872498808296806 32.45546775894497671 0.00000000000000000 0.93969247122833621 -0.34202055423144190 0.00000000000000000 
1 -6.37773145693262311 43.99099703907626235 0.00000000000000000 0.00000000000000000 0.00000000000000000 1.00000000000000000 
2 2.07946000000001163 40.91270000000000095 0.00000000000000000 0.00000000000000000 -0.00000000000000000 1.00000000000000000 0.34203300434180661 0.93968793965918163 0.00000000000000000 -0.93968793965918163 0.34203300434180661 0.00000000000000000 9.00000000000000178
1 24.47380854306736353 128.75129703907626322 0.00000000000000000 0.00000000000000000 0.00000000000000000 1.00000000000000000 
1 24.47380854306736353 128.75129703907626322 0.00000000000000000 -0.34203300434180645 -0.93968793965918163 0.00000000000000000 
1 36.00919233093832617 134.13022956846700140 0.00000000000000000 0.00000000000000000 0.00000000000000000 1.00000000000000000 
2 32.93099999999999739 125.67300000000000182 0.00000000000000000 -0.00000000000000000 0.00000000000000000 1.00000000000000000 0.93969217427410812 -0.34202137010426598 0.00000000000000000 0.34202137010426598 0.93969217427410812 0.00000000000000000 8.99999999999999822
1 36.00919233093832617 134.13022956846700140 0.00000000000000000 0.93969217427410812 -0.34202137010426603 0.00000000000000000 
Polygon3D 0
PolygonOnTriangulations 0
Surfaces 12
1 139.33961435442287780 96.52087888804388172 0.00000000000000000 -0.34201923654339400 0.93969295082716997 0.00000000000000000 0.93969295082716997 0.34201923654339400 0.00000000000000000 0.00000000000000000 0.00000000000000000 -1.00000000000000000 
2 245.97700000000000387 125.75600000000002865 0.00000000000000000 0.00000000000000000 -0.00000000000000000 -1.00000000000000000 0.34200635726225986 -0.93969763838811449 0.00000000000000000 0.93969763838811449 0.34200635726225986 -0.00000000000000000 9.00000000000000355
1 254.43427874549303169 128.83405721536036026 0.00000000000000000 0.93969763838811460 0.34200635726225959 -0.00000000000000000 0.34200635726225959 -0.93969763838811460 0.00000000000000000 0.00000000000000000 -0.00000000000000000 -1.00000000000000000 
2 276.82600000000002183 40.99520000000001119 0.00000000000000000 -0.00000000000000000 -0.00000000000000000 -1.00000000000000000 -0.93969296856890550 -0.34201918779822582 0.00000000000000000 0.34201918779822582 -0.93969296856890550 -0.00000000000000000 8.99999999999998934
1 279.90417269018405477 32.53796328287987194 0.00000000000000000 0.34201918779822560 -0.93969296856890561 0.00000000000000000 -0.93969296856890561 -0.34201918779822560 0.00000000000000000 0.00000000000000000 -0.00000000000000000 -1.00000000000000000 
2 139.33908568533291827 -9.04578608761542569 0.00000000000000000 -0.00000000000000000 -0.00000000000000000 -1.00000000000000000 -0.93969247122833621 0.34202055423144190 0.00000000000000000 -0.34202055423144190 -0.93969247122833621 0.00000000000000000 9.00000000000001243
1 -0.99872498808296806 32.45546775894497671 0.00000000000000000 0.34202055423144190 0.93969247122833621 -0.00000000000000000 0.93969247122833621 -0.34202055423144190 0.00000000000000000 0.00000000000000000 -0.00000000000000000 -1.00000000000000000 
2 2.07946000000001163 40.91270000000000095 0.00000000000000000 -0.00000000000000000 0.00000000000000000 -1.00000000000000000 0.34203300434180661 0.93968793965918163 0.00000000000000000 -0.93968793965918163 0.34203300434180661 0.00000000000000000 9.00000000000000178
1 24.47380854306736353 128.75129703907626322 0.00000000000000000 0.93968793965918163 -0.34203300434180645 0.00000000000000000 -0.34203300434180645 -0.93968793965918163 0.00000000000000000 0.00000000000000000 -0.00000000000000000 -1.00000000000000000 
2 32.93099999999999739 125.67300000000000182 0.00000000000000000 0.00000000000000000 -0.00000000000000000 -1.00000000000000000 0.93969217427410812 -0.34202137010426598 0.00000000000000000 0.34202137010426598 0.93969217427410812 -0.00000000000000000 8.99999999999999822
1 36.00919233093832617 134.13022956846700140 0.00000000000000000 0.34202137010426603 0.93969217427410812 -0.00000000000000000 0.93969217427410812 -0.34202137010426603 0.00000000000000000 0.00000000000000000 -0.00000000000000000 -1.00000000000000000 
1 139.45325949719725145 63.34132158441180138 0.00000000000000000 0.00000000000000000 0.00000000000000000 1.00000000000000000 1.00000000000000000 0.00000000000000000 -0.00000000000000000 -0.00000000000000000 1.00000000000000000 0.00000000000000000 
Triangulations 0

TShapes 59
Ve
0.000000100000000
139.339614354422878 96.520878888043882 0.000000000000000
0 0

0101101
*
Ed
 0.000000100000000 1 1 0
1  1 0 0.000000000000000 27.000000000000000
0

0101000
+59 4 -59 6 *
Ve
0.000000100000000
242.898826871109463 134.213236557444560 0.000000000000000
0 0

0101101
*
Ed
 0.000000100000000 1 1 0
1  2 0 0.000000000000000 27.000000000000000
2  1 2 0 0.000000000000000 27.000000000000000
4 G1 1 0 2 0
0

0101000
+57 4 -57 6 *
Ed
 0.000000100000000 1 1 0
1  3 0 0.000000000000000 110.205373388752164
0

0101000
+59 0 -57 0 *
Wi

0101100
+58 0 -56 0 -55 4 +55 6 *
Fa
0  0.000000100000000 1 0

0111000
+54 0 *
Ve
0.000000100000000
254.434278745493032 128.834057215360360 0.000000000000000
0 0

0101101
*
Ed
 0.000000100000000 1 1 0
1  4 0 0.000000000000000 27.000000000000000
2  2 2 0 0.000000000000000 27.000000000000000
4 G1 2 0 3 0
0

0101000
+52 4 -52 6 *
Ed
 0.000000100000000 1 1 0
1  5 0 1.570796326794897 3.141606359395502
2  3 2 7 1.570796326794897 3.141606359395502
2  4 2 8 1.570796326794897 3.141606359395502
0

0101000
+52 0 -57 0 *
Wi

0101100
+51 0 -56 0 -50 4 +50 6 *
Fa
0  0.000000100000000 2 0

0111000
+49 0 *
Ve
0.000000100000000
285.283278745493021 44.073257215360343 0.000000000000000
0 0

0101101
*
Ed
 0.000000100000000 1 1 0
1  6 0 0.000000000000000 27.000000000000000
2  5 4 0 0.000000000000000 27.000000000000000
4 G1 3 0 4 0
0

0101000
+47 4 -47 6 *
Ed
 0.000000100000000 1 1 0
1  7 0 0.000000000000000 90.200077703070761
0

0101000
+52 0 -47 0 *
Wi

0101100
+51 0 -46 0 -45 4 +45 6 *
Fa
0  0.000000100000000 3 0

0111000
+44 0 *
Ve
0.000000100000000
279.904172690184055 32.537963282879872 0.000000000000000
0 0

0101101
*
Ed
 0.000000100000000 1 1 0
1  8 0 0.000000000000000 27.000000000000000
2  6 4 0 0.000000000000000 27.000000000000000
4 G1 4 0 5 0
0

0101000
+42 4 -42 6 *
Ed
 0.000000100000000 1 1 0
1  9 0 1.570796326794897 3.141578999657590
2  7 4 7 1.570796326794897 3.141578999657590
2  8 4 8 1.570796326794897 3.141578999657590
0

0101000
+42 0 -47 0 *
Wi

0101100
+41 0 -46 0 -40 4 +40 6 *
Fa
0  0.000000100000000 4 0

0111000
+39 0 *
Ve
0.000000100000002
142.417258375516951 -17.503022804735593 0.000000000000000
0 0

0101101
*
Ed
 0.000000100000002 1 1 0
1  10 0 0.000000000000000 27.000000000000000
2  9 6 0 0.000000000000000 27.000000000000000
4 G1 5 0 6 0
0

0101000
+37 4 -37 6 *
Ed
 0.000000100000000 1 1 0
1  11 0 0.000000000000000 146.310464070036829
0

0101000
+42 0 -37 0 *
Wi

0101100
+41 0 -36 0 -35 4 +35 6 *
Fa
0  0.000000100000000 5 0

0111000
+34 0 *
Ve
0.000000100000000
136.260900697249923 -17.503018328670464 0.000000000000000
0 0

0101101
*
Ed
 0.000000100000000 1 1 0
1  12 0 0.000000000000000 27.000000000000000
2  10 6 0 0.000000000000000 27.000000000000000
4 G1 6 0 7 0
0

0101000
+32 4 -32 6 *
Ed
 0.000000100000000 1 1 0
1  13 0 1.570796326794897 2.268927448018575
2  11 6 7 1.570796326794897 2.268927448018575
2  12 6 8 1.570796326794897 2.268927448018575
0

0101000
+32 0 -37 0 *
Wi

0101100
+31 0 -36 0 -30 4 +30 6 *
Fa
0  0.000000100000000 6 0

0111000
+29 0 *
Ve
0.000000100000000
-0.998724988082968 32.455467758944977 0.000000000000000
0 0

0101101
*
Ed
 0.000000100000000 1 1 0
1  14 0 0.000000000000000 27.000000000000000
2  13 8 0 0.000000000000000 27.000000000000000
4 G1 7 0 8 0
0

0101000
+27 4 -27 6 *
Ed
 0.000000100000000 1 1 0
1  15 0 0.000000000000000 146.068665960376876
0

0101000
+27 0 -32 0 *
Wi

0101100
+26 0 -31 0 -25 4 +25 6 *
Fa
0  0.000000100000000 7 0

0111000
+24 0 *
Ve
0.000000100000001
-6.377731456932623 43.990997039076262 0.000000000000000
0 0

0101101
*
Ed
 0.000000100000001 1 1 0
1  16 0 0.000000000000000 27.000000000000000
2  14 8 0 0.000000000000000 27.000000000000000
4 G1 8 0 9 0
0

0101000
+22 4 -22 6 *
Ed
 0.000000100000000 1 1 0
1  17 0 1.570796326794897 3.141605902754563
2  15 8 7 1.570796326794897 3.141605902754563
2  16 8 8 1.570796326794897 3.141605902754563
0

0101000
+22 0 -27 0 *
Wi

0101100
+21 0 -26 0 -20 4 +20 6 *
Fa
0  0.000000100000000 8 0

0111000
+19 0 *
Ve
0.000000100000000
24.473808543067364 128.751297039076263 0.000000000000000
0 0

0101101
*
Ed
 0.000000100000000 1 1 0
1  18 0 0.000000000000000 27.000000000000000
2  17 10 0 0.000000000000000 27.000000000000000
4 G1 9 0 10 0
0

0101000
+17 4 -17 6 *
Ed
 0.000000100000000 1 1 0
1  19 0 0.000000000000000 90.200476586665545
0

0101000
+17 0 -22 0 *
Wi

0101100
+16 0 -21 0 -15 4 +15 6 *
Fa
0  0.000000100000000 9 0

0111000
+14 0 *
Ve
0.000000100000000
36.009192330938326 134.130229568467001 0.000000000000000
0 0

0101101
*
Ed
 0.000000100000000 1 1 0
1  20 0 0.000000000000000 27.000000000000000
2  18 10 0 0.000000000000000 27.000000000000000
4 G1 10 0 11 0
0

0101000
+12 4 -12 6 *
Ed
 0.000000100000000 1 1 0
1  21 0 1.570796326794905 3.141580272659024
2  19 10 7 1.570796326794905 3.141580272659024
2  20 10 8 1.570796326794905 3.141580272659024
0

0101000
+12 0 -17 0 *
Wi

0101100
+11 0 -16 0 -10 4 +10 6 *
Fa
0  0.000000100000000 10 0

0111000
+9 0 *
Ed
 0.000000100000000 1 1 0
1  22 0 0.000000000000000 109.961990588359498
0

0101000
+12 0 -59 0 *
Wi

0101100
+11 0 -58 0 -7 4 +7 6 *
Fa
0  0.000000100000000 11 0

0111000
+6 0 *
Wi

0101100
+55 0 -50 0 +45 0 -40 0 +35 0 -30 0 -25 0 -20 0 -15 0 -10 0 
+7 0 *
Fa
0  0.000000100000000 12 0

0111000
-4 10 *
Sh

0101100
-53 0 +48 0 -43 0 +38 0 -33 0 +28 0 +23 0 +18 0 +13 0 +8 0 
-5 0 +3 9 -3 11 *
So

1100000
-2 0 *

+1 0 