
CASCADE Topology V1, (c) Matra-Datavision
Locations 9
1
1.000000000000000 0.000000000000000 0.000000000000000 0.000000000000000 
0.000000000000000 1.000000000000000 0.000000000000000 0.000000000000000 
0.000000000000000 0.000000000000000 1.000000000000000 0.000000000000000 
1
1.000000000000000 0.000000000000000 0.000000000000000 0.000000000000000 
0.000000000000000 1.000000000000000 0.000000000000000 0.000000000000000 
0.000000000000000 0.000000000000000 1.000000000000000 4.000000000000004 
1
1.000000000000000 0.000000000000000 0.000000000000000 0.000000000000000 
0.000000000000000 1.000000000000000 0.000000000000000 0.000000000000000 
0.000000000000000 0.000000000000000 1.000000000000000 0.000000000000000 
2  1 1 2 1 3 -1 0
1
1.000000000000000 0.000000000000000 0.000000000000000 -0.000000000000000 
0.000000000000000 1.000000000000000 0.000000000000000 -0.000000000000000 
0.000000000000000 0.000000000000000 1.000000000000000 -1.000000000000000 
2  1 1 2 1 3 -1 5 1 0
2  3 -1 0
2  1 1 2 1 0
2  3 -1 5 1 0
Curve2ds 0
Curves 16
1 119.43430137437299265 9.15615867352632051 4.00000000000000355 -0.00000000000000000 -0.00000000000000000 -1.00000000000000000 
1 159.43430137437297844 9.15615867352632051 4.00000000000000355 -0.00000000000000000 -0.00000000000000000 -1.00000000000000000 
1 119.43430137437299265 9.15615867352632051 0.00000000000000000 1.00000000000000000 0.00000000000000000 0.00000000000000000 
1 159.43430137437297844 29.15615867352632051 4.00000000000000355 -0.00000000000000000 -0.00000000000000000 -1.00000000000000000 
1 159.43430137437297844 9.15615867352632051 0.00000000000000000 0.00000000000000000 1.00000000000000000 0.00000000000000000 
1 119.43430137437299265 29.15615867352632051 4.00000000000000355 -0.00000000000000000 -0.00000000000000000 -1.00000000000000000 
1 159.43430137437297844 29.15615867352632051 0.00000000000000000 -1.00000000000000000 0.00000000000000000 0.00000000000000000 
1 119.43430137437299265 29.15615867352632051 0.00000000000000000 0.00000000000000000 -1.00000000000000000 0.00000000000000000 
1 119.43430137437299265 89.15615867352637736 4.00000000000000355 -0.00000000000000000 -0.00000000000000000 -1.00000000000000000 
1 119.43430137437299265 69.15615867352637736 4.00000000000000355 -0.00000000000000000 -0.00000000000000000 -1.00000000000000000 
1 119.43430137437299265 89.15615867352637736 0.00000000000000000 0.00000000000000000 -1.00000000000000000 0.00000000000000000 
1 159.43430137437297844 69.15615867352637736 4.00000000000000355 -0.00000000000000000 -0.00000000000000000 -1.00000000000000000 
1 119.43430137437299265 69.15615867352637736 0.00000000000000000 1.00000000000000000 0.00000000000000000 0.00000000000000000 
1 159.43430137437297844 89.15615867352637736 4.00000000000000355 -0.00000000000000000 -0.00000000000000000 -1.00000000000000000 
1 159.43430137437297844 69.15615867352637736 0.00000000000000000 0.00000000000000000 1.00000000000000000 0.00000000000000000 
1 159.43430137437297844 89.15615867352637736 0.00000000000000000 -1.00000000000000000 0.00000000000000000 0.00000000000000000 
Polygon3D 0
PolygonOnTriangulations 0
Surfaces 10
1 119.43430137437299265 9.15615867352632051 4.00000000000000355 0.00000000000000000 -1.00000000000000000 0.00000000000000000 1.00000000000000000 0.00000000000000000 0.00000000000000000 -0.00000000000000000 0.00000000000000000 1.00000000000000000 
1 159.43430137437297844 9.15615867352632051 4.00000000000000355 1.00000000000000000 0.00000000000000000 0.00000000000000000 -0.00000000000000000 1.00000000000000000 0.00000000000000000 0.00000000000000000 -0.00000000000000000 1.00000000000000000 
1 159.43430137437297844 29.15615867352632051 4.00000000000000355 0.00000000000000000 1.00000000000000000 -0.00000000000000000 -1.00000000000000000 0.00000000000000000 0.00000000000000000 0.00000000000000000 0.00000000000000000 1.00000000000000000 
1 119.43430137437299265 29.15615867352632051 4.00000000000000355 -1.00000000000000000 0.00000000000000000 0.00000000000000000 0.00000000000000000 -1.00000000000000000 0.00000000000000000 0.00000000000000000 0.00000000000000000 1.00000000000000000 
1 139.43430137437300687 49.15615867352634183 4.00000000000000178 0.00000000000000000 0.00000000000000000 1.00000000000000000 1.00000000000000000 0.00000000000000000 -0.00000000000000000 -0.00000000000000000 1.00000000000000000 0.00000000000000000 
1 119.43430137437299265 89.15615867352637736 4.00000000000000355 -1.00000000000000000 0.00000000000000000 0.00000000000000000 0.00000000000000000 -1.00000000000000000 0.00000000000000000 0.00000000000000000 0.00000000000000000 1.00000000000000000 
1 119.43430137437299265 69.15615867352637736 4.00000000000000355 0.00000000000000000 -1.00000000000000000 0.00000000000000000 1.00000000000000000 0.00000000000000000 0.00000000000000000 -0.00000000000000000 0.00000000000000000 1.00000000000000000 
1 159.43430137437297844 69.15615867352637736 4.00000000000000355 1.00000000000000000 0.00000000000000000 0.00000000000000000 -0.00000000000000000 1.00000000000000000 0.00000000000000000 0.00000000000000000 -0.00000000000000000 1.00000000000000000 
1 159.43430137437297844 89.15615867352637736 4.00000000000000355 0.00000000000000000 1.00000000000000000 -0.00000000000000000 -1.00000000000000000 0.00000000000000000 0.00000000000000000 0.00000000000000000 0.00000000000000000 1.00000000000000000 
1 139.43430137437300687 49.15615867352634183 4.00000000000000178 0.00000000000000000 0.00000000000000000 1.00000000000000000 1.00000000000000000 0.00000000000000000 -0.00000000000000000 -0.00000000000000000 1.00000000000000000 0.00000000000000000 
Triangulations 0

TShapes 49
Ve
0.000000100000000
119.434301374372993 9.156158673526321 0.000000000000000
0 0

0101101
*
Ed
 0.000000100000000 1 1 0
1  1 0 0.000000000000000 1.000000000000000
0

0101000
+49 4 -49 6 *
Ve
0.000000100000000
159.434301374372978 9.156158673526321 0.000000000000000
0 0

0101101
*
Ed
 0.000000100000000 1 1 0
1  2 0 0.000000000000000 1.000000000000000
0

0101000
+47 4 -47 6 *
Ed
 0.000000100000000 1 1 0
1  3 0 0.000000000000000 39.999999999999986
0

0101000
+49 0 -47 0 *
Wi

0101100
+48 0 -46 0 -45 4 +45 6 *
Fa
0  0.000000100000000 1 0

0101000
+44 0 *
Ve
0.000000100000000
159.434301374372978 29.156158673526321 0.000000000000000
0 0

0101101
*
Ed
 0.000000100000000 1 1 0
1  4 0 0.000000000000000 1.000000000000000
0

0101000
+42 4 -42 6 *
Ed
 0.000000100000000 1 1 0
1  5 0 0.000000000000000 20.000000000000000
0

0101000
+47 0 -42 0 *
Wi

0101100
+46 0 -41 0 -40 4 +40 6 *
Fa
0  0.000000100000000 2 0

0101000
+39 0 *
Ve
0.000000100000000
119.434301374372993 29.156158673526321 0.000000000000000
0 0

0101101
*
Ed
 0.000000100000000 1 1 0
1  6 0 0.000000000000000 1.000000000000000
0

0101000
+37 4 -37 6 *
Ed
 0.000000100000000 1 1 0
1  7 0 0.000000000000000 39.999999999999986
0

0101000
+42 0 -37 0 *
Wi

0101100
+41 0 -36 0 -35 4 +35 6 *
Fa
0  0.000000100000000 3 0

0101000
+34 0 *
Ed
 0.000000100000000 1 1 0
1  8 0 0.000000000000000 20.000000000000000
0

0101000
+37 0 -49 0 *
Wi

0101100
+36 0 -48 0 -32 4 +32 6 *
Fa
0  0.000000100000000 4 0

0101000
+31 0 *
Wi

0101100
+45 0 +40 0 +35 0 +32 0 *
Fa
0  0.000000100000000 5 0

0101000
+29 8 *
Sh

0101100
+43 0 +38 0 +33 0 +30 0 +28 7 -28 9 *
So

0100000
+27 0 *
Ve
0.000000100000000
119.434301374372993 89.156158673526377 0.000000000000000
0 0

0101101
*
Ed
 0.000000100000000 1 1 0
1  9 0 0.000000000000000 1.000000000000000
0

0101000
+25 4 -25 6 *
Ve
0.000000100000000
119.434301374372993 69.156158673526377 0.000000000000000
0 0

0101101
*
Ed
 0.000000100000000 1 1 0
1  10 0 0.000000000000000 1.000000000000000
0

0101000
+23 4 -23 6 *
Ed
 0.000000100000000 1 1 0
1  11 0 0.000000000000000 20.000000000000000
0

0101000
+25 0 -23 0 *
Wi

0101100
+24 0 -22 0 -21 4 +21 6 *
Fa
0  0.000000100000000 6 0

0101000
+20 0 *
Ve
0.000000100000000
159.434301374372978 69.156158673526377 0.000000000000000
0 0

0101101
*
Ed
 0.000000100000000 1 1 0
1  12 0 0.000000000000000 1.000000000000000
0

0101000
+18 4 -18 6 *
Ed
 0.000000100000000 1 1 0
1  13 0 0.000000000000000 39.999999999999986
0

0101000
+23 0 -18 0 *
Wi

0101100
+22 0 -17 0 -16 4 +16 6 *
Fa
0  0.000000100000000 7 0

0101000
+15 0 *
Ve
0.000000100000000
159.434301374372978 89.156158673526377 0.000000000000000
0 0

0101101
*
Ed
 0.000000100000000 1 1 0
1  14 0 0.000000000000000 1.000000000000000
0

0101000
+13 4 -13 6 *
Ed
 0.000000100000000 1 1 0
1  15 0 0.000000000000000 20.000000000000000
0

0101000
+18 0 -13 0 *
Wi

0101100
+17 0 -12 0 -11 4 +11 6 *
Fa
0  0.000000100000000 8 0

0101000
+10 0 *
Ed
 0.000000100000000 1 1 0
1  16 0 0.000000000000000 39.999999999999986
0

0101000
+13 0 -25 0 *
Wi

0101100
+12 0 -24 0 -8 4 +8 6 *
Fa
0  0.000000100000000 9 0

0101000
+7 0 *
Wi

0101100
+21 0 +16 0 +11 0 +8 0 *
Fa
0  0.000000100000000 10 0

0101000
+5 8 *
Sh

0101100
+19 0 +14 0 +9 0 +6 0 +4 7 -4 9 *
So

0100000
+3 0 *
Co

1100000
+26 0 +2 0 *

+1 0 