
CASCADE Topology V1, (c) Matra-Datavision
Locations 11
1
1.000000000000000 0.000000000000000 0.000000000000000 0.000000000000000 
0.000000000000000 1.000000000000000 0.000000000000000 0.000000000000000 
0.000000000000000 0.000000000000000 1.000000000000000 0.000000000000000 
1
1.000000000000000 0.000000000000000 0.000000000000000 0.000000000000000 
0.000000000000000 1.000000000000000 0.000000000000000 0.000000000000000 
0.000000000000000 0.000000000000000 1.000000000000000 3.000000000000000 
1
1.000000000000000 0.000000000000000 0.000000000000000 0.000000000000000 
0.000000000000000 1.000000000000000 0.000000000000000 0.000000000000000 
0.000000000000000 0.000000000000000 1.000000000000000 0.000000000000000 
2  1 1 2 1 3 -1 0
1
1.000000000000000 0.000000000000000 0.000000000000000 -0.000000000000000 
0.000000000000000 1.000000000000000 0.000000000000000 -0.000000000000000 
0.000000000000000 0.000000000000000 1.000000000000000 -634.357419612041781 
2  1 1 2 1 3 -1 5 1 0
2  3 1 2 -1 1 -1 0
2  5 -1 3 1 2 -1 1 -1 0
2  3 -1 0
2  1 1 2 1 0
2  3 -1 5 1 0
Curve2ds 48
1 0.00000000000000000 0.00000000000000000 0.00000000000000000 -1.00000000000000000 
1 6.28318530717958623 0.00000000000000000 0.00000000000000000 -1.00000000000000000 
1 0.00000000000000000 0.00000000000000000 1.00000000000000000 0.00000000000000000 
1 0.00000000000000000 -634.35741961204178097 1.00000000000000000 0.00000000000000000 
1 0.00000000000000000 0.00000000000000000 0.00000000000000000 -1.00000000000000000 
1 6.28318530717958623 0.00000000000000000 0.00000000000000000 -1.00000000000000000 
1 0.00000000000000000 0.00000000000000000 1.00000000000000000 0.00000000000000000 
1 0.00000000000000000 -634.35741961204178097 1.00000000000000000 0.00000000000000000 
1 0.00000000000000000 0.00000000000000000 0.00000000000000000 -1.00000000000000000 
1 6.28318530717958623 0.00000000000000000 0.00000000000000000 -1.00000000000000000 
1 0.00000000000000000 0.00000000000000000 1.00000000000000000 0.00000000000000000 
1 0.00000000000000000 -634.35741961204178097 1.00000000000000000 0.00000000000000000 
1 0.00000000000000000 0.00000000000000000 0.00000000000000000 -1.00000000000000000 
1 6.28318530717958623 0.00000000000000000 0.00000000000000000 -1.00000000000000000 
1 0.00000000000000000 0.00000000000000000 1.00000000000000000 0.00000000000000000 
1 0.00000000000000000 -634.35741961204178097 1.00000000000000000 0.00000000000000000 
1 0.00000000000000000 0.00000000000000000 0.00000000000000000 -1.00000000000000000 
1 6.28318530717958623 0.00000000000000000 0.00000000000000000 -1.00000000000000000 
1 0.00000000000000000 0.00000000000000000 1.00000000000000000 0.00000000000000000 
1 0.00000000000000000 -634.35741961204178097 1.00000000000000000 0.00000000000000000 
1 0.00000000000000000 0.00000000000000000 0.00000000000000000 -1.00000000000000000 
1 6.28318530717958623 0.00000000000000000 0.00000000000000000 -1.00000000000000000 
1 0.00000000000000000 0.00000000000000000 1.00000000000000000 0.00000000000000000 
1 0.00000000000000000 -634.35741961204178097 1.00000000000000000 0.00000000000000000 
1 0.00000000000000000 0.00000000000000000 0.00000000000000000 -1.00000000000000000 
1 6.28318530717958623 0.00000000000000000 0.00000000000000000 -1.00000000000000000 
1 0.00000000000000000 0.00000000000000000 1.00000000000000000 0.00000000000000000 
1 0.00000000000000000 -634.35741961204178097 1.00000000000000000 0.00000000000000000 
1 0.00000000000000000 0.00000000000000000 0.00000000000000000 -1.00000000000000000 
1 6.28318530717958623 0.00000000000000000 0.00000000000000000 -1.00000000000000000 
1 0.00000000000000000 0.00000000000000000 1.00000000000000000 0.00000000000000000 
1 0.00000000000000000 -634.35741961204178097 1.00000000000000000 0.00000000000000000 
1 0.00000000000000000 0.00000000000000000 0.00000000000000000 -1.00000000000000000 
1 6.28318530717958623 0.00000000000000000 0.00000000000000000 -1.00000000000000000 
1 0.00000000000000000 0.00000000000000000 1.00000000000000000 0.00000000000000000 
1 0.00000000000000000 -634.35741961204178097 1.00000000000000000 0.00000000000000000 
1 0.00000000000000000 0.00000000000000000 0.00000000000000000 -1.00000000000000000 
1 6.28318530717958623 0.00000000000000000 0.00000000000000000 -1.00000000000000000 
1 0.00000000000000000 0.00000000000000000 1.00000000000000000 0.00000000000000000 
1 0.00000000000000000 -634.35741961204178097 1.00000000000000000 0.00000000000000000 
1 0.00000000000000000 0.00000000000000000 0.00000000000000000 -1.00000000000000000 
1 6.28318530717958623 0.00000000000000000 0.00000000000000000 -1.00000000000000000 
1 0.00000000000000000 0.00000000000000000 1.00000000000000000 0.00000000000000000 
1 0.00000000000000000 -634.35741961204178097 1.00000000000000000 0.00000000000000000 
1 0.00000000000000000 0.00000000000000000 0.00000000000000000 -1.00000000000000000 
1 6.28318530717958623 0.00000000000000000 0.00000000000000000 -1.00000000000000000 
1 0.00000000000000000 0.00000000000000000 1.00000000000000000 0.00000000000000000 
1 0.00000000000000000 -634.35741961204178097 1.00000000000000000 0.00000000000000000 
Curves 24
1 165.81496100000001093 78.51059499999999503 3.00000000000000000 -0.00000000000000000 -0.00000000000000000 -1.00000000000000000 
2 164.48996100000002230 78.51059499999999503 0.00000000000000000 0.00000000000000000 0.00000000000000000 1.00000000000000000 1.00000000000000000 0.00000000000000000 -0.00000000000000000 -0.00000000000000000 1.00000000000000000 0.00000000000000000 1.32499999999999996
1 237.41726749999997992 104.57179700000000366 3.00000000000000000 -0.00000000000000000 -0.00000000000000000 -1.00000000000000000 
2 236.09226749999999129 104.57179700000000366 0.00000000000000000 0.00000000000000000 0.00000000000000000 1.00000000000000000 1.00000000000000000 0.00000000000000000 -0.00000000000000000 -0.00000000000000000 1.00000000000000000 0.00000000000000000 1.32499999999999996
1 256.96166899999997213 50.87004199999999798 3.00000000000000000 -0.00000000000000000 -0.00000000000000000 -1.00000000000000000 
2 255.63666899999998350 50.87004199999999798 0.00000000000000000 0.00000000000000000 0.00000000000000000 1.00000000000000000 1.00000000000000000 0.00000000000000000 -0.00000000000000000 -0.00000000000000000 1.00000000000000000 0.00000000000000000 1.32499999999999996
1 185.36091183914010116 24.80843132448038446 3.00000000000000000 -0.00000000000000000 -0.00000000000000000 -1.00000000000000000 
2 184.03591183914011253 24.80843132448038446 0.00000000000000000 0.00000000000000000 0.00000000000000000 1.00000000000000000 1.00000000000000000 0.00000000000000000 -0.00000000000000000 -0.00000000000000000 1.00000000000000000 0.00000000000000000 1.32499999999999996
1 96.18662887880385881 24.72714349231378606 3.00000000000000000 -0.00000000000000000 -0.00000000000000000 -1.00000000000000000 
2 94.86162887880385597 24.72714349231378606 0.00000000000000000 0.00000000000000000 0.00000000000000000 1.00000000000000000 1.00000000000000000 0.00000000000000000 -0.00000000000000000 -0.00000000000000000 1.00000000000000000 0.00000000000000000 1.32499999999999996
1 24.58418750000001296 50.78734399999997606 3.00000000000000000 -0.00000000000000000 -0.00000000000000000 -1.00000000000000000 
2 23.25918750000001367 50.78734399999997606 0.00000000000000000 0.00000000000000000 0.00000000000000000 1.00000000000000000 1.00000000000000000 0.00000000000000000 -0.00000000000000000 -0.00000000000000000 1.00000000000000000 0.00000000000000000 1.32499999999999996
1 44.12973850000000198 104.48929900000000259 3.00000000000000000 -0.00000000000000000 -0.00000000000000000 -1.00000000000000000 
2 42.80473849999999914 104.48929900000000259 0.00000000000000000 0.00000000000000000 0.00000000000000000 1.00000000000000000 1.00000000000000000 0.00000000000000000 -0.00000000000000000 -0.00000000000000000 1.00000000000000000 0.00000000000000000 1.32499999999999996
1 115.73349550000023100 78.42854700000009416 3.00000000000000000 -0.00000000000000000 -0.00000000000000000 -1.00000000000000000 
2 114.40849550000022816 78.42854700000009416 0.00000000000000000 0.00000000000000000 0.00000000000000000 1.00000000000000000 1.00000000000000000 0.00000000000000000 -0.00000000000000000 -0.00000000000000000 1.00000000000000000 0.00000000000000000 1.32499999999999996
1 137.79193777680822564 -8.14410999249586176 3.00000000000000000 -0.00000000000000000 -0.00000000000000000 -1.00000000000000000 
2 136.46693777680823700 -8.14410999249586176 0.00000000000000000 0.00000000000000000 0.00000000000000000 1.00000000000000000 1.00000000000000000 0.00000000000000000 -0.00000000000000000 -0.00000000000000000 1.00000000000000000 0.00000000000000000 1.32499999999999996
1 143.52770451411328168 -8.14411416276451838 3.00000000000000000 -0.00000000000000000 -0.00000000000000000 -1.00000000000000000 
2 142.20270451411329304 -8.14411416276451838 0.00000000000000000 0.00000000000000000 0.00000000000000000 1.00000000000000000 1.00000000000000000 0.00000000000000000 -0.00000000000000000 -0.00000000000000000 1.00000000000000000 0.00000000000000000 1.32499999999999996
1 137.79517285029115214 58.85588992940189002 3.00000000000000000 -0.00000000000000000 -0.00000000000000000 -1.00000000000000000 
2 136.47017285029116351 58.85588992940189002 0.00000000000000000 0.00000000000000000 0.00000000000000000 1.00000000000000000 1.00000000000000000 0.00000000000000000 -0.00000000000000000 -0.00000000000000000 1.00000000000000000 0.00000000000000000 1.32499999999999996
1 143.99682901355424747 58.85588992940189002 3.00000000000000000 -0.00000000000000000 -0.00000000000000000 -1.00000000000000000 
2 142.67182901355425884 58.85588992940189002 0.00000000000000000 0.00000000000000000 0.00000000000000000 1.00000000000000000 1.00000000000000000 0.00000000000000000 -0.00000000000000000 -0.00000000000000000 1.00000000000000000 0.00000000000000000 1.32499999999999996
Polygon3D 0
PolygonOnTriangulations 0
Surfaces 24
2 164.48996100000002230 78.51059499999999503 3.00000000000000000 0.00000000000000000 0.00000000000000000 1.00000000000000000 1.00000000000000000 0.00000000000000000 -0.00000000000000000 -0.00000000000000000 1.00000000000000000 0.00000000000000000 1.32499999999999996
1 139.45004198939241746 51.55139621002818728 3.00000000000000000 0.00000000000000000 0.00000000000000000 1.00000000000000000 1.00000000000000000 0.00000000000000000 -0.00000000000000000 -0.00000000000000000 1.00000000000000000 0.00000000000000000 
2 236.09226749999999129 104.57179700000000366 3.00000000000000000 0.00000000000000000 0.00000000000000000 1.00000000000000000 1.00000000000000000 0.00000000000000000 -0.00000000000000000 -0.00000000000000000 1.00000000000000000 0.00000000000000000 1.32499999999999996
1 139.45004198939241746 51.55139621002818728 3.00000000000000000 0.00000000000000000 0.00000000000000000 1.00000000000000000 1.00000000000000000 0.00000000000000000 -0.00000000000000000 -0.00000000000000000 1.00000000000000000 0.00000000000000000 
2 255.63666899999998350 50.87004199999999798 3.00000000000000000 0.00000000000000000 0.00000000000000000 1.00000000000000000 1.00000000000000000 0.00000000000000000 -0.00000000000000000 -0.00000000000000000 1.00000000000000000 0.00000000000000000 1.32499999999999996
1 139.45004198939241746 51.55139621002818728 3.00000000000000000 0.00000000000000000 0.00000000000000000 1.00000000000000000 1.00000000000000000 0.00000000000000000 -0.00000000000000000 -0.00000000000000000 1.00000000000000000 0.00000000000000000 
2 184.03591183914011253 24.80843132448038446 3.00000000000000000 0.00000000000000000 0.00000000000000000 1.00000000000000000 1.00000000000000000 0.00000000000000000 -0.00000000000000000 -0.00000000000000000 1.00000000000000000 0.00000000000000000 1.32499999999999996
1 139.45004198939241746 51.55139621002818728 3.00000000000000000 0.00000000000000000 0.00000000000000000 1.00000000000000000 1.00000000000000000 0.00000000000000000 -0.00000000000000000 -0.00000000000000000 1.00000000000000000 0.00000000000000000 
2 94.86162887880385597 24.72714349231378606 3.00000000000000000 0.00000000000000000 0.00000000000000000 1.00000000000000000 1.00000000000000000 0.00000000000000000 -0.00000000000000000 -0.00000000000000000 1.00000000000000000 0.00000000000000000 1.32499999999999996
1 139.45004198939241746 51.55139621002818728 3.00000000000000000 0.00000000000000000 0.00000000000000000 1.00000000000000000 1.00000000000000000 0.00000000000000000 -0.00000000000000000 -0.00000000000000000 1.00000000000000000 0.00000000000000000 
2 23.25918750000001367 50.78734399999997606 3.00000000000000000 0.00000000000000000 0.00000000000000000 1.00000000000000000 1.00000000000000000 0.00000000000000000 -0.00000000000000000 -0.00000000000000000 1.00000000000000000 0.00000000000000000 1.32499999999999996
1 139.45004198939241746 51.55139621002818728 3.00000000000000000 0.00000000000000000 0.00000000000000000 1.00000000000000000 1.00000000000000000 0.00000000000000000 -0.00000000000000000 -0.00000000000000000 1.00000000000000000 0.00000000000000000 
2 42.80473849999999914 104.48929900000000259 3.00000000000000000 0.00000000000000000 0.00000000000000000 1.00000000000000000 1.00000000000000000 0.00000000000000000 -0.00000000000000000 -0.00000000000000000 1.00000000000000000 0.00000000000000000 1.32499999999999996
1 139.45004198939241746 51.55139621002818728 3.00000000000000000 0.00000000000000000 0.00000000000000000 1.00000000000000000 1.00000000000000000 0.00000000000000000 -0.00000000000000000 -0.00000000000000000 1.00000000000000000 0.00000000000000000 
2 114.40849550000022816 78.42854700000009416 3.00000000000000000 0.00000000000000000 0.00000000000000000 1.00000000000000000 1.00000000000000000 0.00000000000000000 -0.00000000000000000 -0.00000000000000000 1.00000000000000000 0.00000000000000000 1.32499999999999996
1 139.45004198939241746 51.55139621002818728 3.00000000000000000 0.00000000000000000 0.00000000000000000 1.00000000000000000 1.00000000000000000 0.00000000000000000 -0.00000000000000000 -0.00000000000000000 1.00000000000000000 0.00000000000000000 
2 136.46693777680823700 -8.14410999249586176 3.00000000000000000 0.00000000000000000 0.00000000000000000 1.00000000000000000 1.00000000000000000 0.00000000000000000 -0.00000000000000000 -0.00000000000000000 1.00000000000000000 0.00000000000000000 1.32499999999999996
1 139.45004198939241746 51.55139621002818728 3.00000000000000000 0.00000000000000000 0.00000000000000000 1.00000000000000000 1.00000000000000000 0.00000000000000000 -0.00000000000000000 -0.00000000000000000 1.00000000000000000 0.00000000000000000 
2 142.20270451411329304 -8.14411416276451838 3.00000000000000000 0.00000000000000000 0.00000000000000000 1.00000000000000000 1.00000000000000000 0.00000000000000000 -0.00000000000000000 -0.00000000000000000 1.00000000000000000 0.00000000000000000 1.32499999999999996
1 139.45004198939241746 51.55139621002818728 3.00000000000000000 0.00000000000000000 0.00000000000000000 1.00000000000000000 1.00000000000000000 0.00000000000000000 -0.00000000000000000 -0.00000000000000000 1.00000000000000000 0.00000000000000000 
2 136.47017285029116351 58.85588992940189002 3.00000000000000000 0.00000000000000000 0.00000000000000000 1.00000000000000000 1.00000000000000000 0.00000000000000000 -0.00000000000000000 -0.00000000000000000 1.00000000000000000 0.00000000000000000 1.32499999999999996
1 139.45004198939241746 51.55139621002818728 3.00000000000000000 0.00000000000000000 0.00000000000000000 1.00000000000000000 1.00000000000000000 0.00000000000000000 -0.00000000000000000 -0.00000000000000000 1.00000000000000000 0.00000000000000000 
2 142.67182901355425884 58.85588992940189002 3.00000000000000000 0.00000000000000000 0.00000000000000000 1.00000000000000000 1.00000000000000000 0.00000000000000000 -0.00000000000000000 -0.00000000000000000 1.00000000000000000 0.00000000000000000 1.32499999999999996
1 139.45004198939241746 51.55139621002818728 3.00000000000000000 0.00000000000000000 0.00000000000000000 1.00000000000000000 1.00000000000000000 0.00000000000000000 -0.00000000000000000 -0.00000000000000000 1.00000000000000000 0.00000000000000000 
Triangulations 0

TShapes 109
Ve
0.000000100000000
165.814961000000011 78.510594999999995 0.000000000000000
0 0

0101101
*
Ed
 0.000000100000000 1 1 0
1  1 0 0.000000000000000 634.357419612041781
3  1 2CN 1 0 0.000000000000000 634.357419612041781
0

0101000
+109 4 -109 6 *
Ed
 0.000000100000000 1 1 0
1  2 0 0.000000000000000 6.283185307179586
2  3 1 7 0.000000000000000 6.283185307179586
2  4 1 8 0.000000000000000 6.283185307179586
0

0101100
+109 0 -109 0 *
Wi

0101100
+108 0 -108 0 -107 4 +107 6 *
Fa
0  0.000000100000000 1 0

0111000
+106 0 *
Wi

0101100
+107 0 *
Fa
0  0.000000100000000 2 0

0111000
+104 10 *
Sh

0101100
+105 0 +103 9 -103 11 *
So

0100000
+102 0 *
Ve
0.000000100000000
237.417267499999980 104.571797000000004 0.000000000000000
0 0

0101101
*
Ed
 0.000000100000000 1 1 0
1  3 0 0.000000000000000 634.357419612041781
3  5 6CN 3 0 0.000000000000000 634.357419612041781
0

0101000
+100 4 -100 6 *
Ed
 0.000000100000000 1 1 0
1  4 0 0.000000000000000 6.283185307179586
2  7 3 7 0.000000000000000 6.283185307179586
2  8 3 8 0.000000000000000 6.283185307179586
0

0101100
+100 0 -100 0 *
Wi

0101100
+99 0 -99 0 -98 4 +98 6 *
Fa
0  0.000000100000000 3 0

0111000
+97 0 *
Wi

0101100
+98 0 *
Fa
0  0.000000100000000 4 0

0111000
+95 10 *
Sh

0101100
+96 0 +94 9 -94 11 *
So

0100000
+93 0 *
Ve
0.000000100000000
256.961668999999972 50.870041999999998 0.000000000000000
0 0

0101101
*
Ed
 0.000000100000000 1 1 0
1  5 0 0.000000000000000 634.357419612041781
3  9 10CN 5 0 0.000000000000000 634.357419612041781
0

0101000
+91 4 -91 6 *
Ed
 0.000000100000000 1 1 0
1  6 0 0.000000000000000 6.283185307179586
2  11 5 7 0.000000000000000 6.283185307179586
2  12 5 8 0.000000000000000 6.283185307179586
0

0101100
+91 0 -91 0 *
Wi

0101100
+90 0 -90 0 -89 4 +89 6 *
Fa
0  0.000000100000000 5 0

0111000
+88 0 *
Wi

0101100
+89 0 *
Fa
0  0.000000100000000 6 0

0111000
+86 10 *
Sh

0101100
+87 0 +85 9 -85 11 *
So

0100000
+84 0 *
Ve
0.000000100000000
185.360911839140101 24.808431324480384 0.000000000000000
0 0

0101101
*
Ed
 0.000000100000000 1 1 0
1  7 0 0.000000000000000 634.357419612041781
3  13 14CN 7 0 0.000000000000000 634.357419612041781
0

0101000
+82 4 -82 6 *
Ed
 0.000000100000000 1 1 0
1  8 0 0.000000000000000 6.283185307179586
2  15 7 7 0.000000000000000 6.283185307179586
2  16 7 8 0.000000000000000 6.283185307179586
0

0101100
+82 0 -82 0 *
Wi

0101100
+81 0 -81 0 -80 4 +80 6 *
Fa
0  0.000000100000000 7 0

0111000
+79 0 *
Wi

0101100
+80 0 *
Fa
0  0.000000100000000 8 0

0111000
+77 10 *
Sh

0101100
+78 0 +76 9 -76 11 *
So

0100000
+75 0 *
Ve
0.000000100000000
96.186628878803859 24.727143492313786 0.000000000000000
0 0

0101101
*
Ed
 0.000000100000000 1 1 0
1  9 0 0.000000000000000 634.357419612041781
3  17 18CN 9 0 0.000000000000000 634.357419612041781
0

0101000
+73 4 -73 6 *
Ed
 0.000000100000000 1 1 0
1  10 0 0.000000000000000 6.283185307179586
2  19 9 7 0.000000000000000 6.283185307179586
2  20 9 8 0.000000000000000 6.283185307179586
0

0101100
+73 0 -73 0 *
Wi

0101100
+72 0 -72 0 -71 4 +71 6 *
Fa
0  0.000000100000000 9 0

0111000
+70 0 *
Wi

0101100
+71 0 *
Fa
0  0.000000100000000 10 0

0111000
+68 10 *
Sh

0101100
+69 0 +67 9 -67 11 *
So

0100000
+66 0 *
Ve
0.000000100000000
24.584187500000013 50.787343999999976 0.000000000000000
0 0

0101101
*
Ed
 0.000000100000000 1 1 0
1  11 0 0.000000000000000 634.357419612041781
3  21 22CN 11 0 0.000000000000000 634.357419612041781
0

0101000
+64 4 -64 6 *
Ed
 0.000000100000000 1 1 0
1  12 0 0.000000000000000 6.283185307179586
2  23 11 7 0.000000000000000 6.283185307179586
2  24 11 8 0.000000000000000 6.283185307179586
0

0101100
+64 0 -64 0 *
Wi

0101100
+63 0 -63 0 -62 4 +62 6 *
Fa
0  0.000000100000000 11 0

0111000
+61 0 *
Wi

0101100
+62 0 *
Fa
0  0.000000100000000 12 0

0111000
+59 10 *
Sh

0101100
+60 0 +58 9 -58 11 *
So

0100000
+57 0 *
Ve
0.000000100000000
44.129738500000002 104.489299000000003 0.000000000000000
0 0

0101101
*
Ed
 0.000000100000000 1 1 0
1  13 0 0.000000000000000 634.357419612041781
3  25 26CN 13 0 0.000000000000000 634.357419612041781
0

0101000
+55 4 -55 6 *
Ed
 0.000000100000000 1 1 0
1  14 0 0.000000000000000 6.283185307179586
2  27 13 7 0.000000000000000 6.283185307179586
2  28 13 8 0.000000000000000 6.283185307179586
0

0101100
+55 0 -55 0 *
Wi

0101100
+54 0 -54 0 -53 4 +53 6 *
Fa
0  0.000000100000000 13 0

0111000
+52 0 *
Wi

0101100
+53 0 *
Fa
0  0.000000100000000 14 0

0111000
+50 10 *
Sh

0101100
+51 0 +49 9 -49 11 *
So

0100000
+48 0 *
Ve
0.000000100000000
115.733495500000231 78.428547000000094 0.000000000000000
0 0

0101101
*
Ed
 0.000000100000000 1 1 0
1  15 0 0.000000000000000 634.357419612041781
3  29 30CN 15 0 0.000000000000000 634.357419612041781
0

0101000
+46 4 -46 6 *
Ed
 0.000000100000000 1 1 0
1  16 0 0.000000000000000 6.283185307179586
2  31 15 7 0.000000000000000 6.283185307179586
2  32 15 8 0.000000000000000 6.283185307179586
0

0101100
+46 0 -46 0 *
Wi

0101100
+45 0 -45 0 -44 4 +44 6 *
Fa
0  0.000000100000000 15 0

0111000
+43 0 *
Wi

0101100
+44 0 *
Fa
0  0.000000100000000 16 0

0111000
+41 10 *
Sh

0101100
+42 0 +40 9 -40 11 *
So

0100000
+39 0 *
Ve
0.000000100000000
137.791937776808226 -8.144109992495862 0.000000000000000
0 0

0101101
*
Ed
 0.000000100000000 1 1 0
1  17 0 0.000000000000000 634.357419612041781
3  33 34CN 17 0 0.000000000000000 634.357419612041781
0

0101000
+37 4 -37 6 *
Ed
 0.000000100000000 1 1 0
1  18 0 0.000000000000000 6.283185307179586
2  35 17 7 0.000000000000000 6.283185307179586
2  36 17 8 0.000000000000000 6.283185307179586
0

0101100
+37 0 -37 0 *
Wi

0101100
+36 0 -36 0 -35 4 +35 6 *
Fa
0  0.000000100000000 17 0

0111000
+34 0 *
Wi

0101100
+35 0 *
Fa
0  0.000000100000000 18 0

0111000
+32 10 *
Sh

0101100
+33 0 +31 9 -31 11 *
So

0100000
+30 0 *
Ve
0.000000100000000
143.527704514113282 -8.144114162764518 0.000000000000000
0 0

0101101
*
Ed
 0.000000100000000 1 1 0
1  19 0 0.000000000000000 634.357419612041781
3  37 38CN 19 0 0.000000000000000 634.357419612041781
0

0101000
+28 4 -28 6 *
Ed
 0.000000100000000 1 1 0
1  20 0 0.000000000000000 6.283185307179586
2  39 19 7 0.000000000000000 6.283185307179586
2  40 19 8 0.000000000000000 6.283185307179586
0

0101100
+28 0 -28 0 *
Wi

0101100
+27 0 -27 0 -26 4 +26 6 *
Fa
0  0.000000100000000 19 0

0111000
+25 0 *
Wi

0101100
+26 0 *
Fa
0  0.000000100000000 20 0

0111000
+23 10 *
Sh

0101100
+24 0 +22 9 -22 11 *
So

0100000
+21 0 *
Ve
0.000000100000000
137.795172850291152 58.855889929401890 0.000000000000000
0 0

0101101
*
Ed
 0.000000100000000 1 1 0
1  21 0 0.000000000000000 634.357419612041781
3  41 42CN 21 0 0.000000000000000 634.357419612041781
0

0101000
+19 4 -19 6 *
Ed
 0.000000100000000 1 1 0
1  22 0 0.000000000000000 6.283185307179586
2  43 21 7 0.000000000000000 6.283185307179586
2  44 21 8 0.000000000000000 6.283185307179586
0

0101100
+19 0 -19 0 *
Wi

0101100
+18 0 -18 0 -17 4 +17 6 *
Fa
0  0.000000100000000 21 0

0111000
+16 0 *
Wi

0101100
+17 0 *
Fa
0  0.000000100000000 22 0

0111000
+14 10 *
Sh

0101100
+15 0 +13 9 -13 11 *
So

0100000
+12 0 *
Ve
0.000000100000000
143.996829013554247 58.855889929401890 0.000000000000000
0 0

0101101
*
Ed
 0.000000100000000 1 1 0
1  23 0 0.000000000000000 634.357419612041781
3  45 46CN 23 0 0.000000000000000 634.357419612041781
0

0101000
+10 4 -10 6 *
Ed
 0.000000100000000 1 1 0
1  24 0 0.000000000000000 6.283185307179586
2  47 23 7 0.000000000000000 6.283185307179586
2  48 23 8 0.000000000000000 6.283185307179586
0

0101100
+10 0 -10 0 *
Wi

0101100
+9 0 -9 0 -8 4 +8 6 *
Fa
0  0.000000100000000 23 0

0111000
+7 0 *
Wi

0101100
+8 0 *
Fa
0  0.000000100000000 24 0

0111000
+5 10 *
Sh

0101100
+6 0 +4 9 -4 11 *
So

0100000
+3 0 *
Co

1100000
+101 0 +92 0 +83 0 +74 0 +65 0 +56 0 +47 0 +38 0 +29 0 +20 0 
+11 0 +2 0 *

+1 0 