
CASCADE Topology V1, (c) Matra-Datavision
Locations 11
1
1.000000000000000 0.000000000000000 0.000000000000000 0.000000000000000 
0.000000000000000 1.000000000000000 0.000000000000000 0.000000000000000 
0.000000000000000 0.000000000000000 1.000000000000000 0.000000000000000 
1
-0.939692950827170 0.000000000000000 -0.342019236543394 -14.721589055763570 
-0.342019236543394 -0.000000000000000 0.939692950827170 40.447354951393997 
-0.000000000000000 1.000000000000000 0.000000000000000 0.000000000000000 
1
1.000000000000000 0.000000000000000 0.000000000000000 0.000000000000000 
0.000000000000000 1.000000000000000 0.000000000000000 0.000000000000000 
0.000000000000000 0.000000000000000 1.000000000000000 0.000000000000000 
2  1 1 2 1 3 -1 0
1
1.000000000000000 0.000000000000000 0.000000000000000 1.026057709630182 
0.000000000000000 1.000000000000000 0.000000000000000 -2.819078852481510 
0.000000000000000 0.000000000000000 1.000000000000000 -0.000000000000000 
2  1 1 2 1 3 -1 5 1 0
2  3 1 2 -1 1 -1 0
2  5 -1 3 1 2 -1 1 -1 0
2  3 -1 0
2  1 1 2 1 0
2  3 -1 5 1 0
Curve2ds 8
1 1.57079632679489656 0.00000000000000000 0.00000000000000000 -1.00000000000000000 
1 4.71238898038468967 0.00000000000000000 0.00000000000000000 -1.00000000000000000 
1 0.00000000000000000 0.00000000000000000 1.00000000000000000 0.00000000000000000 
1 0.00000000000000000 -3.00000000000000089 1.00000000000000000 0.00000000000000000 
1 0.00000000000000000 0.00000000000000000 1.00000000000000000 0.00000000000000000 
1 0.00000000000000000 -3.00000000000000089 1.00000000000000000 0.00000000000000000 
1 1.57079632679489656 0.00000000000000000 0.00000000000000000 -1.00000000000000000 
1 4.71238898038468967 0.00000000000000000 0.00000000000000000 -1.00000000000000000 
Curves 10
1 239.60990208039194727 133.01616942505876295 13.50000000000001066 0.34201923654339406 -0.93969295082716986 -0.00000000000000017 
1 239.60990208039194727 133.01616942505876295 1.50000000000000799 0.34201923654339406 -0.93969295082716986 -0.00000000000000017 
2 -270.65382464801797369 7.50000000000000000 0.00000000000000000 0.00000000000000000 0.00000000000000000 1.00000000000000000 1.00000000000000000 0.00000000000000000 0.00000000000000000 0.00000000000000000 1.00000000000000000 0.00000000000000000 6.00000000000000000
1 239.60990208039194727 133.01616942505876295 1.50000000000000799 -0.93969295082716997 -0.34201923654339400 -0.00000000000000003 
2 -258.65382407636587914 7.50000000000000000 0.00000000000000000 0.00000000000000000 0.00000000000000000 1.00000000000000000 -1.00000000000000000 -0.00000000000000012 0.00000000000000000 0.00000000000000012 -1.00000000000000000 0.00000000000000000 6.00000000000000000
1 235.85113009802412876 131.64809241371318649 13.50000000000001066 -0.93969295082716997 -0.34201923654339400 -0.00000000000000003 
1 228.33358613328846332 128.91193839102200513 1.50000000000000755 0.34201923654339406 -0.93969295082716986 -0.00000000000000017 
1 228.33358613328846332 128.91193839102200513 13.50000000000001066 0.34201923654339406 -0.93969295082716986 -0.00000000000000017 
1 236.87718780765430893 128.82901356123167602 1.50000000000000733 -0.93969295082716997 -0.34201923654339400 -0.00000000000000003 
1 240.63595979002212744 130.19709057257725249 13.50000000000001066 -0.93969295082716997 -0.34201923654339400 -0.00000000000000003 
Polygon3D 0
PolygonOnTriangulations 0
Surfaces 9
2 239.60990208039194727 133.01616942505876295 7.50000000000000888 -0.34201923654339400 0.93969295082716997 0.00000000000000043 -0.93969295082716997 -0.34201923654339400 -0.00000000000000003 0.00000000000000012 -0.00000000000000041 1.00000000000000000 6.00000000000000178
1 239.60990208039194727 133.01616942505876295 13.50000000000001066 -0.00000000000000003 0.00000000000000017 -1.00000000000000000 -0.93969295082716997 -0.34201923654339400 -0.00000000000000003 -0.34201923654339400 0.93969295082716997 0.00000000000000017 
1 239.60990208039194727 133.01616942505876295 1.50000000000000799 -0.00000000000000003 0.00000000000000017 -1.00000000000000000 -0.93969295082716997 -0.34201923654339400 -0.00000000000000003 -0.34201923654339400 0.93969295082716997 0.00000000000000017 
1 233.97174410684016266 130.96405390804036983 7.50000000000000888 -0.34201923654339383 0.93969295082716997 0.00000000000000000 0.93969295082716997 0.34201923654339383 0.00000000000000000 0.00000000000000000 0.00000000000000000 -1.00000000000000000 
2 228.33358613328846332 128.91193839102200513 7.50000000000000888 -0.34201923654339400 0.93969295082716997 0.00000000000000043 0.93969295082716997 0.34201923654339400 -0.00000000000000009 -0.00000000000000023 0.00000000000000037 -1.00000000000000000 6.00000000000000178
1 235.85113009802412876 131.64809241371318649 1.50000000000000777 -0.00000000000000003 0.00000000000000017 -1.00000000000000000 -0.93969295082716997 -0.34201923654339400 -0.00000000000000003 -0.34201923654339400 0.93969295082716997 0.00000000000000017 
1 235.85113009802412876 131.64809241371318649 13.50000000000001066 -0.00000000000000003 0.00000000000000017 -1.00000000000000000 -0.93969295082716997 -0.34201923654339400 -0.00000000000000003 -0.34201923654339400 0.93969295082716997 0.00000000000000017 
1 234.48477296165526695 129.55451448179965723 1.50000000000000733 -0.00000000000000000 -0.00000000000000000 -1.00000000000000000 -1.00000000000000000 0.00000000000000000 0.00000000000000000 0.00000000000000000 1.00000000000000000 -0.00000000000000000 
1 234.48477296165526695 129.55451448179965723 13.50000000000001066 0.00000000000000000 0.00000000000000000 1.00000000000000000 1.00000000000000000 0.00000000000000000 -0.00000000000000000 -0.00000000000000000 1.00000000000000000 0.00000000000000000 
Triangulations 0

TShapes 28
Ve
0.000000100000000
-270.653824648017974 13.500000000000000 0.000000000000000
0 0

0101101
*
Ed
 0.000000100000000 1 1 0
1  1 0 0.000000000000000 3.000000000000001
2  1 1 0 0.000000000000000 3.000000000000001
4 G1 1 0 2 0
0

0101000
+28 4 -28 6 *
Ve
0.000000100000000
-270.653824648017974 1.500000000000000 0.000000000000000
0 0

0101101
*
Ed
 0.000000100000000 1 1 0
1  2 0 0.000000000000000 3.000000000000001
2  2 1 0 0.000000000000000 3.000000000000001
4 G1 1 0 3 0
0

0101000
+26 4 -26 6 *
Ed
 0.000000100000000 1 1 0
1  3 0 1.570796326794897 4.712388980384690
2  3 1 7 1.570796326794897 4.712388980384690
2  4 1 8 1.570796326794897 4.712388980384690
0

0101000
+28 0 -26 0 *
Wi

0101100
+27 0 -25 0 -24 4 +24 6 *
Fa
0  0.000000100000000 1 0

0101000
+23 0 *
Ve
0.000000100000000
-258.653824076365879 1.500000000000000 0.000000000000000
0 0

0101101
*
Ed
 0.000000100000000 1 1 0
1  4 0 -0.000000000000000 12.000000571652103
0

0101000
+26 4 -21 4 *
Ve
0.000000100000000
-258.653824076365879 13.500000000000000 0.000000000000000
0 0

0101101
*
Ed
 0.000000100000000 1 1 0
1  5 0 1.570796326794897 4.712388980384690
2  5 5 7 1.570796326794897 4.712388980384690
2  6 5 8 1.570796326794897 4.712388980384690
0

0101000
+21 0 -19 0 *
Ed
 0.000000100000000 1 1 0
1  6 0 -4.000000190550689 8.000000381101414
0

0101000
+28 4 -19 4 *
Wi

0101000
+24 0 +20 7 +18 0 -17 7 *
Fa
0  0.000000100000000 4 0

0111000
+16 10 *
Ed
 0.000000100000000 1 1 0
1  7 0 0.000000000000000 3.000000000000001
2  7 5 0 0.000000000000000 3.000000000000001
4 G1 6 0 5 0
0

0101000
+21 4 -21 6 *
Ed
 0.000000100000000 1 1 0
1  8 0 0.000000000000000 3.000000000000001
2  8 5 0 0.000000000000000 3.000000000000001
4 G1 5 0 7 0
0

0101000
+19 4 -19 6 *
Wi

0101100
+14 0 -13 0 -18 4 +18 6 *
Fa
0  0.000000100000000 5 0

0101000
+12 0 *
Ed
 0.000000100000000 1 1 0
1  9 0 -4.000000190550689 8.000000381101414
0

0101000
+26 6 -21 6 *
Ed
 0.000000100000000 1 1 0
1  10 0 -0.000000000000000 12.000000571652103
0

0101000
+28 6 -19 6 *
Wi

0101000
+24 0 +10 8 +18 0 -9 8 *
Fa
0  0.000000100000000 4 0

0111000
+8 10 *
Wi

0101000
+25 0 +10 0 -14 0 -20 0 *
Fa
0  0.000000100000000 8 0

0111000
+6 0 *
Wi

0101000
+13 0 -9 0 -27 0 +17 0 *
Fa
0  0.000000100000000 9 0

0111000
+4 0 *
Sh

0101000
+22 0 +15 9 +11 0 -7 11 +5 0 +3 0 *
So

1100000
+2 0 *

+1 0 