
CASCADE Topology V1, (c) Matra-Datavision
Locations 11
1
1.000000000000000 0.000000000000000 0.000000000000000 0.000000000000000 
0.000000000000000 1.000000000000000 0.000000000000000 0.000000000000000 
0.000000000000000 0.000000000000000 1.000000000000000 0.000000000000000 
1
1.000000000000000 0.000000000000000 0.000000000000000 0.000000000000000 
0.000000000000000 1.000000000000000 0.000000000000000 0.000000000000000 
0.000000000000000 0.000000000000000 1.000000000000000 27.000000000000000 
1
1.000000000000000 0.000000000000000 0.000000000000000 0.000000000000000 
0.000000000000000 1.000000000000000 0.000000000000000 0.000000000000000 
0.000000000000000 0.000000000000000 1.000000000000000 0.000000000000000 
2  1 1 2 1 3 -1 0
1
1.000000000000000 0.000000000000000 0.000000000000000 -0.000000000000000 
0.000000000000000 1.000000000000000 0.000000000000000 -0.000000000000000 
0.000000000000000 0.000000000000000 1.000000000000000 -23.000000000000000 
2  1 1 2 1 3 -1 5 1 0
2  3 1 2 -1 1 -1 0
2  5 -1 3 1 2 -1 1 -1 0
2  3 -1 0
2  1 1 2 1 0
2  3 -1 5 1 0
Curve2ds 24
1 2.26892836812608145 0.00000000000000000 0.00000000000000000 -1.00000000000000000 
1 3.14160635939550215 0.00000000000000000 0.00000000000000000 -1.00000000000000000 
1 1.57079632679489611 0.00000000000000000 0.00000000000000000 -1.00000000000000000 
1 0.00000000000000000 0.00000000000000000 1.00000000000000000 0.00000000000000000 
1 0.00000000000000000 -23.00000000000000000 1.00000000000000000 0.00000000000000000 
1 3.14157899965758958 0.00000000000000000 0.00000000000000000 -1.00000000000000000 
1 1.57079632679489589 0.00000000000000000 0.00000000000000000 -1.00000000000000000 
1 0.00000000000000000 0.00000000000000000 1.00000000000000000 0.00000000000000000 
1 0.00000000000000000 -23.00000000000000000 1.00000000000000000 0.00000000000000000 
1 2.26892744801857482 0.00000000000000000 0.00000000000000000 -1.00000000000000000 
1 1.57079632679489656 0.00000000000000000 0.00000000000000000 -1.00000000000000000 
1 0.00000000000000000 0.00000000000000000 1.00000000000000000 0.00000000000000000 
1 0.00000000000000000 -23.00000000000000000 1.00000000000000000 0.00000000000000000 
1 3.14160590275456286 0.00000000000000000 0.00000000000000000 -1.00000000000000000 
1 1.57079632679489678 0.00000000000000000 0.00000000000000000 -1.00000000000000000 
1 0.00000000000000000 0.00000000000000000 1.00000000000000000 0.00000000000000000 
1 0.00000000000000000 -23.00000000000000000 1.00000000000000000 0.00000000000000000 
1 3.14158027265902362 0.00000000000000000 0.00000000000000000 -1.00000000000000000 
1 1.57079632679489634 0.00000000000000000 0.00000000000000000 -1.00000000000000000 
1 0.00000000000000000 0.00000000000000000 1.00000000000000000 0.00000000000000000 
1 0.00000000000000000 -23.00000000000000000 1.00000000000000000 0.00000000000000000 
1 1.57079632679489567 0.00000000000000000 0.00000000000000000 -1.00000000000000000 
1 0.00000000000000000 0.00000000000000000 1.00000000000000000 0.00000000000000000 
1 0.00000000000000000 -23.00000000000000000 1.00000000000000000 0.00000000000000000 
Curves 24
1 140.70769130059645136 92.76210708473520583 27.00000000000000000 -0.00000000000000000 -0.00000000000000000 -1.00000000000000000 
1 244.26690381728303691 130.45446475413586995 27.00000000000000000 -0.00000000000000000 -0.00000000000000000 -1.00000000000000000 
1 140.70769130059645136 92.76210708473520583 0.00000000000000000 0.93969295082716997 0.34201923654339389 0.00000000000000000 
1 250.67548819194055909 127.46603178631131925 27.00000000000000000 -0.00000000000000000 -0.00000000000000000 -1.00000000000000000 
2 245.97700000000000387 125.75600000000002865 0.00000000000000000 -0.00000000000000000 0.00000000000000000 1.00000000000000000 0.34200635726225986 -0.93969763838811449 0.00000000000000000 0.93969763838811449 0.34200635726225986 0.00000000000000000 4.99999999999999467
1 281.52448819194063390 42.70523178631131600 27.00000000000000000 -0.00000000000000000 -0.00000000000000000 -1.00000000000000000 
1 250.67548819194055909 127.46603178631131925 0.00000000000000000 0.34200635726226047 -0.93969763838811426 0.00000000000000000 
1 278.53609593899113861 36.29673515715546728 27.00000000000000000 -0.00000000000000000 -0.00000000000000000 -1.00000000000000000 
2 276.82600000000002183 40.99520000000001119 0.00000000000000000 0.00000000000000000 0.00000000000000000 1.00000000000000000 -0.93969296856890550 -0.34201918779822582 0.00000000000000000 0.34201918779822582 -0.93969296856890550 0.00000000000000000 5.00000000000001421
1 141.04918162432403506 -13.74425093045997670 27.00000000000000000 -0.00000000000000000 -0.00000000000000000 -1.00000000000000000 
1 278.53609593899113861 36.29673515715546728 0.00000000000000000 -0.93969296856890561 -0.34201918779822543 0.00000000000000000 
1 137.62898291417570817 -13.74424844375712418 27.00000000000000000 -0.00000000000000000 -0.00000000000000000 -1.00000000000000000 
2 139.33908568533291827 -9.04578608761543279 0.00000000000000000 0.00000000000000000 0.00000000000000000 1.00000000000000000 -0.93969247122833621 0.34202055423144190 0.00000000000000000 -0.34202055423144190 -0.93969247122833621 0.00000000000000000 5.00000000000001421
1 0.36935722884280109 36.21423764385831845 27.00000000000000000 -0.00000000000000000 -0.00000000000000000 -1.00000000000000000 
1 0.36935722884280109 36.21423764385831845 0.00000000000000000 0.93969247122833621 -0.34202055423144184 0.00000000000000000 
1 -2.61897969829589572 42.62286502170903191 27.00000000000000000 -0.00000000000000000 -0.00000000000000000 -1.00000000000000000 
2 2.07946000000001163 40.91270000000000095 0.00000000000000000 0.00000000000000000 -0.00000000000000000 1.00000000000000000 0.34203300434180661 0.93968793965918163 0.00000000000000000 -0.93968793965918163 0.34203300434180661 0.00000000000000000 5.00000000000000000
1 28.23256030170409048 127.38316502170903277 27.00000000000000000 -0.00000000000000000 -0.00000000000000000 -1.00000000000000000 
1 28.23256030170409048 127.38316502170903277 0.00000000000000000 -0.34203300434180645 -0.93968793965918163 0.00000000000000000 
1 34.64110685052132510 130.37146087137054451 27.00000000000000000 -0.00000000000000000 -0.00000000000000000 -1.00000000000000000 
2 32.93099999999999739 125.67300000000000182 0.00000000000000000 -0.00000000000000000 0.00000000000000000 1.00000000000000000 0.93969217427410812 -0.34202137010426598 0.00000000000000000 0.34202137010426598 0.93969217427410812 0.00000000000000000 4.99999999999999822
1 137.97152887400579857 92.76211019094745325 27.00000000000000000 -0.00000000000000000 -0.00000000000000000 -1.00000000000000000 
1 34.64110685052132510 130.37146087137054451 0.00000000000000000 0.93969217427410812 -0.34202137010426603 0.00000000000000000 
2 139.33961435442287780 96.52087888804388172 0.00000000000000000 0.00000000000000000 0.00000000000000000 1.00000000000000000 -0.93969217427410801 0.34202137010426625 0.00000000000000000 -0.34202137010426625 -0.93969217427410801 0.00000000000000000 4.00000000000000000
Polygon3D 0
PolygonOnTriangulations 0
Surfaces 13
1 140.70769130059645136 92.76210708473520583 27.00000000000000000 0.34201923654339389 -0.93969295082716997 0.00000000000000000 0.93969295082716997 0.34201923654339389 0.00000000000000000 -0.00000000000000000 0.00000000000000000 1.00000000000000000 
2 139.33961435442287780 96.52087888804388172 27.00000000000000000 0.00000000000000000 0.00000000000000000 1.00000000000000000 -0.93969217427410801 0.34202137010426625 0.00000000000000000 -0.34202137010426625 -0.93969217427410801 0.00000000000000000 4.00000000000000000
2 245.97700000000000387 125.75600000000002865 27.00000000000000000 -0.00000000000000000 0.00000000000000000 1.00000000000000000 0.34200635726225986 -0.93969763838811449 0.00000000000000000 0.93969763838811449 0.34200635726225986 0.00000000000000000 4.99999999999999467
1 250.67548819194055909 127.46603178631131925 27.00000000000000000 -0.93969763838811426 -0.34200635726226047 0.00000000000000000 0.34200635726226047 -0.93969763838811426 0.00000000000000000 0.00000000000000000 0.00000000000000000 1.00000000000000000 
2 276.82600000000002183 40.99520000000001119 27.00000000000000000 0.00000000000000000 0.00000000000000000 1.00000000000000000 -0.93969296856890550 -0.34201918779822582 0.00000000000000000 0.34201918779822582 -0.93969296856890550 0.00000000000000000 5.00000000000001421
1 278.53609593899113861 36.29673515715546728 27.00000000000000000 -0.34201918779822543 0.93969296856890561 0.00000000000000000 -0.93969296856890561 -0.34201918779822543 0.00000000000000000 0.00000000000000000 0.00000000000000000 1.00000000000000000 
2 139.33908568533291827 -9.04578608761543279 27.00000000000000000 0.00000000000000000 0.00000000000000000 1.00000000000000000 -0.93969247122833621 0.34202055423144190 0.00000000000000000 -0.34202055423144190 -0.93969247122833621 0.00000000000000000 5.00000000000001421
1 0.36935722884280109 36.21423764385831845 27.00000000000000000 -0.34202055423144184 -0.93969247122833621 0.00000000000000000 0.93969247122833621 -0.34202055423144184 0.00000000000000000 0.00000000000000000 0.00000000000000000 1.00000000000000000 
2 2.07946000000001163 40.91270000000000095 27.00000000000000000 0.00000000000000000 -0.00000000000000000 1.00000000000000000 0.34203300434180661 0.93968793965918163 0.00000000000000000 -0.93968793965918163 0.34203300434180661 0.00000000000000000 5.00000000000000000
1 28.23256030170409048 127.38316502170903277 27.00000000000000000 -0.93968793965918163 0.34203300434180645 0.00000000000000000 -0.34203300434180645 -0.93968793965918163 0.00000000000000000 0.00000000000000000 0.00000000000000000 1.00000000000000000 
2 32.93099999999999739 125.67300000000000182 27.00000000000000000 -0.00000000000000000 0.00000000000000000 1.00000000000000000 0.93969217427410812 -0.34202137010426598 0.00000000000000000 0.34202137010426598 0.93969217427410812 0.00000000000000000 4.99999999999999822
1 34.64110685052132510 130.37146087137054451 27.00000000000000000 -0.34202137010426603 -0.93969217427410812 0.00000000000000000 0.93969217427410812 -0.34202137010426603 0.00000000000000000 0.00000000000000000 0.00000000000000000 1.00000000000000000 
1 139.45326267773188533 63.03345965436142251 27.00000000000000355 0.00000000000000000 0.00000000000000000 1.00000000000000000 1.00000000000000000 0.00000000000000000 -0.00000000000000000 -0.00000000000000000 1.00000000000000000 0.00000000000000000 
Triangulations 0

TShapes 64
Ve
0.000000100000000
140.707691300596451 92.762107084735206 0.000000000000000
0 0

0101101
*
Ed
 0.000000100000000 1 1 0
1  1 0 0.000000000000000 23.000000000000000
2  1 2 0 0.000000000000000 23.000000000000000
4 G1 1 0 2 0
0

0101000
+64 4 -64 6 *
Ve
0.000000100000000
244.266903817283037 130.454464754135870 0.000000000000000
0 0

0101101
*
Ed
 0.000000100000000 1 1 0
1  2 0 0.000000000000000 23.000000000000000
2  2 3 0 0.000000000000000 23.000000000000000
4 G1 1 0 3 0
0

0101000
+62 4 -62 6 *
Ed
 0.000000100000000 1 1 0
1  3 0 0.000000000000000 110.205373388752164
0

0101000
+64 0 -62 0 *
Wi

0101100
+63 0 -61 0 -60 4 +60 6 *
Fa
0  0.000000100000000 1 0

0111000
+59 0 *
Ve
0.000000100000000
250.675488191940559 127.466031786311319 0.000000000000000
0 0

0101101
*
Ed
 0.000000100000000 1 1 0
1  4 0 0.000000000000000 23.000000000000000
2  3 3 0 0.000000000000000 23.000000000000000
4 G1 3 0 4 0
0

0101000
+57 4 -57 6 *
Ed
 0.000000100000000 1 1 0
1  5 0 1.570796326794896 3.141606359395502
2  4 3 7 1.570796326794896 3.141606359395502
2  5 3 8 1.570796326794896 3.141606359395502
0

0101000
+57 0 -62 0 *
Wi

0101100
+56 0 -61 0 -55 4 +55 6 *
Fa
0  0.000000100000000 3 0

0111000
+54 0 *
Ve
0.000000100000000
281.524488191940634 42.705231786311316 0.000000000000000
0 0

0101101
*
Ed
 0.000000100000000 1 1 0
1  6 0 0.000000000000000 23.000000000000000
2  6 5 0 0.000000000000000 23.000000000000000
4 G1 4 0 5 0
0

0101000
+52 4 -52 6 *
Ed
 0.000000100000000 1 1 0
1  7 0 0.000000000000000 90.200077703070775
0

0101000
+57 0 -52 0 *
Wi

0101100
+56 0 -51 0 -50 4 +50 6 *
Fa
0  0.000000100000000 4 0

0111000
+49 0 *
Ve
0.000000100000000
278.536095938991139 36.296735157155467 0.000000000000000
0 0

0101101
*
Ed
 0.000000100000000 1 1 0
1  8 0 0.000000000000000 23.000000000000000
2  7 5 0 0.000000000000000 23.000000000000000
4 G1 5 0 6 0
0

0101000
+47 4 -47 6 *
Ed
 0.000000100000000 1 1 0
1  9 0 1.570796326794896 3.141578999657590
2  8 5 7 1.570796326794896 3.141578999657590
2  9 5 8 1.570796326794896 3.141578999657590
0

0101000
+47 0 -52 0 *
Wi

0101100
+46 0 -51 0 -45 4 +45 6 *
Fa
0  0.000000100000000 5 0

0111000
+44 0 *
Ve
0.000000100000000
141.049181624324035 -13.744250930459977 0.000000000000000
0 0

0101101
*
Ed
 0.000000100000000 1 1 0
1  10 0 0.000000000000000 23.000000000000000
2  10 7 0 0.000000000000000 23.000000000000000
4 G1 6 0 7 0
0

0101000
+42 4 -42 6 *
Ed
 0.000000100000000 1 1 0
1  11 0 0.000000000000000 146.310464070036829
0

0101000
+47 0 -42 0 *
Wi

0101100
+46 0 -41 0 -40 4 +40 6 *
Fa
0  0.000000100000000 6 0

0111000
+39 0 *
Ve
0.000000100000002
137.628982914175708 -13.744248443757124 0.000000000000000
0 0

0101101
*
Ed
 0.000000100000002 1 1 0
1  12 0 0.000000000000000 23.000000000000000
2  11 7 0 0.000000000000000 23.000000000000000
4 G1 7 0 8 0
0

0101000
+37 4 -37 6 *
Ed
 0.000000100000000 1 1 0
1  13 0 1.570796326794897 2.268927448018575
2  12 7 7 1.570796326794897 2.268927448018575
2  13 7 8 1.570796326794897 2.268927448018575
0

0101000
+37 0 -42 0 *
Wi

0101100
+36 0 -41 0 -35 4 +35 6 *
Fa
0  0.000000100000000 7 0

0111000
+34 0 *
Ve
0.000000100000000
0.369357228842801 36.214237643858318 0.000000000000000
0 0

0101101
*
Ed
 0.000000100000000 1 1 0
1  14 0 0.000000000000000 23.000000000000000
2  14 9 0 0.000000000000000 23.000000000000000
4 G1 8 0 9 0
0

0101000
+32 4 -32 6 *
Ed
 0.000000100000000 1 1 0
1  15 0 0.000000000000000 146.068665960376876
0

0101000
+32 0 -37 0 *
Wi

0101100
+31 0 -36 0 -30 4 +30 6 *
Fa
0  0.000000100000000 8 0

0111000
+29 0 *
Ve
0.000000100000000
-2.618979698295896 42.622865021709032 0.000000000000000
0 0

0101101
*
Ed
 0.000000100000000 1 1 0
1  16 0 0.000000000000000 23.000000000000000
2  15 9 0 0.000000000000000 23.000000000000000
4 G1 9 0 10 0
0

0101000
+27 4 -27 6 *
Ed
 0.000000100000000 1 1 0
1  17 0 1.570796326794897 3.141605902754563
2  16 9 7 1.570796326794897 3.141605902754563
2  17 9 8 1.570796326794897 3.141605902754563
0

0101000
+27 0 -32 0 *
Wi

0101100
+26 0 -31 0 -25 4 +25 6 *
Fa
0  0.000000100000000 9 0

0111000
+24 0 *
Ve
0.000000100000000
28.232560301704090 127.383165021709033 0.000000000000000
0 0

0101101
*
Ed
 0.000000100000000 1 1 0
1  18 0 0.000000000000000 23.000000000000000
2  18 11 0 0.000000000000000 23.000000000000000
4 G1 10 0 11 0
0

0101000
+22 4 -22 6 *
Ed
 0.000000100000000 1 1 0
1  19 0 0.000000000000000 90.200476586665545
0

0101000
+22 0 -27 0 *
Wi

0101100
+21 0 -26 0 -20 4 +20 6 *
Fa
0  0.000000100000000 10 0

0111000
+19 0 *
Ve
0.000000100000000
34.641106850521325 130.371460871370545 0.000000000000000
0 0

0101101
*
Ed
 0.000000100000000 1 1 0
1  20 0 0.000000000000000 23.000000000000000
2  19 11 0 0.000000000000000 23.000000000000000
4 G1 11 0 12 0
0

0101000
+17 4 -17 6 *
Ed
 0.000000100000000 1 1 0
1  21 0 1.570796326794896 3.141580272659024
2  20 11 7 1.570796326794896 3.141580272659024
2  21 11 8 1.570796326794896 3.141580272659024
0

0101000
+17 0 -22 0 *
Wi

0101100
+16 0 -21 0 -15 4 +15 6 *
Fa
0  0.000000100000000 11 0

0111000
+14 0 *
Ve
0.000000100000000
137.971528874005799 92.762110190947453 0.000000000000000
0 0

0101101
*
Ed
 0.000000100000000 1 1 0
1  22 0 0.000000000000000 23.000000000000000
2  22 2 0 0.000000000000000 23.000000000000000
4 G1 12 0 2 0
0

0101000
+12 4 -12 6 *
Ed
 0.000000100000000 1 1 0
1  23 0 0.000000000000000 109.961990588359413
0

0101000
+17 0 -12 0 *
Wi

0101100
+16 0 -11 0 -10 4 +10 6 *
Fa
0  0.000000100000000 12 0

0111000
+9 0 *
Ed
 0.000000100000000 1 1 0
1  24 0 1.570796326794896 2.268928368126081
2  23 2 7 1.570796326794896 2.268928368126081
2  24 2 8 1.570796326794896 2.268928368126081
0

0101000
+12 0 -64 0 *
Wi

0101100
+11 0 -63 0 -7 4 +7 6 *
Fa
0  0.000000100000000 2 0

0111000
+6 0 *
Wi

0101100
+60 0 -55 0 +50 0 -45 0 +40 0 -35 0 -30 0 -25 0 -20 0 -15 0 
+10 0 +7 0 *
Fa
0  0.000000100000000 13 0

0111000
-4 10 *
Sh

0101100
-58 0 +53 0 -48 0 +43 0 -38 0 +33 0 +28 0 +23 0 +18 0 +13 0 
-8 0 -5 0 +3 9 -3 11 *
So

1100000
+2 0 *

+1 0 