
CASCADE Topology V1, (c) Matra-Datavision
Locations 25
1
1.000000000000000 0.000000000000000 0.000000000000000 0.000000000000000 
0.000000000000000 1.000000000000000 0.000000000000000 0.000000000000000 
0.000000000000000 0.000000000000000 1.000000000000000 0.000000000000000 
1
1.000000000000000 0.000000000000000 0.000000000000000 0.000000000000000 
0.000000000000000 1.000000000000000 0.000000000000000 0.000000000000000 
0.000000000000000 0.000000000000000 1.000000000000000 0.000000000000000 
1
1.000000000000000 0.000000000000000 0.000000000000000 0.000000000000000 
0.000000000000000 1.000000000000000 0.000000000000000 0.000000000000000 
0.000000000000000 0.000000000000000 1.000000000000000 0.000000000000000 
2  2 1 3 -1 0
1
1.000000000000000 0.000000000000000 0.000000000000000 0.000000000000000 
0.000000000000000 1.000000000000000 0.000000000000000 0.000000000000000 
0.000000000000000 0.000000000000000 1.000000000000000 0.000000000000000 
1
1.000000000000000 0.000000000000000 0.000000000000000 0.000000000000000 
0.000000000000000 1.000000000000000 0.000000000000000 0.000000000000000 
0.000000000000000 0.000000000000000 1.000000000000000 0.000000000000000 
1
1.000000000000000 0.000000000000000 0.000000000000000 0.000000000000000 
0.000000000000000 1.000000000000000 0.000000000000000 0.000000000000000 
0.000000000000000 0.000000000000000 1.000000000000000 0.000000000000000 
2  5 1 6 1 7 -1 0
1
1.000000000000000 0.000000000000000 0.000000000000000 0.000000000000000 
0.000000000000000 1.000000000000000 0.000000000000000 0.000000000000000 
0.000000000000000 0.000000000000000 1.000000000000000 27.000000000000000 
2  5 1 6 1 7 -1 9 1 0
2  7 1 6 -1 5 -1 0
2  9 -1 7 1 6 -1 5 -1 0
2  7 -1 2 1 3 -1 0
2  5 1 6 1 0
2  7 -1 9 1 2 1 3 -1 0
2  5 1 6 1 7 -1 9 1 2 1 3 -1 0
1
1.000000000000000 0.000000000000000 0.000000000000000 0.000000000000000 
0.000000000000000 1.000000000000000 0.000000000000000 0.000000000000000 
0.000000000000000 0.000000000000000 1.000000000000000 0.000000000000000 
1
1.000000000000000 0.000000000000000 0.000000000000000 0.000000000000000 
0.000000000000000 1.000000000000000 0.000000000000000 0.000000000000000 
0.000000000000000 0.000000000000000 1.000000000000000 27.000000000000000 
2  17 1 18 1 3 -1 0
2  3 1 18 -1 17 -1 0
1
1.000000000000000 0.000000000000000 0.000000000000000 -0.000000000000000 
0.000000000000000 1.000000000000000 0.000000000000000 -0.000000000000000 
0.000000000000000 0.000000000000000 1.000000000000000 -23.000000000000000 
2  21 -1 3 1 18 -1 17 -1 0
2  17 1 18 1 3 -1 21 1 0
2  3 -1 21 1 0
2  17 1 18 1 0
Curve2ds 44
1 3.14160635939550215 0.00000000000000000 0.00000000000000000 -1.00000000000000000 
1 1.57079632679490455 0.00000000000000000 0.00000000000000000 -1.00000000000000000 
1 1.57079632679489656 0.00000000000000000 0.00000000000000000 -1.00000000000000000 
1 0.00000000000000000 0.00000000000000000 1.00000000000000000 0.00000000000000000 
1 0.00000000000000000 -27.00000000000000000 1.00000000000000000 0.00000000000000000 
1 0.00000000000000000 0.00000000000000000 1.00000000000000000 0.00000000000000000 
1 0.00000000000000000 -27.00000000000000000 1.00000000000000000 0.00000000000000000 
1 0.00000000000000000 0.00000000000000000 1.00000000000000000 0.00000000000000000 
1 0.00000000000000000 -27.00000000000000000 1.00000000000000000 0.00000000000000000 
1 0.00000000000000000 0.00000000000000000 1.00000000000000000 0.00000000000000000 
1 0.00000000000000000 -27.00000000000000000 1.00000000000000000 0.00000000000000000 
1 0.00000000000000000 0.00000000000000000 1.00000000000000000 0.00000000000000000 
1 0.00000000000000000 -27.00000000000000000 1.00000000000000000 0.00000000000000000 
1 0.00000000000000000 0.00000000000000000 1.00000000000000000 0.00000000000000000 
1 0.00000000000000000 -23.00000000000000000 1.00000000000000000 0.00000000000000000 
1 0.00000000000000000 0.00000000000000000 1.00000000000000000 0.00000000000000000 
1 0.00000000000000000 -23.00000000000000000 1.00000000000000000 0.00000000000000000 
1 0.00000000000000000 0.00000000000000000 1.00000000000000000 0.00000000000000000 
1 0.00000000000000000 -23.00000000000000000 1.00000000000000000 0.00000000000000000 
1 0.00000000000000000 0.00000000000000000 1.00000000000000000 0.00000000000000000 
1 0.00000000000000000 -23.00000000000000000 1.00000000000000000 0.00000000000000000 
1 0.00000000000000000 0.00000000000000000 1.00000000000000000 0.00000000000000000 
1 0.00000000000000000 -23.00000000000000000 1.00000000000000000 0.00000000000000000 
1 0.00000000000000000 0.00000000000000000 1.00000000000000000 0.00000000000000000 
1 0.00000000000000000 -23.00000000000000000 1.00000000000000000 0.00000000000000000 
1 3.14158027265902362 0.00000000000000000 0.00000000000000000 -1.00000000000000000 
1 3.14157899965758958 0.00000000000000000 0.00000000000000000 -1.00000000000000000 
1 1.57079632679489656 0.00000000000000000 0.00000000000000000 -1.00000000000000000 
1 2.26892744801857482 0.00000000000000000 0.00000000000000000 -1.00000000000000000 
1 1.57079632679489656 0.00000000000000000 0.00000000000000000 -1.00000000000000000 
1 3.14160590275456286 0.00000000000000000 0.00000000000000000 -1.00000000000000000 
1 1.57079632679489678 0.00000000000000000 0.00000000000000000 -1.00000000000000000 
1 1.57079632679489567 0.00000000000000000 0.00000000000000000 -1.00000000000000000 
1 2.26892836812608145 0.00000000000000000 0.00000000000000000 -1.00000000000000000 
1 1.57079632679489634 0.00000000000000000 0.00000000000000000 -1.00000000000000000 
1 3.14158027265902362 0.00000000000000000 0.00000000000000000 -1.00000000000000000 
1 1.57079632679489678 0.00000000000000000 0.00000000000000000 -1.00000000000000000 
1 3.14160590275456286 0.00000000000000000 0.00000000000000000 -1.00000000000000000 
1 1.57079632679489656 0.00000000000000000 0.00000000000000000 -1.00000000000000000 
1 2.26892744801857482 0.00000000000000000 0.00000000000000000 -1.00000000000000000 
1 1.57079632679489589 0.00000000000000000 0.00000000000000000 -1.00000000000000000 
1 3.14157899965758958 0.00000000000000000 0.00000000000000000 -1.00000000000000000 
1 1.57079632679489611 0.00000000000000000 0.00000000000000000 -1.00000000000000000 
1 3.14160635939550215 0.00000000000000000 0.00000000000000000 -1.00000000000000000 
Curves 46
1 139.33961435442287780 96.52087888804388172 0.00000000000000000 0.00000000000000000 0.00000000000000000 1.00000000000000000 
1 242.89882687110946335 134.21323655744456005 0.00000000000000000 0.00000000000000000 0.00000000000000000 1.00000000000000000 
1 139.33961435442287780 96.52087888804388172 0.00000000000000000 0.93969295082716997 0.34201923654339400 0.00000000000000000 
1 36.00919233093832617 134.13022956846700140 0.00000000000000000 0.00000000000000000 0.00000000000000000 1.00000000000000000 
1 36.00919233093832617 134.13022956846700140 0.00000000000000000 0.93969217427410812 -0.34202137010426603 0.00000000000000000 
1 254.43427874549303169 128.83405721536036026 0.00000000000000000 0.00000000000000000 0.00000000000000000 1.00000000000000000 
2 245.97700000000000387 125.75600000000002865 0.00000000000000000 -0.00000000000000000 0.00000000000000000 1.00000000000000000 0.34200635726225986 -0.93969763838811449 0.00000000000000000 0.93969763838811449 0.34200635726225986 0.00000000000000000 9.00000000000000355
1 254.43427874549303169 128.83405721536036026 0.00000000000000000 0.34200635726225959 -0.93969763838811460 0.00000000000000000 
2 276.82600000000002183 40.99520000000001119 0.00000000000000000 0.00000000000000000 0.00000000000000000 1.00000000000000000 -0.93969296856890550 -0.34201918779822582 0.00000000000000000 0.34201918779822582 -0.93969296856890550 0.00000000000000000 8.99999999999998934
1 279.90417269018405477 32.53796328287987194 0.00000000000000000 -0.93969296856890561 -0.34201918779822560 0.00000000000000000 
2 139.33908568533291827 -9.04578608761542569 0.00000000000000000 0.00000000000000000 0.00000000000000000 1.00000000000000000 -0.93969247122833621 0.34202055423144190 0.00000000000000000 -0.34202055423144190 -0.93969247122833621 0.00000000000000000 9.00000000000001243
1 -0.99872498808296806 32.45546775894497671 0.00000000000000000 0.93969247122833621 -0.34202055423144190 0.00000000000000000 
2 2.07946000000001163 40.91270000000000095 0.00000000000000000 0.00000000000000000 -0.00000000000000000 1.00000000000000000 0.34203300434180661 0.93968793965918163 0.00000000000000000 -0.93968793965918163 0.34203300434180661 0.00000000000000000 9.00000000000000178
1 24.47380854306736353 128.75129703907626322 0.00000000000000000 -0.34203300434180645 -0.93968793965918163 0.00000000000000000 
2 32.93099999999999739 125.67300000000000182 0.00000000000000000 -0.00000000000000000 0.00000000000000000 1.00000000000000000 0.93969217427410812 -0.34202137010426598 0.00000000000000000 0.34202137010426598 0.93969217427410812 0.00000000000000000 8.99999999999999822
2 139.33961435442287780 96.52087888804388172 0.00000000000000000 0.00000000000000000 0.00000000000000000 1.00000000000000000 -0.93969217427410801 0.34202137010426625 0.00000000000000000 -0.34202137010426625 -0.93969217427410801 0.00000000000000000 4.00000000000000000
1 34.64110685052132510 130.37146087137054451 0.00000000000000000 0.93969217427410812 -0.34202137010426603 0.00000000000000000 
2 32.93099999999999739 125.67300000000000182 0.00000000000000000 -0.00000000000000000 0.00000000000000000 1.00000000000000000 0.93969217427410812 -0.34202137010426598 0.00000000000000000 0.34202137010426598 0.93969217427410812 0.00000000000000000 4.99999999999999822
1 28.23256030170409048 127.38316502170903277 0.00000000000000000 -0.34203300434180645 -0.93968793965918163 0.00000000000000000 
2 2.07946000000001163 40.91270000000000095 0.00000000000000000 0.00000000000000000 -0.00000000000000000 1.00000000000000000 0.34203300434180661 0.93968793965918163 0.00000000000000000 -0.93968793965918163 0.34203300434180661 0.00000000000000000 5.00000000000000000
1 0.36935722884280109 36.21423764385831845 0.00000000000000000 0.93969247122833621 -0.34202055423144184 0.00000000000000000 
2 139.33908568533291827 -9.04578608761543279 0.00000000000000000 0.00000000000000000 0.00000000000000000 1.00000000000000000 -0.93969247122833621 0.34202055423144190 0.00000000000000000 -0.34202055423144190 -0.93969247122833621 0.00000000000000000 5.00000000000001421
1 278.53609593899113861 36.29673515715546728 0.00000000000000000 -0.93969296856890561 -0.34201918779822543 0.00000000000000000 
2 276.82600000000002183 40.99520000000001119 0.00000000000000000 0.00000000000000000 0.00000000000000000 1.00000000000000000 -0.93969296856890550 -0.34201918779822582 0.00000000000000000 0.34201918779822582 -0.93969296856890550 0.00000000000000000 5.00000000000001421
1 250.67548819194055909 127.46603178631131925 0.00000000000000000 0.34200635726226047 -0.93969763838811426 0.00000000000000000 
2 245.97700000000000387 125.75600000000002865 0.00000000000000000 -0.00000000000000000 0.00000000000000000 1.00000000000000000 0.34200635726225986 -0.93969763838811449 0.00000000000000000 0.93969763838811449 0.34200635726225986 0.00000000000000000 4.99999999999999467
1 140.70769130059645136 92.76210708473520583 0.00000000000000000 0.93969295082716997 0.34201923654339389 0.00000000000000000 
1 24.47380854306736353 128.75129703907626322 0.00000000000000000 0.00000000000000000 0.00000000000000000 1.00000000000000000 
1 285.28327874549302123 44.07325721536034280 0.00000000000000000 0.00000000000000000 0.00000000000000000 1.00000000000000000 
1 279.90417269018405477 32.53796328287987194 0.00000000000000000 0.00000000000000000 0.00000000000000000 1.00000000000000000 
1 142.41725837551695122 -17.50302280473559335 0.00000000000000000 0.00000000000000000 0.00000000000000000 1.00000000000000000 
1 136.26090069724992304 -17.50301832867046414 0.00000000000000000 0.00000000000000000 0.00000000000000000 1.00000000000000000 
1 -0.99872498808296806 32.45546775894497671 0.00000000000000000 0.00000000000000000 0.00000000000000000 1.00000000000000000 
1 -6.37773145693262311 43.99099703907626235 0.00000000000000000 0.00000000000000000 0.00000000000000000 1.00000000000000000 
1 137.97152887400579857 92.76211019094745325 27.00000000000000000 -0.00000000000000000 -0.00000000000000000 -1.00000000000000000 
1 140.70769130059645136 92.76210708473520583 27.00000000000000000 -0.00000000000000000 -0.00000000000000000 -1.00000000000000000 
1 34.64110685052132510 130.37146087137054451 27.00000000000000000 -0.00000000000000000 -0.00000000000000000 -1.00000000000000000 
1 28.23256030170409048 127.38316502170903277 27.00000000000000000 -0.00000000000000000 -0.00000000000000000 -1.00000000000000000 
1 -2.61897969829589572 42.62286502170903191 27.00000000000000000 -0.00000000000000000 -0.00000000000000000 -1.00000000000000000 
1 0.36935722884280109 36.21423764385831845 27.00000000000000000 -0.00000000000000000 -0.00000000000000000 -1.00000000000000000 
1 137.62898291417570817 -13.74424844375712418 27.00000000000000000 -0.00000000000000000 -0.00000000000000000 -1.00000000000000000 
1 141.04918162432403506 -13.74425093045997670 27.00000000000000000 -0.00000000000000000 -0.00000000000000000 -1.00000000000000000 
1 278.53609593899113861 36.29673515715546728 27.00000000000000000 -0.00000000000000000 -0.00000000000000000 -1.00000000000000000 
1 281.52448819194063390 42.70523178631131600 27.00000000000000000 -0.00000000000000000 -0.00000000000000000 -1.00000000000000000 
1 250.67548819194055909 127.46603178631131925 27.00000000000000000 -0.00000000000000000 -0.00000000000000000 -1.00000000000000000 
1 244.26690381728303691 130.45446475413586995 27.00000000000000000 -0.00000000000000000 -0.00000000000000000 -1.00000000000000000 
Polygon3D 0
PolygonOnTriangulations 0
Surfaces 25
1 139.33961435442287780 96.52087888804388172 0.00000000000000000 -0.34201923654339400 0.93969295082716997 0.00000000000000000 0.93969295082716997 0.34201923654339400 0.00000000000000000 0.00000000000000000 0.00000000000000000 -1.00000000000000000 
2 245.97700000000000387 125.75600000000002865 0.00000000000000000 0.00000000000000000 -0.00000000000000000 -1.00000000000000000 0.34200635726225986 -0.93969763838811449 0.00000000000000000 0.93969763838811449 0.34200635726225986 -0.00000000000000000 9.00000000000000355
1 36.00919233093832617 134.13022956846700140 0.00000000000000000 0.34202137010426603 0.93969217427410812 -0.00000000000000000 0.93969217427410812 -0.34202137010426603 0.00000000000000000 0.00000000000000000 -0.00000000000000000 -1.00000000000000000 
2 32.93099999999999739 125.67300000000000182 0.00000000000000000 0.00000000000000000 -0.00000000000000000 -1.00000000000000000 0.93969217427410812 -0.34202137010426598 0.00000000000000000 0.34202137010426598 0.93969217427410812 -0.00000000000000000 8.99999999999999822
1 254.43427874549303169 128.83405721536036026 0.00000000000000000 0.93969763838811460 0.34200635726225959 -0.00000000000000000 0.34200635726225959 -0.93969763838811460 0.00000000000000000 0.00000000000000000 -0.00000000000000000 -1.00000000000000000 
1 139.45325949719725145 63.34132158441180138 0.00000000000000000 0.00000000000000000 0.00000000000000000 1.00000000000000000 1.00000000000000000 0.00000000000000000 -0.00000000000000000 -0.00000000000000000 1.00000000000000000 0.00000000000000000 
2 276.82600000000002183 40.99520000000001119 0.00000000000000000 -0.00000000000000000 -0.00000000000000000 -1.00000000000000000 -0.93969296856890550 -0.34201918779822582 0.00000000000000000 0.34201918779822582 -0.93969296856890550 -0.00000000000000000 8.99999999999998934
2 139.33908568533291827 -9.04578608761542569 0.00000000000000000 -0.00000000000000000 -0.00000000000000000 -1.00000000000000000 -0.93969247122833621 0.34202055423144190 0.00000000000000000 -0.34202055423144190 -0.93969247122833621 0.00000000000000000 9.00000000000001243
2 2.07946000000001163 40.91270000000000095 0.00000000000000000 -0.00000000000000000 0.00000000000000000 -1.00000000000000000 0.34203300434180661 0.93968793965918163 0.00000000000000000 -0.93968793965918163 0.34203300434180661 0.00000000000000000 9.00000000000000178
2 139.33961435442287780 96.52087888804388172 27.00000000000000000 0.00000000000000000 0.00000000000000000 1.00000000000000000 -0.93969217427410801 0.34202137010426625 0.00000000000000000 -0.34202137010426625 -0.93969217427410801 0.00000000000000000 4.00000000000000000
2 32.93099999999999739 125.67300000000000182 27.00000000000000000 -0.00000000000000000 0.00000000000000000 1.00000000000000000 0.93969217427410812 -0.34202137010426598 0.00000000000000000 0.34202137010426598 0.93969217427410812 0.00000000000000000 4.99999999999999822
2 2.07946000000001163 40.91270000000000095 27.00000000000000000 0.00000000000000000 -0.00000000000000000 1.00000000000000000 0.34203300434180661 0.93968793965918163 0.00000000000000000 -0.93968793965918163 0.34203300434180661 0.00000000000000000 5.00000000000000000
2 139.33908568533291827 -9.04578608761543279 27.00000000000000000 0.00000000000000000 0.00000000000000000 1.00000000000000000 -0.93969247122833621 0.34202055423144190 0.00000000000000000 -0.34202055423144190 -0.93969247122833621 0.00000000000000000 5.00000000000001421
2 276.82600000000002183 40.99520000000001119 27.00000000000000000 0.00000000000000000 0.00000000000000000 1.00000000000000000 -0.93969296856890550 -0.34201918779822582 0.00000000000000000 0.34201918779822582 -0.93969296856890550 0.00000000000000000 5.00000000000001421
2 245.97700000000000387 125.75600000000002865 27.00000000000000000 -0.00000000000000000 0.00000000000000000 1.00000000000000000 0.34200635726225986 -0.93969763838811449 0.00000000000000000 0.93969763838811449 0.34200635726225986 0.00000000000000000 4.99999999999999467
1 24.47380854306736353 128.75129703907626322 0.00000000000000000 0.93968793965918163 -0.34203300434180645 0.00000000000000000 -0.34203300434180645 -0.93968793965918163 0.00000000000000000 0.00000000000000000 -0.00000000000000000 -1.00000000000000000 
1 279.90417269018405477 32.53796328287987194 0.00000000000000000 0.34201918779822560 -0.93969296856890561 0.00000000000000000 -0.93969296856890561 -0.34201918779822560 0.00000000000000000 0.00000000000000000 -0.00000000000000000 -1.00000000000000000 
1 -0.99872498808296806 32.45546775894497671 0.00000000000000000 0.34202055423144190 0.93969247122833621 -0.00000000000000000 0.93969247122833621 -0.34202055423144190 0.00000000000000000 0.00000000000000000 -0.00000000000000000 -1.00000000000000000 
1 34.64110685052132510 130.37146087137054451 27.00000000000000000 -0.34202137010426603 -0.93969217427410812 0.00000000000000000 0.93969217427410812 -0.34202137010426603 0.00000000000000000 0.00000000000000000 0.00000000000000000 1.00000000000000000 
1 140.70769130059645136 92.76210708473520583 27.00000000000000000 0.34201923654339389 -0.93969295082716997 0.00000000000000000 0.93969295082716997 0.34201923654339389 0.00000000000000000 -0.00000000000000000 0.00000000000000000 1.00000000000000000 
1 28.23256030170409048 127.38316502170903277 27.00000000000000000 -0.93968793965918163 0.34203300434180645 0.00000000000000000 -0.34203300434180645 -0.93968793965918163 0.00000000000000000 0.00000000000000000 0.00000000000000000 1.00000000000000000 
1 0.36935722884280109 36.21423764385831845 27.00000000000000000 -0.34202055423144184 -0.93969247122833621 0.00000000000000000 0.93969247122833621 -0.34202055423144184 0.00000000000000000 0.00000000000000000 0.00000000000000000 1.00000000000000000 
1 278.53609593899113861 36.29673515715546728 27.00000000000000000 -0.34201918779822543 0.93969296856890561 0.00000000000000000 -0.93969296856890561 -0.34201918779822543 0.00000000000000000 0.00000000000000000 0.00000000000000000 1.00000000000000000 
1 250.67548819194055909 127.46603178631131925 27.00000000000000000 -0.93969763838811426 -0.34200635726226047 0.00000000000000000 0.34200635726226047 -0.93969763838811426 0.00000000000000000 0.00000000000000000 0.00000000000000000 1.00000000000000000 
1 139.45326267773188533 63.03345965436142251 27.00000000000000355 0.00000000000000000 0.00000000000000000 1.00000000000000000 1.00000000000000000 0.00000000000000000 -0.00000000000000000 -0.00000000000000000 1.00000000000000000 0.00000000000000000 
Triangulations 0

TShapes 149
Ve
0.000000100000000
139.339614354422878 96.520878888043882 0.000000000000000
0 0

0101101
*
Ed
 0.000000100000000 1 1 0
1  1 0 0.000000000000000 27.000000000000000
0

0101000
+149 8 -149 10 *
Ve
0.000000100000000
242.898826871109463 134.213236557444560 0.000000000000000
0 0

0101101
*
Ed
 0.000000100000000 1 1 0
1  2 0 0.000000000000000 27.000000000000000
2  1 2 0 0.000000000000000 27.000000000000000
4 G1 1 0 2 0
0

0101000
+147 8 -147 10 *
Ed
 0.000000100000000 1 1 0
1  3 0 0.000000000000000 110.205373388752164
0

0101000
+149 0 -147 0 *
Wi

0101100
+148 0 -146 0 -145 8 +145 10 *
Fa
0  0.000000100000000 1 0

0111000
+144 0 *
Ve
0.000000100000000
36.009192330938326 134.130229568467001 0.000000000000000
0 0

0101101
*
Ed
 0.000000100000000 1 1 0
1  4 0 0.000000000000000 27.000000000000000
2  2 4 0 0.000000000000000 27.000000000000000
4 G1 4 0 3 0
0

0101000
+142 8 -142 10 *
Ed
 0.000000100000000 1 1 0
1  5 0 0.000000000000000 109.961990588359498
0

0101000
+142 0 -149 0 *
Wi

0101100
+141 0 -148 0 -140 8 +140 10 *
Fa
0  0.000000100000000 3 0

0111000
+139 0 *
Ve
0.000000100000000
254.434278745493032 128.834057215360360 0.000000000000000
0 0

0101101
*
Ed
 0.000000100000000 1 1 0
1  6 0 0.000000000000000 27.000000000000000
2  3 2 0 0.000000000000000 27.000000000000000
4 G1 2 0 5 0
0

0101000
+137 8 -137 10 *
Ed
 0.000000100000000 1 1 0
1  7 0 1.570796326794897 3.141606359395502
2  4 2 11 1.570796326794897 3.141606359395502
2  5 2 12 1.570796326794897 3.141606359395502
0

0101000
+137 0 -147 0 *
Wi

0101100
+136 0 -146 0 -135 8 +135 10 *
Fa
0  0.000000100000000 2 0

0111000
+134 0 *
Ve
0.000000100000000
285.283278745493021 44.073257215360343 0.000000000000000
0 0

0101101
*
Ed
 0.000000100000000 1 1 0
1  8 0 0.000000000000000 90.200077703070761
0

0101000
+137 0 -132 0 *
Ve
0.000000100000000
279.904172690184055 32.537963282879872 0.000000000000000
0 0

0101101
*
Ed
 0.000000100000000 1 1 0
1  9 0 1.570796326794897 3.141578999657590
2  6 7 11 1.570796326794897 3.141578999657590
2  7 7 12 1.570796326794897 3.141578999657590
0

0101000
+130 0 -132 0 *
Ve
0.000000100000002
142.417258375516951 -17.503022804735593 0.000000000000000
0 0

0101101
*
Ed
 0.000000100000000 1 1 0
1  10 0 0.000000000000000 146.310464070036829
0

0101000
+130 0 -128 0 *
Ve
0.000000100000000
136.260900697249923 -17.503018328670464 0.000000000000000
0 0

0101101
*
Ed
 0.000000100000000 1 1 0
1  11 0 1.570796326794897 2.268927448018575
2  8 8 11 1.570796326794897 2.268927448018575
2  9 8 12 1.570796326794897 2.268927448018575
0

0101000
+126 0 -128 0 *
Ve
0.000000100000000
-0.998724988082968 32.455467758944977 0.000000000000000
0 0

0101101
*
Ed
 0.000000100000000 1 1 0
1  12 0 0.000000000000000 146.068665960376876
0

0101000
+124 0 -126 0 *
Ve
0.000000100000001
-6.377731456932623 43.990997039076262 0.000000000000000
0 0

0101101
*
Ed
 0.000000100000000 1 1 0
1  13 0 1.570796326794897 3.141605902754563
2  10 9 11 1.570796326794897 3.141605902754563
2  11 9 12 1.570796326794897 3.141605902754563
0

0101000
+122 0 -124 0 *
Ve
0.000000100000000
24.473808543067364 128.751297039076263 0.000000000000000
0 0

0101101
*
Ed
 0.000000100000000 1 1 0
1  14 0 0.000000000000000 90.200476586665545
0

0101000
+120 0 -122 0 *
Ed
 0.000000100000000 1 1 0
1  15 0 1.570796326794905 3.141580272659024
2  12 4 11 1.570796326794905 3.141580272659024
2  13 4 12 1.570796326794905 3.141580272659024
0

0101000
+142 0 -120 0 *
Wi

0101100
+145 0 -135 0 +131 0 -129 0 +127 0 -125 0 -123 0 -121 0 -119 0 -118 0 
+140 0 *
Fa
0  0.000000100000000 6 0

0111000
-117 14 *
Wi

0101100
-145 16 -140 16 +135 16 +118 16 -131 16 +119 16 +129 16 +121 16 -127 16 +123 16 
+125 16 *
Ve
0.000000100000000
137.971528874005799 92.762110190947453 27.000000000000000
0 0

0101101
*
Ve
0.000000100000000
140.707691300596451 92.762107084735206 27.000000000000000
0 0

0101101
*
Ed
 0.000000100000000 1 1 0
1  16 0 1.570796326794896 2.268928368126081
2  14 10 20 1.570796326794896 2.268928368126081
2  15 10 22 1.570796326794896 2.268928368126081
0

0101000
+114 20 -113 20 *
Ve
0.000000100000000
34.641106850521325 130.371460871370545 27.000000000000000
0 0

0101101
*
Ed
 0.000000100000000 1 1 0
1  17 0 0.000000000000000 109.961990588359413
0

0101000
+111 20 -114 20 *
Ve
0.000000100000000
28.232560301704090 127.383165021709033 27.000000000000000
0 0

0101101
*
Ed
 0.000000100000000 1 1 0
1  18 0 1.570796326794896 3.141580272659024
2  16 11 20 1.570796326794896 3.141580272659024
2  17 11 22 1.570796326794896 3.141580272659024
0

0101000
+111 20 -109 20 *
Ve
0.000000100000000
-2.618979698295896 42.622865021709032 27.000000000000000
0 0

0101101
*
Ed
 0.000000100000000 1 1 0
1  19 0 0.000000000000000 90.200476586665545
0

0101000
+109 20 -107 20 *
Ve
0.000000100000000
0.369357228842801 36.214237643858318 27.000000000000000
0 0

0101101
*
Ed
 0.000000100000000 1 1 0
1  20 0 1.570796326794897 3.141605902754563
2  18 12 20 1.570796326794897 3.141605902754563
2  19 12 22 1.570796326794897 3.141605902754563
0

0101000
+107 20 -105 20 *
Ve
0.000000100000002
137.628982914175708 -13.744248443757124 27.000000000000000
0 0

0101101
*
Ed
 0.000000100000000 1 1 0
1  21 0 0.000000000000000 146.068665960376876
0

0101000
+105 20 -103 20 *
Ve
0.000000100000000
141.049181624324035 -13.744250930459977 27.000000000000000
0 0

0101101
*
Ed
 0.000000100000000 1 1 0
1  22 0 1.570796326794897 2.268927448018575
2  20 13 20 1.570796326794897 2.268927448018575
2  21 13 22 1.570796326794897 2.268927448018575
0

0101000
+103 20 -101 20 *
Ve
0.000000100000000
278.536095938991139 36.296735157155467 27.000000000000000
0 0

0101101
*
Ed
 0.000000100000000 1 1 0
1  23 0 0.000000000000000 146.310464070036829
0

0101000
+99 20 -101 20 *
Ve
0.000000100000000
281.524488191940634 42.705231786311316 27.000000000000000
0 0

0101101
*
Ed
 0.000000100000000 1 1 0
1  24 0 1.570796326794896 3.141578999657590
2  22 14 20 1.570796326794896 3.141578999657590
2  23 14 22 1.570796326794896 3.141578999657590
0

0101000
+99 20 -97 20 *
Ve
0.000000100000000
250.675488191940559 127.466031786311319 27.000000000000000
0 0

0101101
*
Ed
 0.000000100000000 1 1 0
1  25 0 0.000000000000000 90.200077703070775
0

0101000
+95 20 -97 20 *
Ve
0.000000100000000
244.266903817283037 130.454464754135870 27.000000000000000
0 0

0101101
*
Ed
 0.000000100000000 1 1 0
1  26 0 1.570796326794896 3.141606359395502
2  24 15 20 1.570796326794896 3.141606359395502
2  25 15 22 1.570796326794896 3.141606359395502
0

0101000
+95 20 -93 20 *
Ed
 0.000000100000000 1 1 0
1  27 0 0.000000000000000 110.205373388752164
0

0101000
+113 20 -93 20 *
Wi

0101100
+112 19 +110 19 -108 19 -106 19 -104 19 -102 19 -100 19 +98 19 -96 19 +94 19 
-92 19 +91 19 *
Fa
0  0.000000100000000 6 15

0111000
+115 0 +90 0 *
Ed
 0.000000100000000 1 1 0
1  28 0 0.000000000000000 27.000000000000000
2  26 4 0 0.000000000000000 27.000000000000000
4 G1 16 0 4 0
0

0101000
+120 8 -120 10 *
Wi

0101100
+141 0 -88 0 -118 8 +118 10 *
Fa
0  0.000000100000000 4 0

0111000
+87 0 *
Ed
 0.000000100000000 1 1 0
1  29 0 0.000000000000000 27.000000000000000
2  27 7 0 0.000000000000000 27.000000000000000
4 G1 5 0 7 0
0

0101000
+132 8 -132 10 *
Wi

0101100
+136 0 -85 0 -131 8 +131 10 *
Fa
0  0.000000100000000 5 0

0111000
+84 0 *
Ed
 0.000000100000000 1 1 0
1  30 0 0.000000000000000 27.000000000000000
2  28 7 0 0.000000000000000 27.000000000000000
4 G1 7 0 17 0
0

0101000
+130 8 -130 10 *
Wi

0101100
+82 0 -85 0 -129 8 +129 10 *
Fa
0  0.000000100000000 7 0

0111000
+81 0 *
Ed
 0.000000100000002 1 1 0
1  31 0 0.000000000000000 27.000000000000000
2  29 8 0 0.000000000000000 27.000000000000000
4 G1 17 0 8 0
0

0101000
+128 8 -128 10 *
Wi

0101100
+82 0 -79 0 -127 8 +127 10 *
Fa
0  0.000000100000000 17 0

0111000
+78 0 *
Ed
 0.000000100000000 1 1 0
1  32 0 0.000000000000000 27.000000000000000
2  30 8 0 0.000000000000000 27.000000000000000
4 G1 8 0 18 0
0

0101000
+126 8 -126 10 *
Wi

0101100
+76 0 -79 0 -125 8 +125 10 *
Fa
0  0.000000100000000 8 0

0111000
+75 0 *
Ed
 0.000000100000000 1 1 0
1  33 0 0.000000000000000 27.000000000000000
2  31 9 0 0.000000000000000 27.000000000000000
4 G1 18 0 9 0
0

0101000
+124 8 -124 10 *
Wi

0101100
+73 0 -76 0 -123 8 +123 10 *
Fa
0  0.000000100000000 18 0

0111000
+72 0 *
Ed
 0.000000100000001 1 1 0
1  34 0 0.000000000000000 27.000000000000000
2  32 9 0 0.000000000000000 27.000000000000000
4 G1 9 0 16 0
0

0101000
+122 8 -122 10 *
Wi

0101100
+70 0 -73 0 -121 8 +121 10 *
Fa
0  0.000000100000000 9 0

0111000
+69 0 *
Wi

0101100
+88 0 -70 0 -119 8 +119 10 *
Fa
0  0.000000100000000 16 0

0111000
+67 0 *
Ve
0.000165850561273
137.971528874005799 92.762110190947453 0.000000000000000
0 0

0101101
*
Ed
 0.000000100000000 1 1 0
1  35 0 0.000000000000000 23.000000000000000
2  33 10 0 0.000000000000000 23.000000000000000
4 G1 19 0 10 0
0

0101000
+114 0 -65 23 *
Ve
0.000165850561273
140.707691300596451 92.762107084735206 0.000000000000000
0 0

0101101
*
Ed
 0.000000100000000 1 1 0
1  36 0 0.000000000000000 23.000000000000000
2  34 10 0 0.000000000000000 23.000000000000000
4 G1 20 0 10 0
0

0101000
+113 0 -63 23 *
Ed
 0.000165850561273 1 1 0
1  16 0 1.570796326794896 2.268928368126081
2  14 10 20 1.570796326794896 2.268928368126081
2  15 10 22 1.570796326794896 2.268928368126081
0

0101000
+65 0 -63 0 *
Wi

0101100
+64 0 -62 0 -112 19 +61 23 *
Fa
0  0.000000100000000 10 0

0111000
+60 0 *
Ve
0.000165850561273
34.641106850521325 130.371460871370545 0.000000000000000
0 0

0101101
*
Ed
 0.000000100000000 1 1 0
1  37 0 0.000000000000000 23.000000000000000
2  35 11 0 0.000000000000000 23.000000000000000
4 G1 11 0 19 0
0

0101000
+111 0 -58 23 *
Ed
 0.000165850561273 1 1 0
1  17 0 0.000000000000000 109.961990588359413
0

0101000
+58 0 -65 0 *
Wi

0101100
+57 0 -64 0 -110 19 +56 23 *
Fa
0  0.000000100000000 19 0

0111000
+55 0 *
Ve
0.000165850561273
28.232560301704090 127.383165021709033 0.000000000000000
0 0

0101101
*
Ed
 0.000000100000000 1 1 0
1  38 0 0.000000000000000 23.000000000000000
2  36 11 0 0.000000000000000 23.000000000000000
4 G1 21 0 11 0
0

0101000
+109 0 -53 23 *
Ed
 0.000165850561273 1 1 0
1  18 0 1.570796326794896 3.141580272659024
2  16 11 20 1.570796326794896 3.141580272659024
2  17 11 22 1.570796326794896 3.141580272659024
0

0101000
+58 0 -53 0 *
Wi

0101100
+57 0 -52 0 -108 19 +51 23 *
Fa
0  0.000000100000000 11 0

0111000
+50 0 *
Ve
0.000165850561273
-2.618979698295896 42.622865021709032 0.000000000000000
0 0

0101101
*
Ed
 0.000000100000000 1 1 0
1  39 0 0.000000000000000 23.000000000000000
2  37 12 0 0.000000000000000 23.000000000000000
4 G1 12 0 21 0
0

0101000
+107 0 -48 23 *
Ed
 0.000165850561273 1 1 0
1  19 0 0.000000000000000 90.200476586665545
0

0101000
+53 0 -48 0 *
Wi

0101100
+52 0 -47 0 -106 19 +46 23 *
Fa
0  0.000000100000000 21 0

0111000
+45 0 *
Ve
0.000165850561273
0.369357228842801 36.214237643858318 0.000000000000000
0 0

0101101
*
Ed
 0.000000100000000 1 1 0
1  40 0 0.000000000000000 23.000000000000000
2  38 12 0 0.000000000000000 23.000000000000000
4 G1 22 0 12 0
0

0101000
+105 0 -43 23 *
Ed
 0.000165850561273 1 1 0
1  20 0 1.570796326794897 3.141605902754563
2  18 12 20 1.570796326794897 3.141605902754563
2  19 12 22 1.570796326794897 3.141605902754563
0

0101000
+48 0 -43 0 *
Wi

0101100
+47 0 -42 0 -104 19 +41 23 *
Fa
0  0.000000100000000 12 0

0111000
+40 0 *
Ve
0.000000100000002
137.628982914175708 -13.744248443757124 0.000000000000000
0 0

0101101
*
Ed
 0.000000100000002 1 1 0
1  41 0 0.000000000000000 23.000000000000000
2  39 13 0 0.000000000000000 23.000000000000000
4 G1 13 0 22 0
0

0101000
+103 0 -38 23 *
Ed
 0.000000100000000 1 1 0
1  21 0 0.000000000000000 146.068665960376876
0

0101000
+43 0 -38 0 *
Wi

0101100
+42 0 -37 0 -102 19 +36 23 *
Fa
0  0.000000100000000 22 0

0101000
+35 0 *
Ve
0.000000100000000
141.049181624324035 -13.744250930459977 0.000000000000000
0 0

0101101
*
Ed
 0.000000100000000 1 1 0
1  42 0 0.000000000000000 23.000000000000000
2  40 13 0 0.000000000000000 23.000000000000000
4 G1 23 0 13 0
0

0101000
+101 0 -33 23 *
Ed
 0.000000100000000 1 1 0
1  22 0 1.570796326794897 2.268927448018575
2  20 13 20 1.570796326794897 2.268927448018575
2  21 13 22 1.570796326794897 2.268927448018575
0

0101000
+38 0 -33 0 *
Wi

0101100
+37 0 -32 0 -100 19 +31 23 *
Fa
0  0.000000100000000 13 0

0101000
+30 0 *
Ve
0.000165850561273
278.536095938991139 36.296735157155467 0.000000000000000
0 0

0101101
*
Ed
 0.000000100000000 1 1 0
1  43 0 0.000000000000000 23.000000000000000
2  41 14 0 0.000000000000000 23.000000000000000
4 G1 14 0 23 0
0

0101000
+99 0 -28 23 *
Ed
 0.000000100000000 1 1 0
1  23 0 0.000000000000000 146.310464070036829
0

0101000
+28 0 -33 0 *
Wi

0101100
+27 0 -32 0 -98 19 +26 23 *
Fa
0  0.000000100000000 23 0

0101000
+25 0 *
Ve
0.000165850561273
281.524488191940634 42.705231786311316 0.000000000000000
0 0

0101101
*
Ed
 0.000000100000000 1 1 0
1  44 0 0.000000000000000 23.000000000000000
2  42 14 0 0.000000000000000 23.000000000000000
4 G1 24 0 14 0
0

0101000
+97 0 -23 23 *
Ed
 0.000165850561273 1 1 0
1  24 0 1.570796326794896 3.141578999657590
2  22 14 20 1.570796326794896 3.141578999657590
2  23 14 22 1.570796326794896 3.141578999657590
0

0101000
+28 0 -23 0 *
Wi

0101100
+27 0 -22 0 -96 19 +21 23 *
Fa
0  0.000000100000000 14 0

0111000
+20 0 *
Ve
0.000165850561273
250.675488191940559 127.466031786311319 0.000000000000000
0 0

0101101
*
Ed
 0.000000100000000 1 1 0
1  45 0 0.000000000000000 23.000000000000000
2  43 15 0 0.000000000000000 23.000000000000000
4 G1 15 0 24 0
0

0101000
+95 0 -18 23 *
Ed
 0.000165850561273 1 1 0
1  25 0 0.000000000000000 90.200077703070775
0

0101000
+18 0 -23 0 *
Wi

0101100
+17 0 -22 0 -94 19 +16 23 *
Fa
0  0.000000100000000 24 0

0111000
+15 0 *
Ve
0.000165850561273
244.266903817283037 130.454464754135870 0.000000000000000
0 0

0101101
*
Ed
 0.000000100000000 1 1 0
1  46 0 0.000000000000000 23.000000000000000
2  44 15 0 0.000000000000000 23.000000000000000
4 G1 20 0 15 0
0

0101000
+93 0 -13 23 *
Ed
 0.000165850561273 1 1 0
1  26 0 1.570796326794896 3.141606359395502
2  24 15 20 1.570796326794896 3.141606359395502
2  25 15 22 1.570796326794896 3.141606359395502
0

0101000
+18 0 -13 0 *
Wi

0101100
+17 0 -12 0 -92 19 +11 23 *
Fa
0  0.000000100000000 15 0

0111000
+10 0 *
Ed
 0.000000100000000 1 1 0
1  27 0 0.000000000000000 110.205373388752164
0

0101000
+63 0 -13 0 *
Wi

0101100
+62 0 -12 0 -91 19 +8 23 *
Fa
0  0.000000100000000 20 0

0111000
+7 0 *
Wi

0101100
+8 0 -11 0 +16 0 -21 0 +26 0 -31 0 -36 0 -41 0 -46 0 -51 0 
+56 0 +61 0 *
Fa
0  0.000000100000000 25 0

0101000
-5 25 *
Sh

0101100
+143 4 +138 4 -133 4 -116 13 +89 0 -86 4 +83 4 -80 4 +77 4 -74 4 
-71 4 -68 4 -66 4 +59 0 +54 0 -49 0 -44 0 -39 0 -34 0 -29 0 
+24 0 -19 0 +14 0 -9 0 +6 0 +4 24 *
So

0100000
+3 0 *
Co

1100000
+2 0 *

+1 1 