
CASCADE Topology V1, (c) Matra-Datavision
Locations 11
1
1.000000000000000 0.000000000000000 0.000000000000000 0.000000000000000 
0.000000000000000 1.000000000000000 0.000000000000000 0.000000000000000 
0.000000000000000 0.000000000000000 1.000000000000000 0.000000000000000 
1
1.000000000000000 0.000000000000000 0.000000000000000 0.000000000000000 
0.000000000000000 1.000000000000000 0.000000000000000 0.000000000000000 
0.000000000000000 0.000000000000000 1.000000000000000 3.000000000000002 
1
1.000000000000000 0.000000000000000 0.000000000000000 0.000000000000000 
0.000000000000000 1.000000000000000 0.000000000000000 0.000000000000000 
0.000000000000000 0.000000000000000 1.000000000000000 0.000000000000000 
2  1 1 2 1 3 -1 0
1
1.000000000000000 0.000000000000000 0.000000000000000 -0.000000000000000 
0.000000000000000 1.000000000000000 0.000000000000000 -0.000000000000000 
0.000000000000000 0.000000000000000 1.000000000000000 -5.000000000000000 
2  1 1 2 1 3 -1 5 1 0
2  3 1 2 -1 1 -1 0
2  5 -1 3 1 2 -1 1 -1 0
2  3 -1 0
2  1 1 2 1 0
2  3 -1 5 1 0
Curve2ds 32
1 0.00000000000000000 0.00000000000000000 0.00000000000000000 -1.00000000000000000 
1 6.28318530717958623 0.00000000000000000 0.00000000000000000 -1.00000000000000000 
1 0.00000000000000000 0.00000000000000000 1.00000000000000000 0.00000000000000000 
1 0.00000000000000000 -5.00000000000000000 1.00000000000000000 0.00000000000000000 
1 0.00000000000000000 0.00000000000000000 0.00000000000000000 -1.00000000000000000 
1 6.28318530717958623 0.00000000000000000 0.00000000000000000 -1.00000000000000000 
1 0.00000000000000000 0.00000000000000000 1.00000000000000000 0.00000000000000000 
1 0.00000000000000000 -5.00000000000000000 1.00000000000000000 0.00000000000000000 
1 0.00000000000000000 0.00000000000000000 0.00000000000000000 -1.00000000000000000 
1 6.28318530717958623 0.00000000000000000 0.00000000000000000 -1.00000000000000000 
1 0.00000000000000000 0.00000000000000000 1.00000000000000000 0.00000000000000000 
1 0.00000000000000000 -5.00000000000000000 1.00000000000000000 0.00000000000000000 
1 0.00000000000000000 0.00000000000000000 0.00000000000000000 -1.00000000000000000 
1 6.28318530717958623 0.00000000000000000 0.00000000000000000 -1.00000000000000000 
1 0.00000000000000000 0.00000000000000000 1.00000000000000000 0.00000000000000000 
1 0.00000000000000000 -5.00000000000000000 1.00000000000000000 0.00000000000000000 
1 0.00000000000000000 0.00000000000000000 0.00000000000000000 -1.00000000000000000 
1 6.28318530717958623 0.00000000000000000 0.00000000000000000 -1.00000000000000000 
1 0.00000000000000000 0.00000000000000000 1.00000000000000000 0.00000000000000000 
1 0.00000000000000000 -5.00000000000000000 1.00000000000000000 0.00000000000000000 
1 0.00000000000000000 0.00000000000000000 0.00000000000000000 -1.00000000000000000 
1 6.28318530717958623 0.00000000000000000 0.00000000000000000 -1.00000000000000000 
1 0.00000000000000000 0.00000000000000000 1.00000000000000000 0.00000000000000000 
1 0.00000000000000000 -5.00000000000000000 1.00000000000000000 0.00000000000000000 
1 0.00000000000000000 0.00000000000000000 0.00000000000000000 -1.00000000000000000 
1 6.28318530717958623 0.00000000000000000 0.00000000000000000 -1.00000000000000000 
1 0.00000000000000000 0.00000000000000000 1.00000000000000000 0.00000000000000000 
1 0.00000000000000000 -5.00000000000000000 1.00000000000000000 0.00000000000000000 
1 0.00000000000000000 0.00000000000000000 0.00000000000000000 -1.00000000000000000 
1 6.28318530717958623 0.00000000000000000 0.00000000000000000 -1.00000000000000000 
1 0.00000000000000000 0.00000000000000000 1.00000000000000000 0.00000000000000000 
1 0.00000000000000000 -5.00000000000000000 1.00000000000000000 0.00000000000000000 
Curves 16
1 128.05930137437300687 85.40615867352637736 3.00000000000000178 -0.00000000000000000 -0.00000000000000000 -1.00000000000000000 
2 126.93430137437300687 85.40615867352637736 0.00000000000000000 0.00000000000000000 0.00000000000000000 1.00000000000000000 1.00000000000000000 0.00000000000000000 0.00000000000000000 0.00000000000000000 1.00000000000000000 0.00000000000000000 1.12500000000000000
1 153.05930137437300687 85.40615867352637736 3.00000000000000178 -0.00000000000000000 -0.00000000000000000 -1.00000000000000000 
2 151.93430137437300687 85.40615867352637736 0.00000000000000000 0.00000000000000000 0.00000000000000000 1.00000000000000000 1.00000000000000000 0.00000000000000000 0.00000000000000000 0.00000000000000000 1.00000000000000000 0.00000000000000000 1.12500000000000000
1 153.05930137437300687 72.90615867352639157 3.00000000000000178 -0.00000000000000000 -0.00000000000000000 -1.00000000000000000 
2 151.93430137437300687 72.90615867352639157 0.00000000000000000 0.00000000000000000 0.00000000000000000 1.00000000000000000 1.00000000000000000 0.00000000000000000 0.00000000000000000 0.00000000000000000 1.00000000000000000 0.00000000000000000 1.12500000000000000
1 128.05930137437300687 72.90615867352639157 3.00000000000000178 -0.00000000000000000 -0.00000000000000000 -1.00000000000000000 
2 126.93430137437300687 72.90615867352639157 0.00000000000000000 0.00000000000000000 0.00000000000000000 1.00000000000000000 1.00000000000000000 0.00000000000000000 0.00000000000000000 0.00000000000000000 1.00000000000000000 0.00000000000000000 1.12500000000000000
1 128.05930137437297844 25.40615867352632762 3.00000000000000178 -0.00000000000000000 -0.00000000000000000 -1.00000000000000000 
2 126.93430137437297844 25.40615867352632762 0.00000000000000000 0.00000000000000000 0.00000000000000000 1.00000000000000000 1.00000000000000000 0.00000000000000000 0.00000000000000000 0.00000000000000000 1.00000000000000000 0.00000000000000000 1.12500000000000000
1 153.05930137437297844 25.40615867352632762 3.00000000000000178 -0.00000000000000000 -0.00000000000000000 -1.00000000000000000 
2 151.93430137437297844 25.40615867352632762 0.00000000000000000 0.00000000000000000 0.00000000000000000 1.00000000000000000 1.00000000000000000 0.00000000000000000 0.00000000000000000 0.00000000000000000 1.00000000000000000 0.00000000000000000 1.12500000000000000
1 153.05930137437297844 12.90615867352630097 3.00000000000000178 -0.00000000000000000 -0.00000000000000000 -1.00000000000000000 
2 151.93430137437297844 12.90615867352630097 0.00000000000000000 0.00000000000000000 0.00000000000000000 1.00000000000000000 1.00000000000000000 0.00000000000000000 0.00000000000000000 0.00000000000000000 1.00000000000000000 0.00000000000000000 1.12500000000000000
1 128.05930137437297844 12.90615867352630097 3.00000000000000178 -0.00000000000000000 -0.00000000000000000 -1.00000000000000000 
2 126.93430137437297844 12.90615867352630097 0.00000000000000000 0.00000000000000000 0.00000000000000000 1.00000000000000000 1.00000000000000000 0.00000000000000000 0.00000000000000000 0.00000000000000000 1.00000000000000000 0.00000000000000000 1.12500000000000000
Polygon3D 0
PolygonOnTriangulations 0
Surfaces 16
2 126.93430137437300687 85.40615867352637736 3.00000000000000178 0.00000000000000000 0.00000000000000000 1.00000000000000000 1.00000000000000000 0.00000000000000000 0.00000000000000000 0.00000000000000000 1.00000000000000000 0.00000000000000000 1.12500000000000000
1 139.43430137437300687 49.15615867352633472 3.00000000000000222 0.00000000000000000 0.00000000000000000 1.00000000000000000 1.00000000000000000 0.00000000000000000 -0.00000000000000000 -0.00000000000000000 1.00000000000000000 0.00000000000000000 
2 151.93430137437300687 85.40615867352637736 3.00000000000000178 0.00000000000000000 0.00000000000000000 1.00000000000000000 1.00000000000000000 0.00000000000000000 0.00000000000000000 0.00000000000000000 1.00000000000000000 0.00000000000000000 1.12500000000000000
1 139.43430137437300687 49.15615867352633472 3.00000000000000222 0.00000000000000000 0.00000000000000000 1.00000000000000000 1.00000000000000000 0.00000000000000000 -0.00000000000000000 -0.00000000000000000 1.00000000000000000 0.00000000000000000 
2 151.93430137437300687 72.90615867352639157 3.00000000000000178 0.00000000000000000 0.00000000000000000 1.00000000000000000 1.00000000000000000 0.00000000000000000 0.00000000000000000 0.00000000000000000 1.00000000000000000 0.00000000000000000 1.12500000000000000
1 139.43430137437300687 49.15615867352633472 3.00000000000000222 0.00000000000000000 0.00000000000000000 1.00000000000000000 1.00000000000000000 0.00000000000000000 -0.00000000000000000 -0.00000000000000000 1.00000000000000000 0.00000000000000000 
2 126.93430137437300687 72.90615867352639157 3.00000000000000178 0.00000000000000000 0.00000000000000000 1.00000000000000000 1.00000000000000000 0.00000000000000000 0.00000000000000000 0.00000000000000000 1.00000000000000000 0.00000000000000000 1.12500000000000000
1 139.43430137437300687 49.15615867352633472 3.00000000000000222 0.00000000000000000 0.00000000000000000 1.00000000000000000 1.00000000000000000 0.00000000000000000 -0.00000000000000000 -0.00000000000000000 1.00000000000000000 0.00000000000000000 
2 126.93430137437297844 25.40615867352632762 3.00000000000000178 0.00000000000000000 0.00000000000000000 1.00000000000000000 1.00000000000000000 0.00000000000000000 0.00000000000000000 0.00000000000000000 1.00000000000000000 0.00000000000000000 1.12500000000000000
1 139.43430137437300687 49.15615867352633472 3.00000000000000222 0.00000000000000000 0.00000000000000000 1.00000000000000000 1.00000000000000000 0.00000000000000000 -0.00000000000000000 -0.00000000000000000 1.00000000000000000 0.00000000000000000 
2 151.93430137437297844 25.40615867352632762 3.00000000000000178 0.00000000000000000 0.00000000000000000 1.00000000000000000 1.00000000000000000 0.00000000000000000 0.00000000000000000 0.00000000000000000 1.00000000000000000 0.00000000000000000 1.12500000000000000
1 139.43430137437300687 49.15615867352633472 3.00000000000000222 0.00000000000000000 0.00000000000000000 1.00000000000000000 1.00000000000000000 0.00000000000000000 -0.00000000000000000 -0.00000000000000000 1.00000000000000000 0.00000000000000000 
2 151.93430137437297844 12.90615867352630097 3.00000000000000178 0.00000000000000000 0.00000000000000000 1.00000000000000000 1.00000000000000000 0.00000000000000000 0.00000000000000000 0.00000000000000000 1.00000000000000000 0.00000000000000000 1.12500000000000000
1 139.43430137437300687 49.15615867352633472 3.00000000000000222 0.00000000000000000 0.00000000000000000 1.00000000000000000 1.00000000000000000 0.00000000000000000 -0.00000000000000000 -0.00000000000000000 1.00000000000000000 0.00000000000000000 
2 126.93430137437297844 12.90615867352630097 3.00000000000000178 0.00000000000000000 0.00000000000000000 1.00000000000000000 1.00000000000000000 0.00000000000000000 0.00000000000000000 0.00000000000000000 1.00000000000000000 0.00000000000000000 1.12500000000000000
1 139.43430137437300687 49.15615867352633472 3.00000000000000222 0.00000000000000000 0.00000000000000000 1.00000000000000000 1.00000000000000000 0.00000000000000000 -0.00000000000000000 -0.00000000000000000 1.00000000000000000 0.00000000000000000 
Triangulations 0

TShapes 73
Ve
0.000000100000000
128.059301374373007 85.406158673526377 0.000000000000000
0 0

0101101
*
Ed
 0.000000100000000 1 1 0
1  1 0 0.000000000000000 5.000000000000000
3  1 2CN 1 0 0.000000000000000 5.000000000000000
0

0101000
+73 4 -73 6 *
Ed
 0.000000100000000 1 1 0
1  2 0 0.000000000000000 6.283185307179586
2  3 1 7 0.000000000000000 6.283185307179586
2  4 1 8 0.000000000000000 6.283185307179586
0

0101100
+73 0 -73 0 *
Wi

0101100
+72 0 -72 0 -71 4 +71 6 *
Fa
0  0.000000100000000 1 0

0101000
+70 0 *
Wi

0101100
+71 0 *
Fa
0  0.000000100000000 2 0

0101000
+68 10 *
Sh

0101100
+69 0 +67 9 -67 11 *
So

0100000
+66 0 *
Ve
0.000000100000000
153.059301374373007 85.406158673526377 0.000000000000000
0 0

0101101
*
Ed
 0.000000100000000 1 1 0
1  3 0 0.000000000000000 5.000000000000000
3  5 6CN 3 0 0.000000000000000 5.000000000000000
0

0101000
+64 4 -64 6 *
Ed
 0.000000100000000 1 1 0
1  4 0 0.000000000000000 6.283185307179586
2  7 3 7 0.000000000000000 6.283185307179586
2  8 3 8 0.000000000000000 6.283185307179586
0

0101100
+64 0 -64 0 *
Wi

0101100
+63 0 -63 0 -62 4 +62 6 *
Fa
0  0.000000100000000 3 0

0101000
+61 0 *
Wi

0101100
+62 0 *
Fa
0  0.000000100000000 4 0

0101000
+59 10 *
Sh

0101100
+60 0 +58 9 -58 11 *
So

0100000
+57 0 *
Ve
0.000000100000000
153.059301374373007 72.906158673526392 0.000000000000000
0 0

0101101
*
Ed
 0.000000100000000 1 1 0
1  5 0 0.000000000000000 5.000000000000000
3  9 10CN 5 0 0.000000000000000 5.000000000000000
0

0101000
+55 4 -55 6 *
Ed
 0.000000100000000 1 1 0
1  6 0 0.000000000000000 6.283185307179586
2  11 5 7 0.000000000000000 6.283185307179586
2  12 5 8 0.000000000000000 6.283185307179586
0

0101100
+55 0 -55 0 *
Wi

0101100
+54 0 -54 0 -53 4 +53 6 *
Fa
0  0.000000100000000 5 0

0101000
+52 0 *
Wi

0101100
+53 0 *
Fa
0  0.000000100000000 6 0

0101000
+50 10 *
Sh

0101100
+51 0 +49 9 -49 11 *
So

0100000
+48 0 *
Ve
0.000000100000000
128.059301374373007 72.906158673526392 0.000000000000000
0 0

0101101
*
Ed
 0.000000100000000 1 1 0
1  7 0 0.000000000000000 5.000000000000000
3  13 14CN 7 0 0.000000000000000 5.000000000000000
0

0101000
+46 4 -46 6 *
Ed
 0.000000100000000 1 1 0
1  8 0 0.000000000000000 6.283185307179586
2  15 7 7 0.000000000000000 6.283185307179586
2  16 7 8 0.000000000000000 6.283185307179586
0

0101100
+46 0 -46 0 *
Wi

0101100
+45 0 -45 0 -44 4 +44 6 *
Fa
0  0.000000100000000 7 0

0101000
+43 0 *
Wi

0101100
+44 0 *
Fa
0  0.000000100000000 8 0

0101000
+41 10 *
Sh

0101100
+42 0 +40 9 -40 11 *
So

0100000
+39 0 *
Ve
0.000000100000000
128.059301374372978 25.406158673526328 0.000000000000000
0 0

0101101
*
Ed
 0.000000100000000 1 1 0
1  9 0 0.000000000000000 5.000000000000000
3  17 18CN 9 0 0.000000000000000 5.000000000000000
0

0101000
+37 4 -37 6 *
Ed
 0.000000100000000 1 1 0
1  10 0 0.000000000000000 6.283185307179586
2  19 9 7 0.000000000000000 6.283185307179586
2  20 9 8 0.000000000000000 6.283185307179586
0

0101100
+37 0 -37 0 *
Wi

0101100
+36 0 -36 0 -35 4 +35 6 *
Fa
0  0.000000100000000 9 0

0101000
+34 0 *
Wi

0101100
+35 0 *
Fa
0  0.000000100000000 10 0

0101000
+32 10 *
Sh

0101100
+33 0 +31 9 -31 11 *
So

0100000
+30 0 *
Ve
0.000000100000000
153.059301374372978 25.406158673526328 0.000000000000000
0 0

0101101
*
Ed
 0.000000100000000 1 1 0
1  11 0 0.000000000000000 5.000000000000000
3  21 22CN 11 0 0.000000000000000 5.000000000000000
0

0101000
+28 4 -28 6 *
Ed
 0.000000100000000 1 1 0
1  12 0 0.000000000000000 6.283185307179586
2  23 11 7 0.000000000000000 6.283185307179586
2  24 11 8 0.000000000000000 6.283185307179586
0

0101100
+28 0 -28 0 *
Wi

0101100
+27 0 -27 0 -26 4 +26 6 *
Fa
0  0.000000100000000 11 0

0101000
+25 0 *
Wi

0101100
+26 0 *
Fa
0  0.000000100000000 12 0

0101000
+23 10 *
Sh

0101100
+24 0 +22 9 -22 11 *
So

0100000
+21 0 *
Ve
0.000000100000000
153.059301374372978 12.906158673526301 0.000000000000000
0 0

0101101
*
Ed
 0.000000100000000 1 1 0
1  13 0 0.000000000000000 5.000000000000000
3  25 26CN 13 0 0.000000000000000 5.000000000000000
0

0101000
+19 4 -19 6 *
Ed
 0.000000100000000 1 1 0
1  14 0 0.000000000000000 6.283185307179586
2  27 13 7 0.000000000000000 6.283185307179586
2  28 13 8 0.000000000000000 6.283185307179586
0

0101100
+19 0 -19 0 *
Wi

0101100
+18 0 -18 0 -17 4 +17 6 *
Fa
0  0.000000100000000 13 0

0101000
+16 0 *
Wi

0101100
+17 0 *
Fa
0  0.000000100000000 14 0

0101000
+14 10 *
Sh

0101100
+15 0 +13 9 -13 11 *
So

0100000
+12 0 *
Ve
0.000000100000000
128.059301374372978 12.906158673526301 0.000000000000000
0 0

0101101
*
Ed
 0.000000100000000 1 1 0
1  15 0 0.000000000000000 5.000000000000000
3  29 30CN 15 0 0.000000000000000 5.000000000000000
0

0101000
+10 4 -10 6 *
Ed
 0.000000100000000 1 1 0
1  16 0 0.000000000000000 6.283185307179586
2  31 15 7 0.000000000000000 6.283185307179586
2  32 15 8 0.000000000000000 6.283185307179586
0

0101100
+10 0 -10 0 *
Wi

0101100
+9 0 -9 0 -8 4 +8 6 *
Fa
0  0.000000100000000 15 0

0101000
+7 0 *
Wi

0101100
+8 0 *
Fa
0  0.000000100000000 16 0

0101000
+5 10 *
Sh

0101100
+6 0 +4 9 -4 11 *
So

0100000
+3 0 *
Co

1100000
+65 0 +56 0 +47 0 +38 0 +29 0 +20 0 +11 0 +2 0 *

+1 0 