
CASCADE Topology V1, (c) Matra-Datavision
Locations 11
1
1.000000000000000 0.000000000000000 0.000000000000000 0.000000000000000 
0.000000000000000 1.000000000000000 0.000000000000000 0.000000000000000 
0.000000000000000 0.000000000000000 1.000000000000000 0.000000000000000 
1
0.939692950827170 0.000000000000000 0.342019236543394 -13.353512109589994 
0.342019236543394 0.000000000000000 -0.939692950827170 36.688583148085321 
0.000000000000000 1.000000000000000 0.000000000000000 0.000000000000000 
1
1.000000000000000 0.000000000000000 0.000000000000000 0.000000000000000 
0.000000000000000 1.000000000000000 0.000000000000000 0.000000000000000 
0.000000000000000 0.000000000000000 1.000000000000000 0.000000000000000 
2  1 1 2 1 3 -1 0
1
1.000000000000000 0.000000000000000 0.000000000000000 -1.710096182716970 
0.000000000000000 1.000000000000000 0.000000000000000 4.698464754135850 
0.000000000000000 0.000000000000000 1.000000000000000 0.000000000000000 
2  1 1 2 1 3 -1 5 1 0
2  3 1 2 -1 1 -1 0
2  5 -1 3 1 2 -1 1 -1 0
2  3 -1 0
2  1 1 2 1 0
2  3 -1 5 1 0
Curve2ds 8
1 1.57079632679489656 0.00000000000000000 0.00000000000000000 -1.00000000000000000 
1 4.71238898038468967 0.00000000000000000 0.00000000000000000 -1.00000000000000000 
1 0.00000000000000000 0.00000000000000000 1.00000000000000000 0.00000000000000000 
1 0.00000000000000000 -5.00000000000000089 1.00000000000000000 0.00000000000000000 
1 0.00000000000000000 0.00000000000000000 1.00000000000000000 0.00000000000000000 
1 0.00000000000000000 -5.00000000000000089 1.00000000000000000 0.00000000000000000 
1 1.57079632679489656 0.00000000000000000 0.00000000000000000 -1.00000000000000000 
1 4.71238898038468967 0.00000000000000000 0.00000000000000000 -1.00000000000000000 
Curves 10
1 229.70166307946186635 125.15316658771325820 11.00000000000000355 -0.34201923654339389 0.93969295082716986 0.00000000000000000 
1 229.70166307946186635 125.15316658771325820 4.00000000000000355 -0.34201923654339389 0.93969295082716986 0.00000000000000000 
2 258.65382407636576545 7.50000000000000355 0.00000000000000000 0.00000000000000000 0.00000000000000000 1.00000000000000000 1.00000000000000000 0.00000000000000000 0.00000000000000000 0.00000000000000000 1.00000000000000000 0.00000000000000000 3.50000000000000000
1 229.70166307946186635 125.15316658771325820 4.00000000000000355 0.93969295082716997 0.34201923654339395 0.00000000000000000 
2 270.65382464801786000 7.50000000000000355 0.00000000000000000 0.00000000000000000 0.00000000000000000 1.00000000000000000 -1.00000000000000000 -0.00000000000000012 0.00000000000000000 0.00000000000000012 -1.00000000000000000 0.00000000000000000 3.50000000000000000
1 233.46043506182968486 126.52124359905883466 11.00000000000000355 0.93969295082716997 0.34201923654339395 0.00000000000000000 
1 240.97797902656535030 129.25739762175001601 4.00000000000000355 -0.34201923654339389 0.93969295082716986 0.00000000000000000 
1 240.97797902656535030 129.25739762175001601 11.00000000000000355 -0.34201923654339389 0.93969295082716986 0.00000000000000000 
1 231.75033887911271790 131.21970835319467596 4.00000000000000355 0.93969295082716997 0.34201923654339395 0.00000000000000000 
1 227.99156689674489940 129.85163134184909950 11.00000000000000355 0.93969295082716997 0.34201923654339395 0.00000000000000000 
Polygon3D 0
PolygonOnTriangulations 0
Surfaces 9
2 229.70166307946186635 125.15316658771325820 7.50000000000000355 0.34201923654339395 -0.93969295082716997 0.00000000000000000 0.93969295082716997 0.34201923654339395 0.00000000000000000 0.00000000000000000 0.00000000000000000 1.00000000000000000 3.50000000000000000
1 229.70166307946186635 125.15316658771325820 11.00000000000000355 0.00000000000000000 0.00000000000000000 -1.00000000000000000 0.93969295082716997 0.34201923654339395 0.00000000000000000 0.34201923654339395 -0.93969295082716997 0.00000000000000000 
1 229.70166307946186635 125.15316658771325820 4.00000000000000355 0.00000000000000000 0.00000000000000000 -1.00000000000000000 0.93969295082716997 0.34201923654339395 0.00000000000000000 0.34201923654339395 -0.93969295082716997 0.00000000000000000 
1 235.33982105301353727 127.20528210473162289 7.50000000000000089 -0.34201923654339383 0.93969295082716997 0.00000000000000000 0.93969295082716997 0.34201923654339383 0.00000000000000000 0.00000000000000000 0.00000000000000000 -1.00000000000000000 
2 240.97797902656535030 129.25739762175001601 7.50000000000000355 0.34201923654339395 -0.93969295082716997 0.00000000000000000 -0.93969295082716997 -0.34201923654339395 -0.00000000000000012 0.00000000000000012 0.00000000000000004 -1.00000000000000000 3.50000000000000000
1 233.46043506182968486 126.52124359905883466 4.00000000000000355 0.00000000000000000 0.00000000000000000 -1.00000000000000000 0.93969295082716997 0.34201923654339395 0.00000000000000000 0.34201923654339395 -0.93969295082716997 0.00000000000000000 
1 233.46043506182968486 126.52124359905883466 11.00000000000000355 0.00000000000000000 0.00000000000000000 -1.00000000000000000 0.93969295082716997 0.34201923654339395 0.00000000000000000 0.34201923654339395 -0.93969295082716997 0.00000000000000000 
1 234.48477296165503958 129.55451448179951512 4.00000000000000266 -0.00000000000000000 -0.00000000000000000 -1.00000000000000000 -1.00000000000000000 0.00000000000000000 0.00000000000000000 0.00000000000000000 1.00000000000000000 -0.00000000000000000 
1 234.48477296165512485 129.55451448179957197 11.00000000000000888 0.00000000000000000 0.00000000000000000 1.00000000000000000 1.00000000000000000 0.00000000000000000 -0.00000000000000000 -0.00000000000000000 1.00000000000000000 0.00000000000000000 
Triangulations 0

TShapes 28
Ve
0.000000100000000
258.653824076365765 11.000000000000004 0.000000000000000
0 0

0101101
*
Ed
 0.000000100000000 1 1 0
1  1 0 0.000000000000000 5.000000000000001
2  1 1 0 0.000000000000000 5.000000000000001
4 G1 1 0 2 0
0

0101000
+28 4 -28 6 *
Ve
0.000000100000000
258.653824076365765 4.000000000000004 0.000000000000000
0 0

0101101
*
Ed
 0.000000100000000 1 1 0
1  2 0 0.000000000000000 5.000000000000001
2  2 1 0 0.000000000000000 5.000000000000001
4 G1 1 0 3 0
0

0101000
+26 4 -26 6 *
Ed
 0.000000100000000 1 1 0
1  3 0 1.570796326794897 4.712388980384690
2  3 1 7 1.570796326794897 4.712388980384690
2  4 1 8 1.570796326794897 4.712388980384690
0

0101000
+28 0 -26 0 *
Wi

0101100
+27 0 -25 0 -24 4 +24 6 *
Fa
0  0.000000100000000 1 0

0101000
+23 0 *
Ve
0.000000100000000
270.653824648017860 4.000000000000004 0.000000000000000
0 0

0101101
*
Ed
 0.000000100000000 1 1 0
1  4 0 0.000000000000000 12.000000571652103
0

0101000
+26 4 -21 4 *
Ve
0.000000100000000
270.653824648017860 11.000000000000004 0.000000000000000
0 0

0101101
*
Ed
 0.000000100000000 1 1 0
1  5 0 1.570796326794897 4.712388980384690
2  5 5 7 1.570796326794897 4.712388980384690
2  6 5 8 1.570796326794897 4.712388980384690
0

0101000
+21 0 -19 0 *
Ed
 0.000000100000000 1 1 0
1  6 0 -4.000000190550689 8.000000381101414
0

0101000
+28 4 -19 4 *
Wi

0101000
+24 0 +20 7 +18 0 -17 7 *
Fa
0  0.000000100000000 4 0

0111000
-16 10 *
Ed
 0.000000100000000 1 1 0
1  7 0 0.000000000000000 5.000000000000001
2  7 5 0 0.000000000000000 5.000000000000001
4 G1 6 0 5 0
0

0101000
+21 4 -21 6 *
Ed
 0.000000100000000 1 1 0
1  8 0 0.000000000000000 5.000000000000001
2  8 5 0 0.000000000000000 5.000000000000001
4 G1 5 0 7 0
0

0101000
+19 4 -19 6 *
Wi

0101100
+14 0 -13 0 -18 4 +18 6 *
Fa
0  0.000000100000000 5 0

0101000
+12 0 *
Ed
 0.000000100000000 1 1 0
1  9 0 -4.000000190550689 8.000000381101414
0

0101000
+26 6 -21 6 *
Ed
 0.000000100000000 1 1 0
1  10 0 0.000000000000000 12.000000571652103
0

0101000
+28 6 -19 6 *
Wi

0101000
+24 0 +10 8 +18 0 -9 8 *
Fa
0  0.000000100000000 4 0

0111000
-8 10 *
Wi

0101000
+25 0 +10 0 -14 0 -20 0 *
Fa
0  0.000000100000000 8 0

0111000
+6 0 *
Wi

0101000
+13 0 -9 0 -27 0 +17 0 *
Fa
0  0.000000100000000 9 0

0111000
+4 0 *
Sh

0101000
+22 0 -15 9 +11 0 +7 11 +5 0 +3 0 *
So

1100000
+2 0 *

+1 0 