
CASCADE Topology V1, (c) Matra-Datavision
Locations 9
1
1.000000000000000 0.000000000000000 0.000000000000000 0.000000000000000 
0.000000000000000 1.000000000000000 0.000000000000000 0.000000000000000 
0.000000000000000 0.000000000000000 1.000000000000000 0.000000000000000 
1
1.000000000000000 0.000000000000000 0.000000000000000 0.000000000000000 
0.000000000000000 1.000000000000000 0.000000000000000 0.000000000000000 
0.000000000000000 0.000000000000000 1.000000000000000 4.000000000000004 
1
1.000000000000000 0.000000000000000 0.000000000000000 0.000000000000000 
0.000000000000000 1.000000000000000 0.000000000000000 0.000000000000000 
0.000000000000000 0.000000000000000 1.000000000000000 0.000000000000000 
2  1 1 2 1 3 -1 0
1
1.000000000000000 0.000000000000000 0.000000000000000 -0.000000000000000 
0.000000000000000 1.000000000000000 0.000000000000000 -0.000000000000000 
0.000000000000000 0.000000000000000 1.000000000000000 -1.000000000000000 
2  1 1 2 1 3 -1 5 1 0
2  3 -1 0
2  1 1 2 1 0
2  3 -1 5 1 0
Curve2ds 0
Curves 8
1 240.97797848938793663 129.25739742623397888 4.00000000000000355 -0.00000000000000000 -0.00000000000000000 -1.00000000000000000 
1 229.70166307946186635 125.15316658771325820 4.00000000000000355 -0.00000000000000000 -0.00000000000000000 -1.00000000000000000 
1 240.97797848938793663 129.25739742623397888 0.00000000000000000 -0.93969295082717041 -0.34201923654339261 0.00000000000000000 
1 234.48993239106937381 111.99746527613287128 4.00000000000000355 -0.00000000000000000 -0.00000000000000000 -1.00000000000000000 
1 229.70166307946186635 125.15316658771325820 0.00000000000000000 0.34201923654339328 -0.93969295082717008 0.00000000000000000 
1 245.76624780099541567 116.10169611465357775 4.00000000000000355 -0.00000000000000000 -0.00000000000000000 -1.00000000000000000 
1 234.48993239106937381 111.99746527613287128 0.00000000000000000 0.93969295082717053 0.34201923654339234 0.00000000000000000 
1 245.76624780099541567 116.10169611465357775 0.00000000000000000 -0.34201923654339117 0.93969295082717086 0.00000000000000000 
Polygon3D 0
PolygonOnTriangulations 0
Surfaces 5
1 240.97797848938793663 129.25739742623397888 4.00000000000000355 -0.34201923654339261 0.93969295082717041 0.00000000000000000 -0.93969295082717041 -0.34201923654339261 0.00000000000000000 0.00000000000000000 0.00000000000000000 1.00000000000000000 
1 229.70166307946186635 125.15316658771325820 4.00000000000000355 -0.93969295082717019 -0.34201923654339333 0.00000000000000000 0.34201923654339333 -0.93969295082717019 0.00000000000000000 0.00000000000000000 0.00000000000000000 1.00000000000000000 
1 234.48993239106937381 111.99746527613287128 4.00000000000000355 0.34201923654339234 -0.93969295082717053 0.00000000000000000 0.93969295082717053 0.34201923654339234 0.00000000000000000 -0.00000000000000000 0.00000000000000000 1.00000000000000000 
1 245.76624780099541567 116.10169611465357775 4.00000000000000355 0.93969295082717097 0.34201923654339123 -0.00000000000000000 -0.34201923654339123 0.93969295082717097 0.00000000000000000 0.00000000000000000 0.00000000000000000 1.00000000000000000 
1 237.73395544022858417 120.62743135118341797 4.00000000000000355 0.00000000000000000 0.00000000000000000 1.00000000000000000 1.00000000000000000 0.00000000000000000 -0.00000000000000000 -0.00000000000000000 1.00000000000000000 0.00000000000000000 
Triangulations 0

TShapes 24
Ve
0.000000100000000
240.977978489387937 129.257397426233979 0.000000000000000
0 0

0101101
*
Ed
 0.000000100000000 1 1 0
1  1 0 0.000000000000000 1.000000000000000
0

0101000
+24 4 -24 6 *
Ve
0.000000100000000
229.701663079461866 125.153166587713258 0.000000000000000
0 0

0101101
*
Ed
 0.000000100000000 1 1 0
1  2 0 0.000000000000000 1.000000000000000
0

0101000
+22 4 -22 6 *
Ed
 0.000000100000000 1 1 0
1  3 0 0.000000000000000 12.000000000000027
0

0101000
+24 0 -22 0 *
Wi

0101100
+23 0 -21 0 -20 4 +20 6 *
Fa
0  0.000000100000000 1 0

0101000
+19 0 *
Ve
0.000000100000000
234.489932391069374 111.997465276132871 0.000000000000000
0 0

0101101
*
Ed
 0.000000100000000 1 1 0
1  4 0 0.000000000000000 1.000000000000000
0

0101000
+17 4 -17 6 *
Ed
 0.000000100000000 1 1 0
1  5 0 0.000000000000000 14.000000000000005
0

0101000
+22 0 -17 0 *
Wi

0101100
+21 0 -16 0 -15 4 +15 6 *
Fa
0  0.000000100000000 2 0

0101000
+14 0 *
Ve
0.000000100000000
245.766247800995416 116.101696114653578 0.000000000000000
0 0

0101101
*
Ed
 0.000000100000000 1 1 0
1  6 0 0.000000000000000 1.000000000000000
0

0101000
+12 4 -12 6 *
Ed
 0.000000100000000 1 1 0
1  7 0 0.000000000000000 11.999999999999995
0

0101000
+17 0 -12 0 *
Wi

0101100
+16 0 -11 0 -10 4 +10 6 *
Fa
0  0.000000100000000 3 0

0101000
+9 0 *
Ed
 0.000000100000000 1 1 0
1  8 0 0.000000000000000 14.000000000000009
0

0101000
+12 0 -24 0 *
Wi

0101100
+11 0 -23 0 -7 4 +7 6 *
Fa
0  0.000000100000000 4 0

0101000
+6 0 *
Wi

0101100
+20 0 +15 0 +10 0 +7 0 *
Fa
0  0.000000100000000 5 0

0101000
+4 8 *
Sh

0101100
+18 0 +13 0 +8 0 +5 0 +3 7 -3 9 *
So

1100000
+2 0 *

+1 0 