
CASCADE Topology V1, (c) Matra-Datavision
Locations 11
1
1.000000000000000 0.000000000000000 0.000000000000000 0.000000000000000 
0.000000000000000 1.000000000000000 0.000000000000000 0.000000000000000 
0.000000000000000 0.000000000000000 1.000000000000000 0.000000000000000 
1
1.000000000000000 0.000000000000000 0.000000000000000 0.000000000000000 
0.000000000000000 -1.000000000000000 0.000000000000000 0.000000000000000 
0.000000000000000 0.000000000000000 -1.000000000000000 0.000000000000000 
1
1.000000000000000 0.000000000000000 0.000000000000000 0.000000000000000 
0.000000000000000 1.000000000000000 0.000000000000000 0.000000000000000 
0.000000000000000 0.000000000000000 1.000000000000000 0.000000000000000 
2  1 1 2 1 3 -1 0
1
1.000000000000000 0.000000000000000 0.000000000000000 0.000000000000000 
0.000000000000000 1.000000000000000 0.000000000000000 0.000000000000000 
0.000000000000000 0.000000000000000 1.000000000000000 1.500000000000000 
2  1 1 2 1 3 -1 5 1 0
2  3 1 2 -1 1 -1 0
2  5 -1 3 1 2 -1 1 -1 0
2  3 -1 0
2  1 1 2 1 0
2  3 -1 5 1 0
Curve2ds 32
1 3.14181014555763216 0.00000000000000000 0.00000000000000000 -1.00000000000000000 
1 4.71238898038468967 0.00000000000000000 0.00000000000000000 -1.00000000000000000 
1 0.00000000000000000 0.00000000000000000 1.00000000000000000 0.00000000000000000 
1 0.00000000000000000 -1.50000000000000000 1.00000000000000000 0.00000000000000000 
1 0.00000000000000000 0.00000000000000000 1.00000000000000000 0.00000000000000000 
1 0.00000000000000000 -1.50000000000000000 1.00000000000000000 0.00000000000000000 
1 0.00000000000000000 0.00000000000000000 1.00000000000000000 0.00000000000000000 
1 0.00000000000000000 -1.50000000000000000 1.00000000000000000 0.00000000000000000 
1 0.00000000000000000 0.00000000000000000 1.00000000000000000 0.00000000000000000 
1 0.00000000000000000 -1.50000000000000000 1.00000000000000000 0.00000000000000000 
1 3.14137779330038613 0.00000000000000000 0.00000000000000000 -1.00000000000000000 
1 4.71238898038468967 0.00000000000000000 0.00000000000000000 -1.00000000000000000 
1 3.14146140190019096 0.00000000000000000 0.00000000000000000 -1.00000000000000000 
1 4.71238898038468967 0.00000000000000000 0.00000000000000000 -1.00000000000000000 
1 3.14172127360096276 0.00000000000000000 0.00000000000000000 -1.00000000000000000 
1 4.71238898038468967 0.00000000000000000 0.00000000000000000 -1.00000000000000000 
1 1.57079632679489656 0.00000000000000000 0.00000000000000000 -1.00000000000000000 
1 3.14169380655274866 0.00000000000000000 0.00000000000000000 -1.00000000000000000 
1 0.00000000000000000 0.00000000000000000 1.00000000000000000 0.00000000000000000 
1 0.00000000000000000 -1.50000000000000000 1.00000000000000000 0.00000000000000000 
1 0.00000000000000000 0.00000000000000000 1.00000000000000000 0.00000000000000000 
1 0.00000000000000000 -1.50000000000000000 1.00000000000000000 0.00000000000000000 
1 0.00000000000000000 0.00000000000000000 1.00000000000000000 0.00000000000000000 
1 0.00000000000000000 -1.50000000000000000 1.00000000000000000 0.00000000000000000 
1 0.00000000000000000 0.00000000000000000 1.00000000000000000 0.00000000000000000 
1 0.00000000000000000 -1.50000000000000000 1.00000000000000000 0.00000000000000000 
1 1.57079632679489656 0.00000000000000000 0.00000000000000000 -1.00000000000000000 
1 3.14184182568981329 0.00000000000000000 0.00000000000000000 -1.00000000000000000 
1 1.57079632679489700 0.00000000000000000 0.00000000000000000 -1.00000000000000000 
1 3.14138696857875788 0.00000000000000000 0.00000000000000000 -1.00000000000000000 
1 1.57079632679489656 0.00000000000000000 0.00000000000000000 -1.00000000000000000 
1 3.14144801353785397 0.00000000000000000 0.00000000000000000 -1.00000000000000000 
Curves 40
1 72.88802418587341947 11.41699443069673237 0.00000000000000000 0.00000000000000000 0.00000000000000000 1.00000000000000000 
1 70.79612423255622389 15.90237357098592597 0.00000000000000000 0.00000000000000000 0.00000000000000000 1.00000000000000000 
2 74.08525159937767057 -14.70586148796036241 0.00000000000000000 -0.00000000000000000 0.00000000000000000 1.00000000000000000 0.34186059515016121 -0.93975067623470088 0.00000000000000000 0.93975067623470088 0.34186059515016121 0.00000000000000000 3.50000000000000000
1 103.14306387594888292 0.40342584220089028 0.00000000000000000 -0.93967630207532260 0.34206497528692847 -0.00000000000000000 
1 70.79612423255622389 15.90237357098592597 0.00000000000000000 0.34186059515016159 0.93975067623470077 0.00000000000000000 
2 78.87149071869181682 -27.86289541584192975 0.00000000000000000 0.00000000000000000 -0.00000000000000000 1.00000000000000000 0.93967720227708695 0.34206250235988533 0.00000000000000000 -0.34206250235988533 0.93967720227708695 0.00000000000000000 3.50000000000000000
1 80.06870947695141183 31.15176562381173397 0.00000000000000000 0.93967720227708706 -0.34206250235988533 0.00000000000000000 
2 109.13111285414089480 -16.84774889208478044 0.00000000000000000 0.00000000000000000 0.00000000000000000 1.00000000000000000 -0.34218583363365429 0.93963229790191927 0.00000000000000000 -0.93963229790191927 -0.34218583363365429 0.00000000000000000 3.50000000000000000
1 112.41982589679761873 15.65009847436699175 0.00000000000000000 -0.34218583363365440 -0.93963229790191916 0.00000000000000000 
2 104.34029128945313403 -3.69229289946451900 0.00000000000000000 0.00000000000000000 0.00000000000000000 1.00000000000000000 -0.93967630207532260 -0.34206497528692881 0.00000000000000000 0.34206497528692881 -0.93967630207532260 0.00000000000000000 3.50000000000000000
1 75.58236335187035593 29.05940749886748975 0.00000000000000000 0.00000000000000000 0.00000000000000000 1.00000000000000000 
1 80.06870947695141183 31.15176562381173397 0.00000000000000000 0.00000000000000000 0.00000000000000000 1.00000000000000000 
1 110.32833161240048980 20.13661910005458466 0.00000000000000000 0.00000000000000000 0.00000000000000000 1.00000000000000000 
1 112.41982589679761873 15.65009847436699175 0.00000000000000000 0.00000000000000000 0.00000000000000000 1.00000000000000000 
1 107.62900433210984374 2.49464248174672498 0.00000000000000000 0.00000000000000000 0.00000000000000000 1.00000000000000000 
1 103.14306387594888292 0.40342584220089028 0.00000000000000000 0.00000000000000000 0.00000000000000000 1.00000000000000000 
1 81.43817258649575308 8.30453294273637077 1.50000000000000000 -0.93967630207532271 0.34206497528692842 -0.00000000000000000 
1 73.35997263317855754 22.95021208302555848 1.50000000000000000 0.34186059515015849 0.93975067623470188 0.00000000000000000 
1 101.77621875825958853 23.24977020796980298 1.50000000000000000 0.93967720227708673 -0.34206250235988622 0.00000000000000000 
1 109.23771304265670778 6.91210958228220385 1.50000000000000000 -0.34218583363365607 -0.93963229790191860 0.00000000000000000 
1 175.75977209877837026 0.48637189588539509 0.00000000000000000 0.00000000000000000 0.00000000000000000 1.00000000000000000 
1 171.27379853562322864 2.57886309975253347 0.00000000000000000 0.00000000000000000 0.00000000000000000 1.00000000000000000 
2 174.56292509364394050 -3.77537740611196782 0.00000000000000000 0.00000000000000000 0.00000000000000000 1.00000000000000000 0.93971586006473506 -0.34195628718126447 0.00000000000000000 0.34195628718126447 0.93971586006473506 -0.00000000000000000 3.50000000000000000
1 171.27379853562322864 2.57886309975253347 0.00000000000000000 -0.34186123038840971 0.93975044514877604 -0.00000000000000000 
1 206.02075976669158308 11.49814197353928691 0.00000000000000000 -0.93971586006473484 -0.34195628718126486 0.00000000000000000 
2 204.82391276155715332 -14.78714748376585852 0.00000000000000000 0.00000000000000000 0.00000000000000000 1.00000000000000000 -0.34219042753764184 -0.93963062492747962 0.00000000000000000 0.93963062492747962 -0.34219042753764184 0.00000000000000000 3.50000000000000000
1 203.32160471161120086 29.14060174941449688 0.00000000000000000 0.34219042753764412 -0.93963062492747884 0.00000000000000000 
2 200.03289752436501203 -27.94293525303273995 0.00000000000000000 0.00000000000000000 0.00000000000000000 1.00000000000000000 -0.93970098849268824 0.34199715236513994 0.00000000000000000 -0.34199715236513994 -0.93970098849268824 0.00000000000000000 3.50000000000000000
1 168.58000770714755845 20.22048008909488459 0.00000000000000000 0.93970098849268846 0.34199715236513928 0.00000000000000000 
2 169.77699774042554282 -16.93152662937047737 0.00000000000000000 0.00000000000000000 0.00000000000000000 1.00000000000000000 0.34186123038841287 0.93975044514877482 -0.00000000000000000 -0.93975044514877482 0.34186123038841287 0.00000000000000000 3.50000000000000000
1 208.11261994880334214 15.98481398014760479 0.00000000000000000 0.00000000000000000 0.00000000000000000 1.00000000000000000 
1 206.02075976669158308 11.49814197353928691 0.00000000000000000 0.00000000000000000 0.00000000000000000 1.00000000000000000 
1 198.83590749108702767 31.23188871275715073 0.00000000000000000 0.00000000000000000 0.00000000000000000 1.00000000000000000 
1 203.32160471161120086 29.14060174941449333 0.00000000000000000 0.00000000000000000 0.00000000000000000 1.00000000000000000 
1 166.48787118240483096 15.73501232301103236 0.00000000000000000 0.00000000000000000 0.00000000000000000 1.00000000000000000 
1 168.58000770714755845 20.22048008909488459 0.00000000000000000 0.00000000000000000 0.00000000000000000 1.00000000000000000 
1 184.31184700513443886 3.59841448977342759 1.50000000000000000 -0.93971586006473495 -0.34195628718126453 0.00000000000000000 
1 205.88770718724617836 22.09426649638174922 1.50000000000000000 0.34219042753764167 -0.93963062492747973 0.00000000000000000 
1 190.28500996672201495 28.11985345972441053 1.50000000000000000 0.93970098849268824 0.34199715236513994 0.00000000000000000 
1 168.09487344197927428 11.31748569364056323 1.50000000000000000 -0.34186123038841354 0.93975044514877470 -0.00000000000000000 
Polygon3D 0
PolygonOnTriangulations 0
Surfaces 34
2 74.08525159937767057 14.70586148796036241 0.00000000000000000 0.00000000000000000 0.00000000000000000 -1.00000000000000000 0.34186059515016121 0.93975067623470088 0.00000000000000000 0.93975067623470088 -0.34186059515016121 0.00000000000000000 3.50000000000000000
1 81.43817258649575308 8.30453294273637077 0.00000000000000000 -0.34206497528692842 -0.93967630207532271 0.00000000000000000 -0.93967630207532271 0.34206497528692842 0.00000000000000000 -0.00000000000000000 0.00000000000000000 -1.00000000000000000 
1 70.79612423255622389 15.90237357098592597 0.00000000000000000 -0.93975067623470077 0.34186059515016159 0.00000000000000000 0.34186059515016159 0.93975067623470077 0.00000000000000000 0.00000000000000000 0.00000000000000000 -1.00000000000000000 
1 139.45330349012377269 15.81825895915558533 0.00000000000000000 0.00000000000000000 0.00000000000000000 1.00000000000000000 1.00000000000000000 0.00000000000000000 -0.00000000000000000 -0.00000000000000000 1.00000000000000000 0.00000000000000000 
2 78.87149071869181682 27.86289541584192975 0.00000000000000000 0.00000000000000000 -0.00000000000000000 -1.00000000000000000 0.93967720227708695 -0.34206250235988533 0.00000000000000000 -0.34206250235988533 -0.93967720227708695 0.00000000000000000 3.50000000000000000
2 109.13111285414089480 16.84774889208478044 0.00000000000000000 0.00000000000000000 -0.00000000000000000 -1.00000000000000000 -0.34218583363365429 -0.93963229790191927 0.00000000000000000 -0.93963229790191927 0.34218583363365429 -0.00000000000000000 3.50000000000000000
2 104.34029128945313403 3.69229289946451900 0.00000000000000000 0.00000000000000000 0.00000000000000000 -1.00000000000000000 -0.93967630207532260 0.34206497528692881 0.00000000000000000 0.34206497528692881 0.93967630207532260 0.00000000000000000 3.50000000000000000
1 73.35997263317855754 22.95021208302555848 0.00000000000000000 -0.93975067623470188 0.34186059515015849 0.00000000000000000 0.34186059515015849 0.93975067623470188 0.00000000000000000 0.00000000000000000 0.00000000000000000 -1.00000000000000000 
1 80.06870947695141183 31.15176562381173397 0.00000000000000000 0.34206250235988533 0.93967720227708706 -0.00000000000000000 0.93967720227708706 -0.34206250235988533 0.00000000000000000 0.00000000000000000 -0.00000000000000000 -1.00000000000000000 
1 101.77621875825958853 23.24977020796980298 0.00000000000000000 0.34206250235988622 0.93967720227708673 -0.00000000000000000 0.93967720227708673 -0.34206250235988622 0.00000000000000000 0.00000000000000000 -0.00000000000000000 -1.00000000000000000 
1 112.41982589679761873 15.65009847436699175 0.00000000000000000 0.93963229790191916 -0.34218583363365440 0.00000000000000000 -0.34218583363365440 -0.93963229790191916 0.00000000000000000 0.00000000000000000 -0.00000000000000000 -1.00000000000000000 
1 109.23771304265670778 6.91210958228220385 0.00000000000000000 0.93963229790191860 -0.34218583363365607 0.00000000000000000 -0.34218583363365607 -0.93963229790191860 0.00000000000000000 0.00000000000000000 -0.00000000000000000 -1.00000000000000000 
1 103.14306387594888292 0.40342584220089028 0.00000000000000000 -0.34206497528692847 -0.93967630207532260 0.00000000000000000 -0.93967630207532260 0.34206497528692847 0.00000000000000000 -0.00000000000000000 0.00000000000000000 -1.00000000000000000 
1 88.01554403091114409 5.91021013644881066 0.75000000000000000 -0.34206497528692847 -0.93967630207532260 -0.00000000000000000 -0.93967630207532260 0.34206497528692847 0.00000000000000000 0.00000000000000000 0.00000000000000000 -1.00000000000000000 
1 73.18924379221330412 22.48089053492671141 0.75000000000000000 -0.93975067623470143 0.34186059515015971 -0.00000000000000000 -0.34186059515015971 -0.93975067623470143 0.00000000000000000 0.00000000000000000 0.00000000000000000 1.00000000000000000 
1 95.19852054467594371 25.64419236193316465 0.74999999999999989 0.34206250235988556 0.93967720227708695 0.00000000000000000 0.93967720227708695 -0.34206250235988556 0.00000000000000000 0.00000000000000000 0.00000000000000000 -1.00000000000000000 
1 110.02441511445374545 9.07237047805685748 0.75000000000000022 0.93963229790191860 -0.34218583363365590 0.00000000000000000 0.34218583363365590 0.93963229790191860 0.00000000000000000 -0.00000000000000000 0.00000000000000000 1.00000000000000000 
2 174.56292509364394050 3.77537740611196782 0.00000000000000000 0.00000000000000000 0.00000000000000000 -1.00000000000000000 0.93971586006473506 0.34195628718126447 0.00000000000000000 0.34195628718126447 -0.93971586006473506 0.00000000000000000 3.50000000000000000
1 184.31184700513443886 3.59841448977342759 0.00000000000000000 0.34195628718126453 -0.93971586006473495 0.00000000000000000 -0.93971586006473495 -0.34195628718126453 0.00000000000000000 0.00000000000000000 -0.00000000000000000 -1.00000000000000000 
1 171.27379853562322864 2.57886309975253347 0.00000000000000000 -0.93975044514877604 -0.34186123038840971 0.00000000000000000 -0.34186123038840971 0.93975044514877604 0.00000000000000000 -0.00000000000000000 0.00000000000000000 -1.00000000000000000 
1 139.45330349012377269 15.81825895915558533 0.00000000000000000 0.00000000000000000 0.00000000000000000 1.00000000000000000 1.00000000000000000 0.00000000000000000 -0.00000000000000000 -0.00000000000000000 1.00000000000000000 0.00000000000000000 
2 204.82391276155715332 14.78714748376585852 0.00000000000000000 0.00000000000000000 0.00000000000000000 -1.00000000000000000 -0.34219042753764184 0.93963062492747962 0.00000000000000000 0.93963062492747962 0.34219042753764184 0.00000000000000000 3.50000000000000000
2 200.03289752436501203 27.94293525303273995 0.00000000000000000 0.00000000000000000 -0.00000000000000000 -1.00000000000000000 -0.93970098849268824 -0.34199715236513994 0.00000000000000000 -0.34199715236513994 0.93970098849268824 -0.00000000000000000 3.50000000000000000
2 169.77699774042554282 16.93152662937047737 0.00000000000000000 0.00000000000000000 -0.00000000000000000 -1.00000000000000000 0.34186123038841287 -0.93975044514877482 0.00000000000000000 -0.93975044514877482 -0.34186123038841287 0.00000000000000000 3.50000000000000000
1 205.88770718724617836 22.09426649638174922 0.00000000000000000 0.93963062492747973 0.34219042753764167 -0.00000000000000000 0.34219042753764167 -0.93963062492747973 0.00000000000000000 0.00000000000000000 -0.00000000000000000 -1.00000000000000000 
1 206.02075976669158308 11.49814197353928691 0.00000000000000000 0.34195628718126486 -0.93971586006473484 0.00000000000000000 -0.93971586006473484 -0.34195628718126486 0.00000000000000000 0.00000000000000000 -0.00000000000000000 -1.00000000000000000 
1 190.28500996672201495 28.11985345972441053 0.00000000000000000 -0.34199715236513994 0.93970098849268824 0.00000000000000000 0.93970098849268824 0.34199715236513994 0.00000000000000000 0.00000000000000000 0.00000000000000000 -1.00000000000000000 
1 203.32160471161120086 29.14060174941449688 0.00000000000000000 0.93963062492747884 0.34219042753764412 -0.00000000000000000 0.34219042753764412 -0.93963062492747884 0.00000000000000000 0.00000000000000000 -0.00000000000000000 -1.00000000000000000 
1 168.09487344197927428 11.31748569364056323 0.00000000000000000 -0.93975044514877470 -0.34186123038841354 0.00000000000000000 -0.34186123038841354 0.93975044514877470 0.00000000000000000 -0.00000000000000000 0.00000000000000000 -1.00000000000000000 
1 168.58000770714755845 20.22048008909488459 0.00000000000000000 -0.34199715236513928 0.93970098849268846 0.00000000000000000 0.93970098849268846 0.34199715236513928 0.00000000000000000 0.00000000000000000 0.00000000000000000 -1.00000000000000000 
1 168.88083485901401559 9.15693771138178647 0.75000000000000011 -0.93975044514877559 -0.34186123038841087 -0.00000000000000012 0.34186123038841087 -0.93975044514877559 -0.00000000000000000 -0.00000000000000011 -0.00000000000000004 1.00000000000000000 
1 190.89026593273499088 5.99225693471233889 0.75000000000000000 0.34195628718126464 -0.93971586006473495 -0.00000000000000000 -0.93971586006473495 -0.34195628718126464 0.00000000000000000 -0.00000000000000000 0.00000000000000000 -1.00000000000000000 
1 205.71711233020727150 22.56270786478105350 0.75000000000000022 0.93963062492747951 0.34219042753764245 0.00000000000000000 -0.34219042753764245 0.93963062492747951 0.00000000000000000 0.00000000000000000 -0.00000000000000000 1.00000000000000000 
1 183.70795759911734990 25.72618440092601588 0.75000000000000022 -0.34199715236513983 0.93970098849268824 0.00000000000000000 0.93970098849268824 0.34199715236513983 0.00000000000000000 0.00000000000000000 0.00000000000000000 -1.00000000000000000 
Triangulations 0

TShapes 101
Ve
0.000000100000000
72.888024185873419 -11.416994430696732 0.000000000000000
0 0

0101101
*
Ed
 0.000000100000000 1 1 0
1  1 0 0.000000000000000 1.500000000000000
2  1 1 0 0.000000000000000 1.500000000000000
4 G1 2 0 1 0
0

0101000
+101 4 -101 6 *
Ve
0.000157146582209
70.796124232556224 -15.902373570985926 0.000000000000000
0 0

0101101
*
Ed
 0.000000100000000 1 1 0
1  2 0 0.000000000000000 1.500000000000000
2  2 1 0 0.000000000000000 1.500000000000000
4 G1 1 0 3 0
0

0101000
+99 4 -99 6 *
Ed
 0.000000100000000 1 1 0
1  3 0 3.141810145557632 4.712388980384690
2  3 1 7 3.141810145557632 4.712388980384690
2  4 1 8 3.141810145557632 4.712388980384690
0

0101000
+101 0 -99 0 *
Wi

0101100
+100 0 -98 0 -97 4 +97 6 *
Fa
0  0.000000100000000 1 0

0111000
+96 0 *
Ve
0.000000100000000
103.143063875948883 -0.403425842200890 0.000000000000000
0 0

0101101
*
Ed
 0.000000100000000 1 1 0
1  4 0 0.000000000000000 32.197299882156948
0

0101000
+94 4 -101 4 *
Ve
0.000157146582209
75.582363351870356 -29.059407498867490 0.000000000000000
0 0

0101101
*
Ed
 0.000000100000000 1 1 0
1  5 0 0.000000000000000 14.000558084829315
0

0101000
+99 4 -92 4 *
Ve
0.000157146582209
80.068709476951412 -31.151765623811734 0.000000000000000
0 0

0101101
*
Ed
 0.000157146582209 1 1 0
1  6 0 3.141377793300386 4.712388980384690
2  5 5 7 3.141377793300386 4.712388980384690
2  6 5 8 3.141377793300386 4.712388980384690
0

0101000
+92 0 -90 0 *
Ve
0.000157146582209
110.328331612400490 -20.136619100054585 0.000000000000000
0 0

0101101
*
Ed
 0.000000100000000 1 1 0
1  7 0 0.000000000000000 32.202145653977766
0

0101000
+90 4 -88 4 *
Ve
0.000157146582209
112.419825896797619 -15.650098474366992 0.000000000000000
0 0

0101101
*
Ed
 0.000157146582209 1 1 0
1  8 0 3.141461401900191 4.712388980384690
2  7 6 7 3.141461401900191 4.712388980384690
2  8 6 8 3.141461401900191 4.712388980384690
0

0101000
+88 0 -86 0 *
Ve
0.000157146582209
107.629004332109844 -2.494642481746725 0.000000000000000
0 0

0101101
*
Ed
 0.000000100000000 1 1 0
1  9 0 0.000000000000000 14.000642615196130
0

0101000
+86 4 -84 4 *
Ed
 0.000000100000000 1 1 0
1  10 0 3.141721273600963 4.712388980384690
2  9 7 7 3.141721273600963 4.712388980384690
2  10 7 8 3.141721273600963 4.712388980384690
0

0101000
+84 0 -94 0 *
Wi

0101000
+93 7 +97 0 +91 7 +89 0 +87 7 +85 0 +83 7 +82 0 *
Fa
0  0.000000100000000 4 0

0111000
-81 10 *
Ed
 0.000000100000000 1 1 0
1  11 0 0.000000000000000 1.500000000000000
2  11 5 0 0.000000000000000 1.500000000000000
4 G1 8 0 5 0
0

0101000
+92 4 -92 6 *
Ed
 0.000000100000000 1 1 0
1  12 0 0.000000000000000 1.500000000000000
2  12 5 0 0.000000000000000 1.500000000000000
4 G1 5 0 9 0
0

0101000
+90 4 -90 6 *
Wi

0101100
+79 0 -78 0 -89 4 +89 6 *
Fa
0  0.000000100000000 5 0

0111000
+77 0 *
Ed
 0.000000100000000 1 1 0
1  13 0 0.000000000000000 1.500000000000000
2  13 6 0 0.000000000000000 1.500000000000000
4 G1 10 0 6 0
0

0101000
+88 4 -88 6 *
Ed
 0.000000100000000 1 1 0
1  14 0 0.000000000000000 1.500000000000000
2  14 6 0 0.000000000000000 1.500000000000000
4 G1 6 0 11 0
0

0101000
+86 4 -86 6 *
Wi

0101100
+75 0 -74 0 -85 4 +85 6 *
Fa
0  0.000000100000000 6 0

0111000
+73 0 *
Ed
 0.000000100000000 1 1 0
1  15 0 0.000000000000000 1.500000000000000
2  15 7 0 0.000000000000000 1.500000000000000
4 G1 12 0 7 0
0

0101000
+84 4 -84 6 *
Ed
 0.000000100000000 1 1 0
1  16 0 0.000000000000000 1.500000000000000
2  16 7 0 0.000000000000000 1.500000000000000
4 G1 13 0 7 0
0

0101000
+94 4 -94 6 *
Wi

0101100
+71 0 -70 0 -82 4 +82 6 *
Fa
0  0.000000100000000 7 0

0111000
+69 0 *
Ed
 0.000000100000000 1 1 0
1  17 0 -23.098263988904243 9.099035893252706
0

0101000
+94 6 -101 6 *
Ed
 0.000157146582209 1 1 0
1  18 0 -7.499689747793752 6.500868337035563
0

0101000
+99 6 -92 6 *
Ed
 0.000000100000000 1 1 0
1  19 0 -23.101027915442799 9.101117738534967
0

0101000
+90 6 -88 6 *
Ed
 0.000157146582209 1 1 0
1  20 0 -9.299370521421650 4.701272093774480
0

0101000
+86 6 -84 6 *
Wi

0101000
+67 8 +97 0 +66 8 +89 0 +65 8 +85 0 +64 8 +82 0 *
Fa
0  0.000000100000000 4 0

0111000
-63 10 *
Wi

0101000
+70 0 +67 0 -100 0 -93 0 *
Fa
0  0.000000100000000 14 0

0111000
+61 0 *
Wi

0101000
+98 0 +66 0 -79 0 -91 0 *
Fa
0  0.000000100000000 15 0

0111000
+59 0 *
Wi

0101000
+78 0 +65 0 -75 0 -87 0 *
Fa
0  0.000000100000000 16 0

0111000
+57 0 *
Wi

0101000
+74 0 +64 0 -71 0 -83 0 *
Fa
0  0.000000100000000 17 0

0111000
+55 0 *
Sh

0101000
+95 0 -80 9 +76 0 +72 0 +68 0 +62 11 +60 0 +58 0 +56 0 +54 0 
*
So

0100000
+53 0 *
Ve
0.000000100000000
175.759772098778370 -0.486371895885395 0.000000000000000
0 0

0101101
*
Ed
 0.000000100000000 1 1 0
1  21 0 0.000000000000000 1.500000000000000
2  17 18 0 0.000000000000000 1.500000000000000
4 G1 18 0 19 0
0

0101000
+51 4 -51 6 *
Ve
0.000157420487838
171.273798535623229 -2.578863099752533 0.000000000000000
0 0

0101101
*
Ed
 0.000000100000000 1 1 0
1  22 0 0.000000000000000 1.500000000000000
2  18 18 0 0.000000000000000 1.500000000000000
4 G1 20 0 18 0
0

0101000
+49 4 -49 6 *
Ed
 0.000000100000000 1 1 0
1  23 0 1.570796326794897 3.141693806552749
2  19 18 7 1.570796326794897 3.141693806552749
2  20 18 8 1.570796326794897 3.141693806552749
0

0101000
+51 0 -49 0 *
Wi

0101100
+50 0 -48 0 -47 4 +47 6 *
Fa
0  0.000000100000000 18 0

0111000
+46 0 *
Ve
0.000157420487838
166.487871182404831 -15.735012323011032 0.000000000000000
0 0

0101101
*
Ed
 0.000000100000000 1 1 0
1  24 0 0.000000000000000 13.999620102521684
0

0101000
+49 4 -44 4 *
Ve
0.000000100000000
206.020759766691583 -11.498141973539287 0.000000000000000
0 0

0101101
*
Ed
 0.000000100000000 1 1 0
1  25 0 0.000000000000000 32.202274063809668
0

0101000
+42 4 -51 4 *
Ve
0.000157420487838
208.112619948803342 -15.984813980147605 0.000000000000000
0 0

0101101
*
Ed
 0.000000100000000 1 1 0
1  26 0 1.570796326794897 3.141841825689813
2  21 22 7 1.570796326794897 3.141841825689813
2  22 22 8 1.570796326794897 3.141841825689813
0

0101000
+40 0 -42 0 *
Ve
0.000157420487838
203.321604711611201 -29.140601749414493 0.000000000000000
0 0

0101101
*
Ed
 0.000000100000000 1 1 0
1  27 0 0.000000000000003 14.001020635403679
0

0101000
+38 4 -40 4 *
Ve
0.000157420487838
198.835907491087028 -31.231888712757151 0.000000000000000
0 0

0101101
*
Ed
 0.000157420487838 1 1 0
1  28 0 1.570796326794897 3.141386968578758
2  23 23 7 1.570796326794897 3.141386968578758
2  24 23 8 1.570796326794897 3.141386968578758
0

0101000
+36 0 -38 0 *
Ve
0.000157420487838
168.580007707147558 -20.220480089094885 0.000000000000000
0 0

0101101
*
Ed
 0.000000100000000 1 1 0
1  29 0 0.000000000000000 32.197369327525074
0

0101000
+34 4 -36 4 *
Ed
 0.000157420487838 1 1 0
1  30 0 1.570796326794897 3.141448013537854
2  25 24 7 1.570796326794897 3.141448013537854
2  26 24 8 1.570796326794897 3.141448013537854
0

0101000
+44 0 -34 0 *
Wi

0101000
-43 7 -47 0 -41 7 -39 0 -37 7 -35 0 -33 7 -32 0 *
Fa
0  0.000000100000000 21 0

0111000
+31 10 *
Ed
 0.000000100000002 1 1 0
1  31 0 0.000000000000000 1.500000000000000
2  27 22 0 0.000000000000000 1.500000000000000
4 G1 22 0 25 0
0

0101000
+40 4 -40 6 *
Ed
 0.000000100000000 1 1 0
1  32 0 0.000000000000000 1.500000000000000
2  28 22 0 0.000000000000000 1.500000000000000
4 G1 26 0 22 0
0

0101000
+42 4 -42 6 *
Wi

0101100
+29 0 -28 0 -39 4 +39 6 *
Fa
0  0.000000100000000 22 0

0111000
+27 0 *
Ed
 0.000000100000000 1 1 0
1  33 0 0.000000000000000 1.500000000000000
2  29 23 0 0.000000000000000 1.500000000000000
4 G1 23 0 27 0
0

0101000
+36 4 -36 6 *
Ed
 0.000000100000002 1 1 0
1  34 0 0.000000000000000 1.500000000000000
2  30 23 0 0.000000000000000 1.500000000000000
4 G1 28 0 23 0
0

0101000
+38 4 -38 6 *
Wi

0101100
+25 0 -24 0 -35 4 +35 6 *
Fa
0  0.000000100000000 23 0

0111000
+23 0 *
Ed
 0.000000100000000 1 1 0
1  35 0 0.000000000000000 1.500000000000000
2  31 24 0 0.000000000000000 1.500000000000000
4 G1 24 0 29 0
0

0101000
+44 4 -44 6 *
Ed
 0.000000100000000 1 1 0
1  36 0 0.000000000000000 1.500000000000000
2  32 24 0 0.000000000000000 1.500000000000000
4 G1 30 0 24 0
0

0101000
+34 4 -34 6 *
Wi

0101100
+21 0 -20 0 -32 4 +32 6 *
Fa
0  0.000000100000000 24 0

0111000
+19 0 *
Ed
 0.000000100000000 1 1 0
1  37 0 -23.101571106889338 9.100702956920335
0

0101000
+42 6 -51 6 *
Ed
 0.000157420487838 1 1 0
1  38 0 -7.499048100498622 6.501972534905054
0

0101000
+38 6 -40 6 *
Ed
 0.000157420487838 1 1 0
1  39 0 -23.097775276782460 9.099594050742608
0

0101000
+34 6 -36 6 *
Ed
 0.000157420487838 1 1 0
1  40 0 -9.298875716419142 4.700744386102545
0

0101000
+49 6 -44 6 *
Wi

0101000
-47 0 -17 8 -39 0 -16 8 -35 0 -15 8 -32 0 -14 8 *
Fa
0  0.000000100000000 21 0

0111000
+13 10 *
Wi

0101000
-43 0 +48 0 +14 0 -21 0 *
Fa
0  0.000000100000000 31 0

0111000
+11 0 *
Wi

0101000
-50 0 -41 0 +28 0 +17 0 *
Fa
0  0.000000100000000 32 0

0111000
+9 0 *
Wi

0101000
-29 0 -37 0 +24 0 +16 0 *
Fa
0  0.000000100000002 33 0

0111000
+7 0 *
Wi

0101000
-25 0 -33 0 +20 0 +15 0 *
Fa
0  0.000000100000000 34 0

0111000
+5 0 *
Sh

0101000
+45 0 -30 9 +26 0 +22 0 +18 0 +12 11 +10 0 +8 0 +6 0 +4 0 
*
So

0100000
+3 0 *
Co

1100000
+52 0 +2 0 *

+1 0 