  0
SECTION
  2
HEADER
  9
$ACADVER
  1
AC1009
  9
$FILLMODE
 70
 0
  9
$SPLFRAME
 70
 1
  9
$EXTMIN
 10
0
 20
0
 30
0.0
  9
$EXTMAX
 10
1058.33
 20
1058.33
 30
0.0
  0
ENDSEC
  0
SECTION
  2
TABLES
  0
TABLE
  2
LAYER
 70
1
  0
LAYER
  2
0
 70
     0
 62
     7
  6
CONTINUOUS
  0
ENDTAB
  0
ENDSEC
  0
SECTION
  2
ENTITIES
  0
LINE
  8
0
 62
     0
 10
0.0950846
 20
140.31
 30
0.0
 11
280.063
 21
140.31
 31
0.0
  0
LINE
  8
0
 62
     0
 10
280.063
 20
140.31
 30
0.0
 11
280.063
 21
0.308681
 31
0.0
  0
LINE
  8
0
 62
     0
 10
280.063
 20
0.308681
 30
0.0
 11
0.0950846
 21
0.308681
 31
0.0
  0
LINE
  8
0
 62
     0
 10
0.0950846
 20
0.308681
 30
0.0
 11
0.0950846
 21
140.31
 31
0.0
  0
LINE
  8
0
 62
     0
 10
193.419
 20
23.971
 30
0.0
 11
194.524
 21
20.9365
 31
0.0
  0
LINE
  8
0
 62
     0
 10
194.524
 20
20.9365
 30
0.0
 11
193.091
 21
20.4143
 31
0.0
  0
LINE
  8
0
 62
     0
 10
193.091
 20
20.4143
 30
0.0
 11
191.482
 21
24.8309
 31
0.0
  0
LINE
  8
0
 62
     0
 10
191.482
 20
24.8309
 30
0.0
 11
178.328
 21
20.0436
 31
0.0
  0
LINE
  8
0
 62
     0
 10
178.328
 20
20.0436
 30
0.0
 11
179.935
 21
15.627
 31
0.0
  0
LINE
  8
0
 62
     0
 10
179.935
 20
15.627
 30
0.0
 11
178.501
 21
15.1061
 31
0.0
  0
LINE
  8
0
 62
     0
 10
178.501
 20
15.1061
 30
0.0
 11
177.396
 21
18.1405
 31
0.0
  0
LINE
  8
0
 62
     0
 10
177.396
 20
18.1405
 30
0.0
 11
171.053
 21
15.8323
 31
0.0
  0
LINE
  8
0
 62
     0
 10
171.053
 20
15.8323
 30
0.0
 11
172.158
 21
12.7964
 31
0.0
  0
LINE
  8
0
 62
     0
 10
172.158
 20
12.7964
 30
0.0
 11
171.384
 21
12.514
 31
0.0
  0
LINE
  8
0
 62
     0
 10
171.384
 20
12.514
 30
0.0
 11
172.341
 21
9.88328
 31
0.0
  0
LINE
  8
0
 62
     0
 10
172.341
 20
9.88328
 30
0.0
 11
173.116
 21
10.1644
 31
0.0
  0
LINE
  8
0
 62
     0
 10
173.116
 20
10.1644
 30
0.0
 11
175.26
 21
4.2733
 31
0.0
  0
LINE
  8
0
 62
     0
 10
175.26
 20
4.2733
 30
0.0
 11
176.881
 21
4.86311
 31
0.0
  0
LINE
  8
0
 62
     0
 10
176.881
 20
4.86311
 30
0.0
 11
177.293
 21
3.73447
 31
0.0
  0
LINE
  8
0
 62
     0
 10
177.293
 20
3.73447
 30
0.0
 11
180.394
 21
4.86449
 31
0.0
  0
LINE
  8
0
 62
     0
 10
180.394
 20
4.86449
 30
0.0
 11
179.983
 21
5.99172
 31
0.0
  0
LINE
  8
0
 62
     0
 10
179.983
 20
5.99172
 30
0.0
 11
181.603
 21
6.58153
 31
0.0
  0
LINE
  8
0
 62
     0
 10
181.603
 20
6.58153
 30
0.0
 11
180.075
 21
10.7818
 31
0.0
  0
LINE
  8
0
 62
     0
 10
180.075
 20
10.7818
 30
0.0
 11
181.508
 21
11.3041
 31
0.0
  0
LINE
  8
0
 62
     0
 10
181.508
 20
11.3041
 30
0.0
 11
183.115
 21
6.88742
 31
0.0
  0
LINE
  8
0
 62
     0
 10
183.115
 20
6.88742
 30
0.0
 11
196.271
 21
11.6748
 31
0.0
  0
LINE
  8
0
 62
     0
 10
196.271
 20
11.6748
 30
0.0
 11
194.663
 21
16.0927
 31
0.0
  0
LINE
  8
0
 62
     0
 10
194.663
 20
16.0927
 30
0.0
 11
196.096
 21
16.6136
 31
0.0
  0
LINE
  8
0
 62
     0
 10
196.096
 20
16.6136
 30
0.0
 11
197.626
 21
12.4134
 31
0.0
  0
LINE
  8
0
 62
     0
 10
197.626
 20
12.4134
 30
0.0
 11
199.246
 21
13.0032
 31
0.0
  0
LINE
  8
0
 62
     0
 10
199.246
 20
13.0032
 30
0.0
 11
199.657
 21
11.8746
 31
0.0
  0
LINE
  8
0
 62
     0
 10
199.657
 20
11.8746
 30
0.0
 11
202.758
 21
13.0046
 31
0.0
  0
LINE
  8
0
 62
     0
 10
202.758
 20
13.0046
 30
0.0
 11
202.347
 21
14.1318
 31
0.0
  0
LINE
  8
0
 62
     0
 10
202.347
 20
14.1318
 30
0.0
 11
203.969
 21
14.7216
 31
0.0
  0
LINE
  8
0
 62
     0
 10
203.969
 20
14.7216
 30
0.0
 11
201.823
 21
20.6141
 31
0.0
  0
LINE
  8
0
 62
     0
 10
201.823
 20
20.6141
 30
0.0
 11
202.599
 21
20.8966
 31
0.0
  0
LINE
  8
0
 62
     0
 10
202.599
 20
20.8966
 30
0.0
 11
201.641
 21
23.5272
 31
0.0
  0
LINE
  8
0
 62
     0
 10
201.641
 20
23.5272
 30
0.0
 11
200.867
 21
23.2447
 31
0.0
  0
LINE
  8
0
 62
     0
 10
200.867
 20
23.2447
 30
0.0
 11
199.762
 21
26.2806
 31
0.0
  0
LINE
  8
0
 62
     0
 10
199.762
 20
26.2806
 30
0.0
 11
193.419
 21
23.971
 31
0.0
  0
LINE
  8
0
 62
     0
 10
81.19
 20
26.7725
 30
0.0
 11
79.568
 21
27.3637
 31
0.0
  0
LINE
  8
0
 62
     0
 10
79.568
 20
27.3637
 30
0.0
 11
77.4252
 21
21.4712
 31
0.0
  0
LINE
  8
0
 62
     0
 10
77.4252
 20
21.4712
 30
0.0
 11
76.6491
 21
21.7537
 31
0.0
  0
LINE
  8
0
 62
     0
 10
76.6491
 20
21.7537
 30
0.0
 11
75.6916
 21
19.1216
 31
0.0
  0
LINE
  8
0
 62
     0
 10
75.6916
 20
19.1216
 30
0.0
 11
76.466
 21
18.8406
 31
0.0
  0
LINE
  8
0
 62
     0
 10
76.466
 20
18.8406
 30
0.0
 11
75.3622
 21
15.8047
 31
0.0
  0
LINE
  8
0
 62
     0
 10
75.3622
 20
15.8047
 30
0.0
 11
81.704
 21
13.4965
 31
0.0
  0
LINE
  8
0
 62
     0
 10
81.704
 20
13.4965
 30
0.0
 11
82.8089
 21
16.531
 31
0.0
  0
LINE
  8
0
 62
     0
 10
82.8089
 20
16.531
 30
0.0
 11
84.2423
 21
16.01
 31
0.0
  0
LINE
  8
0
 62
     0
 10
84.2423
 20
16.01
 30
0.0
 11
82.6354
 21
11.5934
 31
0.0
  0
LINE
  8
0
 62
     0
 10
82.6354
 20
11.5934
 30
0.0
 11
95.7901
 21
6.80477
 31
0.0
  0
LINE
  8
0
 62
     0
 10
95.7901
 20
6.80477
 30
0.0
 11
97.3984
 21
11.2227
 31
0.0
  0
LINE
  8
0
 62
     0
 10
97.3984
 20
11.2227
 30
0.0
 11
98.8314
 21
10.7005
 31
0.0
  0
LINE
  8
0
 62
     0
 10
98.8314
 20
10.7005
 30
0.0
 11
97.7265
 21
7.66466
 31
0.0
  0
LINE
  8
0
 62
     0
 10
97.7265
 20
7.66466
 30
0.0
 11
104.069
 21
5.35644
 31
0.0
  0
LINE
  8
0
 62
     0
 10
104.069
 20
5.35644
 30
0.0
 11
105.175
 21
8.39089
 31
0.0
  0
LINE
  8
0
 62
     0
 10
105.175
 20
8.39089
 30
0.0
 11
105.949
 21
8.10976
 31
0.0
  0
LINE
  8
0
 62
     0
 10
105.949
 20
8.10976
 30
0.0
 11
106.907
 21
10.7404
 31
0.0
  0
LINE
  8
0
 62
     0
 10
106.907
 20
10.7404
 30
0.0
 11
106.131
 21
11.0216
 31
0.0
  0
LINE
  8
0
 62
     0
 10
106.131
 20
11.0216
 30
0.0
 11
108.277
 21
16.9154
 31
0.0
  0
LINE
  8
0
 62
     0
 10
108.277
 20
16.9154
 30
0.0
 11
106.656
 21
17.5038
 31
0.0
  0
LINE
  8
0
 62
     0
 10
106.656
 20
17.5038
 30
0.0
 11
107.065
 21
18.6325
 31
0.0
  0
LINE
  8
0
 62
     0
 10
107.065
 20
18.6325
 30
0.0
 11
103.965
 21
19.7597
 31
0.0
  0
LINE
  8
0
 62
     0
 10
103.965
 20
19.7597
 30
0.0
 11
103.554
 21
18.6325
 31
0.0
  0
LINE
  8
0
 62
     0
 10
103.554
 20
18.6325
 30
0.0
 11
101.933
 21
19.2236
 31
0.0
  0
LINE
  8
0
 62
     0
 10
101.933
 20
19.2236
 30
0.0
 11
100.404
 21
15.0234
 31
0.0
  0
LINE
  8
0
 62
     0
 10
100.404
 20
15.0234
 30
0.0
 11
98.9722
 21
15.5443
 31
0.0
  0
LINE
  8
0
 62
     0
 10
98.9722
 20
15.5443
 30
0.0
 11
100.579
 21
19.9609
 31
0.0
  0
LINE
  8
0
 62
     0
 10
100.579
 20
19.9609
 30
0.0
 11
87.424
 21
24.7496
 31
0.0
  0
LINE
  8
0
 62
     0
 10
87.424
 20
24.7496
 30
0.0
 11
85.816
 21
20.3316
 31
0.0
  0
LINE
  8
0
 62
     0
 10
85.816
 20
20.3316
 30
0.0
 11
84.3827
 21
20.8539
 31
0.0
  0
LINE
  8
0
 62
     0
 10
84.3827
 20
20.8539
 30
0.0
 11
85.9109
 21
25.0541
 31
0.0
  0
LINE
  8
0
 62
     0
 10
85.9109
 20
25.0541
 30
0.0
 11
84.2906
 21
25.6439
 31
0.0
  0
LINE
  8
0
 62
     0
 10
84.2906
 20
25.6439
 30
0.0
 11
84.7012
 21
26.7725
 31
0.0
  0
LINE
  8
0
 62
     0
 10
84.7012
 20
26.7725
 30
0.0
 11
81.6007
 21
27.9011
 31
0.0
  0
LINE
  8
0
 62
     0
 10
81.6007
 20
27.9011
 30
0.0
 11
81.19
 21
26.7725
 31
0.0
  0
LINE
  8
0
 62
     0
 10
55.783
 20
21.3665
 30
0.0
 11
68.9391
 21
16.5778
 31
0.0
  0
LINE
  8
0
 62
     0
 10
68.9391
 20
16.5778
 30
0.0
 11
73.7277
 21
29.7339
 31
0.0
  0
LINE
  8
0
 62
     0
 10
73.7277
 20
29.7339
 30
0.0
 11
60.5716
 21
34.5226
 31
0.0
  0
LINE
  8
0
 62
     0
 10
60.5716
 20
34.5226
 30
0.0
 11
55.783
 21
21.3665
 31
0.0
  0
LINE
  8
0
 62
     0
 10
205.179
 20
29.8166
 30
0.0
 11
209.968
 21
16.6605
 31
0.0
  0
LINE
  8
0
 62
     0
 10
209.968
 20
16.6605
 30
0.0
 11
223.122
 21
21.4492
 31
0.0
  0
LINE
  8
0
 62
     0
 10
223.122
 20
21.4492
 30
0.0
 11
218.335
 21
34.6039
 31
0.0
  0
LINE
  8
0
 62
     0
 10
218.335
 20
34.6039
 30
0.0
 11
205.179
 21
29.8166
 31
0.0
  0
LINE
  8
0
 62
     0
 10
98.1012
 20
26.2365
 30
0.0
 11
111.256
 21
21.4478
 31
0.0
  0
LINE
  8
0
 62
     0
 10
111.256
 20
21.4478
 30
0.0
 11
116.046
 21
34.6039
 31
0.0
  0
LINE
  8
0
 62
     0
 10
116.046
 20
34.6039
 30
0.0
 11
102.89
 21
39.3926
 31
0.0
  0
LINE
  8
0
 62
     0
 10
102.89
 20
39.3926
 30
0.0
 11
98.1012
 21
26.2365
 31
0.0
  0
LINE
  8
0
 62
     0
 10
162.862
 20
34.6866
 30
0.0
 11
167.65
 21
21.5305
 31
0.0
  0
LINE
  8
0
 62
     0
 10
167.65
 20
21.5305
 30
0.0
 11
180.806
 21
26.3192
 31
0.0
  0
LINE
  8
0
 62
     0
 10
180.806
 20
26.3192
 30
0.0
 11
176.017
 21
39.4741
 31
0.0
  0
LINE
  8
0
 62
     0
 10
176.017
 20
39.4741
 30
0.0
 11
162.862
 21
34.6866
 31
0.0
  0
LINE
  8
0
 62
     0
 10
37.8823
 20
27.8819
 30
0.0
 11
51.0371
 21
23.0945
 31
0.0
  0
LINE
  8
0
 62
     0
 10
51.0371
 20
23.0945
 30
0.0
 11
55.8271
 21
36.2493
 31
0.0
  0
LINE
  8
0
 62
     0
 10
55.8271
 20
36.2493
 30
0.0
 11
42.6709
 21
41.0379
 31
0.0
  0
LINE
  8
0
 62
     0
 10
42.6709
 20
41.0379
 30
0.0
 11
37.8823
 21
27.8819
 31
0.0
  0
LINE
  8
0
 62
     0
 10
223.08
 20
36.3305
 30
0.0
 11
227.868
 21
23.1758
 31
0.0
  0
LINE
  8
0
 62
     0
 10
227.868
 20
23.1758
 30
0.0
 11
241.023
 21
27.9645
 31
0.0
  0
LINE
  8
0
 62
     0
 10
241.023
 20
27.9645
 30
0.0
 11
236.236
 21
41.1208
 31
0.0
  0
LINE
  8
0
 62
     0
 10
236.236
 20
41.1208
 30
0.0
 11
223.08
 21
36.3305
 31
0.0
  0
LINE
  8
0
 62
     0
 10
80.1991
 20
32.7518
 30
0.0
 11
93.3552
 21
27.9645
 31
0.0
  0
LINE
  8
0
 62
     0
 10
93.3552
 20
27.9645
 30
0.0
 11
98.1438
 21
41.1194
 31
0.0
  0
LINE
  8
0
 62
     0
 10
98.1438
 20
41.1194
 30
0.0
 11
84.9891
 21
45.908
 31
0.0
  0
LINE
  8
0
 62
     0
 10
84.9891
 20
45.908
 30
0.0
 11
80.1991
 21
32.7518
 31
0.0
  0
LINE
  8
0
 62
     0
 10
180.763
 20
41.202
 30
0.0
 11
185.55
 21
28.0458
 31
0.0
  0
LINE
  8
0
 62
     0
 10
185.55
 20
28.0458
 30
0.0
 11
198.706
 21
32.8345
 31
0.0
  0
LINE
  8
0
 62
     0
 10
198.706
 20
32.8345
 30
0.0
 11
193.918
 21
45.9906
 31
0.0
  0
LINE
  8
0
 62
     0
 10
193.918
 20
45.9906
 30
0.0
 11
180.763
 21
41.202
 31
0.0
  0
LINE
  8
0
 62
     0
 10
19.9815
 20
34.3972
 30
0.0
 11
33.1363
 21
29.6085
 31
0.0
  0
LINE
  8
0
 62
     0
 10
33.1363
 20
29.6085
 30
0.0
 11
37.925
 21
42.7648
 31
0.0
  0
LINE
  8
0
 62
     0
 10
37.925
 20
42.7648
 30
0.0
 11
24.7688
 21
47.5534
 31
0.0
  0
LINE
  8
0
 62
     0
 10
24.7688
 20
47.5534
 30
0.0
 11
19.9815
 21
34.3972
 31
0.0
  0
LINE
  8
0
 62
     0
 10
240.982
 20
42.8473
 30
0.0
 11
245.769
 21
29.6912
 31
0.0
  0
LINE
  8
0
 62
     0
 10
245.769
 20
29.6912
 30
0.0
 11
258.925
 21
34.4785
 31
0.0
  0
LINE
  8
0
 62
     0
 10
258.925
 20
34.4785
 30
0.0
 11
254.135
 21
47.6345
 31
0.0
  0
LINE
  8
0
 62
     0
 10
254.135
 20
47.6345
 30
0.0
 11
240.982
 21
42.8473
 31
0.0
  0
LINE
  8
0
 62
     0
 10
62.2984
 20
39.2673
 30
0.0
 11
75.4546
 21
34.4785
 31
0.0
  0
LINE
  8
0
 62
     0
 10
75.4546
 20
34.4785
 30
0.0
 11
80.2432
 21
47.6345
 31
0.0
  0
LINE
  8
0
 62
     0
 10
80.2432
 20
47.6345
 30
0.0
 11
67.087
 21
52.4235
 31
0.0
  0
LINE
  8
0
 62
     0
 10
67.087
 20
52.4235
 30
0.0
 11
62.2984
 21
39.2673
 31
0.0
  0
LINE
  8
0
 62
     0
 10
198.664
 20
47.7174
 30
0.0
 11
203.451
 21
34.5612
 31
0.0
  0
LINE
  8
0
 62
     0
 10
203.451
 20
34.5612
 30
0.0
 11
216.607
 21
39.3499
 31
0.0
  0
LINE
  8
0
 62
     0
 10
216.607
 20
39.3499
 30
0.0
 11
211.82
 21
52.5046
 31
0.0
  0
LINE
  8
0
 62
     0
 10
211.82
 20
52.5046
 30
0.0
 11
198.664
 21
47.7174
 31
0.0
  0
LINE
  8
0
 62
     0
 10
2.07946
 20
40.9127
 30
0.0
 11
15.2356
 21
36.1252
 31
0.0
  0
LINE
  8
0
 62
     0
 10
15.2356
 20
36.1252
 30
0.0
 11
20.0229
 21
49.2799
 31
0.0
  0
LINE
  8
0
 62
     0
 10
20.0229
 20
49.2799
 30
0.0
 11
6.86816
 21
54.0688
 31
0.0
  0
LINE
  8
0
 62
     0
 10
6.86816
 20
54.0688
 30
0.0
 11
2.07946
 21
40.9127
 31
0.0
  0
LINE
  8
0
 62
     0
 10
258.882
 20
49.3628
 30
0.0
 11
263.671
 21
36.2066
 31
0.0
  0
LINE
  8
0
 62
     0
 10
263.671
 20
36.2066
 30
0.0
 11
276.826
 21
40.9952
 31
0.0
  0
LINE
  8
0
 62
     0
 10
276.826
 20
40.9952
 30
0.0
 11
272.037
 21
54.1514
 31
0.0
  0
LINE
  8
0
 62
     0
 10
272.037
 20
54.1514
 30
0.0
 11
258.882
 21
49.3628
 31
0.0
  0
LINE
  8
0
 62
     0
 10
104.617
 20
44.1385
 30
0.0
 11
117.773
 21
39.3485
 31
0.0
  0
LINE
  8
0
 62
     0
 10
117.773
 20
39.3485
 30
0.0
 11
122.56
 21
52.5046
 31
0.0
  0
LINE
  8
0
 62
     0
 10
122.56
 20
52.5046
 30
0.0
 11
109.404
 21
57.2932
 31
0.0
  0
LINE
  8
0
 62
     0
 10
109.404
 20
57.2932
 30
0.0
 11
104.617
 21
44.1385
 31
0.0
  0
LINE
  8
0
 62
     0
 10
156.345
 20
52.5872
 30
0.0
 11
161.134
 21
39.4324
 31
0.0
  0
LINE
  8
0
 62
     0
 10
161.134
 20
39.4324
 30
0.0
 11
174.29
 21
44.22
 31
0.0
  0
LINE
  8
0
 62
     0
 10
174.29
 20
44.22
 30
0.0
 11
169.502
 21
57.3761
 31
0.0
  0
LINE
  8
0
 62
     0
 10
169.502
 20
57.3761
 30
0.0
 11
156.345
 21
52.5872
 31
0.0
  0
LINE
  8
0
 62
     0
 10
44.3978
 20
45.7824
 30
0.0
 11
57.5539
 21
40.9952
 31
0.0
  0
LINE
  8
0
 62
     0
 10
57.5539
 20
40.9952
 30
0.0
 11
62.3411
 21
54.15
 31
0.0
  0
LINE
  8
0
 62
     0
 10
62.3411
 20
54.15
 30
0.0
 11
49.185
 21
58.9386
 31
0.0
  0
LINE
  8
0
 62
     0
 10
49.185
 20
58.9386
 30
0.0
 11
44.3978
 21
45.7824
 31
0.0
  0
LINE
  8
0
 62
     0
 10
216.564
 20
54.2325
 30
0.0
 11
221.353
 21
41.0767
 31
0.0
  0
LINE
  8
0
 62
     0
 10
221.353
 20
41.0767
 30
0.0
 11
234.509
 21
45.8653
 31
0.0
  0
LINE
  8
0
 62
     0
 10
234.509
 20
45.8653
 30
0.0
 11
229.72
 21
59.0215
 31
0.0
  0
LINE
  8
0
 62
     0
 10
229.72
 20
59.0215
 30
0.0
 11
216.564
 21
54.2325
 31
0.0
  0
LINE
  8
0
 62
     0
 10
86.716
 20
50.6525
 30
0.0
 11
99.8721
 21
45.8653
 31
0.0
  0
LINE
  8
0
 62
     0
 10
99.8721
 20
45.8653
 30
0.0
 11
104.659
 21
59.0215
 31
0.0
  0
LINE
  8
0
 62
     0
 10
104.659
 20
59.0215
 30
0.0
 11
91.5031
 21
63.8087
 31
0.0
  0
LINE
  8
0
 62
     0
 10
91.5031
 20
63.8087
 30
0.0
 11
86.716
 21
50.6525
 31
0.0
  0
LINE
  8
0
 62
     0
 10
174.246
 20
59.1026
 30
0.0
 11
179.036
 21
45.9465
 31
0.0
  0
LINE
  8
0
 62
     0
 10
179.036
 20
45.9465
 30
0.0
 11
192.191
 21
50.7351
 31
0.0
  0
LINE
  8
0
 62
     0
 10
192.191
 20
50.7351
 30
0.0
 11
187.402
 21
63.8912
 31
0.0
  0
LINE
  8
0
 62
     0
 10
187.402
 20
63.8912
 30
0.0
 11
174.246
 21
59.1026
 31
0.0
  0
LINE
  8
0
 62
     0
 10
26.4969
 20
52.2979
 30
0.0
 11
39.6529
 21
47.5107
 31
0.0
  0
LINE
  8
0
 62
     0
 10
39.6529
 20
47.5107
 30
0.0
 11
44.4405
 21
60.6668
 31
0.0
  0
LINE
  8
0
 62
     0
 10
44.4405
 20
60.6668
 30
0.0
 11
31.2842
 21
65.454
 31
0.0
  0
LINE
  8
0
 62
     0
 10
31.2842
 20
65.454
 30
0.0
 11
26.4969
 21
52.2979
 31
0.0
  0
LINE
  8
0
 62
     0
 10
234.465
 20
60.748
 30
0.0
 11
239.254
 21
47.5918
 31
0.0
  0
LINE
  8
0
 62
     0
 10
239.254
 20
47.5918
 30
0.0
 11
252.41
 21
52.3804
 31
0.0
  0
LINE
  8
0
 62
     0
 10
252.41
 20
52.3804
 30
0.0
 11
247.621
 21
65.5366
 31
0.0
  0
LINE
  8
0
 62
     0
 10
247.621
 20
65.5366
 30
0.0
 11
234.465
 21
60.748
 31
0.0
  0
LINE
  8
0
 62
     0
 10
68.8149
 20
57.1694
 30
0.0
 11
81.9697
 21
52.3804
 31
0.0
  0
LINE
  8
0
 62
     0
 10
81.9697
 20
52.3804
 30
0.0
 11
86.7586
 21
65.5366
 31
0.0
  0
LINE
  8
0
 62
     0
 10
86.7586
 20
65.5366
 30
0.0
 11
73.6025
 21
70.3241
 31
0.0
  0
LINE
  8
0
 62
     0
 10
73.6025
 20
70.3241
 30
0.0
 11
68.8149
 21
57.1694
 31
0.0
  0
LINE
  8
0
 62
     0
 10
192.148
 20
65.6181
 30
0.0
 11
196.937
 21
52.4633
 31
0.0
  0
LINE
  8
0
 62
     0
 10
196.937
 20
52.4633
 30
0.0
 11
210.092
 21
57.2505
 31
0.0
  0
LINE
  8
0
 62
     0
 10
210.092
 20
57.2505
 30
0.0
 11
205.303
 21
70.4067
 31
0.0
  0
LINE
  8
0
 62
     0
 10
205.303
 20
70.4067
 30
0.0
 11
192.148
 21
65.6181
 31
0.0
  0
LINE
  8
0
 62
     0
 10
8.59483
 20
58.8148
 30
0.0
 11
21.751
 21
54.0262
 31
0.0
  0
LINE
  8
0
 62
     0
 10
21.751
 20
54.0262
 30
0.0
 11
26.5396
 21
67.1809
 31
0.0
  0
LINE
  8
0
 62
     0
 10
26.5396
 20
67.1809
 30
0.0
 11
13.3835
 21
71.9695
 31
0.0
  0
LINE
  8
0
 62
     0
 10
13.3835
 20
71.9695
 30
0.0
 11
8.59483
 21
58.8148
 31
0.0
  0
LINE
  8
0
 62
     0
 10
252.367
 20
67.2634
 30
0.0
 11
257.154
 21
54.1087
 31
0.0
  0
LINE
  8
0
 62
     0
 10
257.154
 20
54.1087
 30
0.0
 11
270.31
 21
58.8959
 31
0.0
  0
LINE
  8
0
 62
     0
 10
270.31
 20
58.8959
 30
0.0
 11
265.523
 21
72.052
 31
0.0
  0
LINE
  8
0
 62
     0
 10
265.523
 20
72.052
 30
0.0
 11
252.367
 21
67.2634
 31
0.0
  0
LINE
  8
0
 62
     0
 10
111.132
 20
62.0391
 30
0.0
 11
124.288
 21
57.2505
 31
0.0
  0
LINE
  8
0
 62
     0
 10
124.288
 20
57.2505
 30
0.0
 11
129.077
 21
70.4067
 31
0.0
  0
LINE
  8
0
 62
     0
 10
129.077
 20
70.4067
 30
0.0
 11
115.921
 21
75.1953
 31
0.0
  0
LINE
  8
0
 62
     0
 10
115.921
 20
75.1953
 30
0.0
 11
111.132
 21
62.0391
 31
0.0
  0
LINE
  8
0
 62
     0
 10
149.83
 20
70.4882
 30
0.0
 11
154.619
 21
57.3334
 31
0.0
  0
LINE
  8
0
 62
     0
 10
154.619
 20
57.3334
 30
0.0
 11
167.775
 21
62.1206
 31
0.0
  0
LINE
  8
0
 62
     0
 10
167.775
 20
62.1206
 30
0.0
 11
162.986
 21
75.2768
 31
0.0
  0
LINE
  8
0
 62
     0
 10
162.986
 20
75.2768
 30
0.0
 11
149.83
 21
70.4882
 31
0.0
  0
LINE
  8
0
 62
     0
 10
50.9129
 20
63.6845
 30
0.0
 11
64.069
 21
58.8959
 31
0.0
  0
LINE
  8
0
 62
     0
 10
64.069
 20
58.8959
 30
0.0
 11
68.858
 21
72.052
 31
0.0
  0
LINE
  8
0
 62
     0
 10
68.858
 20
72.052
 30
0.0
 11
55.7018
 21
76.8396
 31
0.0
  0
LINE
  8
0
 62
     0
 10
55.7018
 20
76.8396
 30
0.0
 11
50.9129
 21
63.6845
 31
0.0
  0
LINE
  8
0
 62
     0
 10
210.049
 20
72.1335
 30
0.0
 11
214.837
 21
58.9788
 31
0.0
  0
LINE
  8
0
 62
     0
 10
214.837
 20
58.9788
 30
0.0
 11
227.992
 21
63.766
 31
0.0
  0
LINE
  8
0
 62
     0
 10
227.992
 20
63.766
 30
0.0
 11
223.205
 21
76.9221
 31
0.0
  0
LINE
  8
0
 62
     0
 10
223.205
 20
76.9221
 30
0.0
 11
210.049
 21
72.1335
 31
0.0
  0
LINE
  8
0
 62
     0
 10
93.2311
 20
68.5546
 30
0.0
 11
106.386
 21
63.766
 31
0.0
  0
LINE
  8
0
 62
     0
 10
106.386
 20
63.766
 30
0.0
 11
111.175
 21
76.9221
 31
0.0
  0
LINE
  8
0
 62
     0
 10
111.175
 20
76.9221
 30
0.0
 11
98.02
 21
81.7093
 31
0.0
  0
LINE
  8
0
 62
     0
 10
98.02
 20
81.7093
 30
0.0
 11
93.2311
 21
68.5546
 31
0.0
  0
LINE
  8
0
 62
     0
 10
167.732
 20
77.0033
 30
0.0
 11
172.519
 21
63.8485
 31
0.0
  0
LINE
  8
0
 62
     0
 10
172.519
 20
63.8485
 30
0.0
 11
185.675
 21
68.6361
 31
0.0
  0
LINE
  8
0
 62
     0
 10
185.675
 20
68.6361
 30
0.0
 11
180.887
 21
81.7922
 31
0.0
  0
LINE
  8
0
 62
     0
 10
180.887
 20
81.7922
 30
0.0
 11
167.732
 21
77.0033
 31
0.0
  0
LINE
  8
0
 62
     0
 10
33.0123
 20
70.2
 30
0.0
 11
46.167
 21
65.4113
 31
0.0
  0
LINE
  8
0
 62
     0
 10
46.167
 20
65.4113
 30
0.0
 11
50.9556
 21
78.5675
 31
0.0
  0
LINE
  8
0
 62
     0
 10
50.9556
 20
78.5675
 30
0.0
 11
37.8008
 21
83.3547
 31
0.0
  0
LINE
  8
0
 62
     0
 10
37.8008
 20
83.3547
 30
0.0
 11
33.0123
 21
70.2
 31
0.0
  0
LINE
  8
0
 62
     0
 10
227.951
 20
78.6486
 30
0.0
 11
232.738
 21
65.4939
 31
0.0
  0
LINE
  8
0
 62
     0
 10
232.738
 20
65.4939
 30
0.0
 11
245.894
 21
70.2829
 31
0.0
  0
LINE
  8
0
 62
     0
 10
245.894
 20
70.2829
 30
0.0
 11
241.106
 21
83.4376
 31
0.0
  0
LINE
  8
0
 62
     0
 10
241.106
 20
83.4376
 30
0.0
 11
227.951
 21
78.6486
 31
0.0
  0
LINE
  8
0
 62
     0
 10
75.329
 20
75.0701
 30
0.0
 11
88.4851
 21
70.2829
 31
0.0
  0
LINE
  8
0
 62
     0
 10
88.4851
 20
70.2829
 30
0.0
 11
93.2737
 21
83.4376
 31
0.0
  0
LINE
  8
0
 62
     0
 10
93.2737
 20
83.4376
 30
0.0
 11
80.119
 21
88.2248
 31
0.0
  0
LINE
  8
0
 62
     0
 10
80.119
 20
88.2248
 30
0.0
 11
75.329
 21
75.0701
 31
0.0
  0
LINE
  8
0
 62
     0
 10
185.633
 20
83.5187
 30
0.0
 11
190.42
 21
70.364
 31
0.0
  0
LINE
  8
0
 62
     0
 10
190.42
 20
70.364
 30
0.0
 11
203.576
 21
75.1526
 31
0.0
  0
LINE
  8
0
 62
     0
 10
203.576
 20
75.1526
 30
0.0
 11
198.789
 21
88.3073
 31
0.0
  0
LINE
  8
0
 62
     0
 10
198.789
 20
88.3073
 30
0.0
 11
185.633
 21
83.5187
 31
0.0
  0
LINE
  8
0
 62
     0
 10
15.1102
 20
76.7154
 30
0.0
 11
28.2663
 21
71.9268
 31
0.0
  0
LINE
  8
0
 62
     0
 10
28.2663
 20
71.9268
 30
0.0
 11
33.055
 21
85.0829
 31
0.0
  0
LINE
  8
0
 62
     0
 10
33.055
 20
85.0829
 30
0.0
 11
19.8989
 21
89.8715
 31
0.0
  0
LINE
  8
0
 62
     0
 10
19.8989
 20
89.8715
 30
0.0
 11
15.1102
 21
76.7154
 31
0.0
  0
LINE
  8
0
 62
     0
 10
245.852
 20
85.1655
 30
0.0
 11
250.639
 21
72.0094
 31
0.0
  0
LINE
  8
0
 62
     0
 10
250.639
 20
72.0094
 30
0.0
 11
263.795
 21
76.7965
 31
0.0
  0
LINE
  8
0
 62
     0
 10
263.795
 20
76.7965
 30
0.0
 11
259.006
 21
89.9527
 31
0.0
  0
LINE
  8
0
 62
     0
 10
259.006
 20
89.9527
 30
0.0
 11
245.852
 21
85.1655
 31
0.0
  0
LINE
  8
0
 62
     0
 10
117.647
 20
79.9412
 30
0.0
 11
130.803
 21
75.1526
 31
0.0
  0
LINE
  8
0
 62
     0
 10
130.803
 20
75.1526
 30
0.0
 11
135.592
 21
88.3073
 31
0.0
  0
LINE
  8
0
 62
     0
 10
135.592
 20
88.3073
 30
0.0
 11
122.436
 21
93.0963
 31
0.0
  0
LINE
  8
0
 62
     0
 10
122.436
 20
93.0963
 30
0.0
 11
117.647
 21
79.9412
 31
0.0
  0
LINE
  8
0
 62
     0
 10
143.315
 20
88.3902
 30
0.0
 11
148.102
 21
75.2341
 31
0.0
  0
LINE
  8
0
 62
     0
 10
148.102
 20
75.2341
 30
0.0
 11
161.258
 21
80.0227
 31
0.0
  0
LINE
  8
0
 62
     0
 10
161.258
 20
80.0227
 30
0.0
 11
156.471
 21
93.1774
 31
0.0
  0
LINE
  8
0
 62
     0
 10
156.471
 20
93.1774
 30
0.0
 11
143.315
 21
88.3902
 31
0.0
  0
LINE
  8
0
 62
     0
 10
57.4283
 20
81.5855
 30
0.0
 11
70.5845
 21
76.7965
 31
0.0
  0
LINE
  8
0
 62
     0
 10
70.5845
 20
76.7965
 30
0.0
 11
75.3717
 21
89.9527
 31
0.0
  0
LINE
  8
0
 62
     0
 10
75.3717
 20
89.9527
 30
0.0
 11
62.2169
 21
94.7416
 31
0.0
  0
LINE
  8
0
 62
     0
 10
62.2169
 20
94.7416
 30
0.0
 11
57.4283
 21
81.5855
 31
0.0
  0
LINE
  8
0
 62
     0
 10
203.533
 20
90.0356
 30
0.0
 11
208.322
 21
76.8794
 31
0.0
  0
LINE
  8
0
 62
     0
 10
208.322
 20
76.8794
 30
0.0
 11
221.477
 21
81.6666
 31
0.0
  0
LINE
  8
0
 62
     0
 10
221.477
 20
81.6666
 30
0.0
 11
216.69
 21
94.8228
 31
0.0
  0
LINE
  8
0
 62
     0
 10
216.69
 20
94.8228
 30
0.0
 11
203.533
 21
90.0356
 31
0.0
  0
LINE
  8
0
 62
     0
 10
99.7465
 20
86.4553
 30
0.0
 11
112.903
 21
81.6666
 31
0.0
  0
LINE
  8
0
 62
     0
 10
112.903
 20
81.6666
 30
0.0
 11
117.69
 21
94.8228
 31
0.0
  0
LINE
  8
0
 62
     0
 10
117.69
 20
94.8228
 30
0.0
 11
104.534
 21
99.6114
 31
0.0
  0
LINE
  8
0
 62
     0
 10
104.534
 20
99.6114
 30
0.0
 11
99.7465
 21
86.4553
 31
0.0
  0
LINE
  8
0
 62
     0
 10
161.215
 20
94.9053
 30
0.0
 11
166.004
 21
81.7492
 31
0.0
  0
LINE
  8
0
 62
     0
 10
166.004
 20
81.7492
 30
0.0
 11
179.16
 21
86.5382
 31
0.0
  0
LINE
  8
0
 62
     0
 10
179.16
 20
86.5382
 30
0.0
 11
174.371
 21
99.6929
 31
0.0
  0
LINE
  8
0
 62
     0
 10
174.371
 20
99.6929
 30
0.0
 11
161.215
 21
94.9053
 31
0.0
  0
LINE
  8
0
 62
     0
 10
39.5277
 20
88.1006
 30
0.0
 11
52.6838
 21
83.312
 31
0.0
  0
LINE
  8
0
 62
     0
 10
52.6838
 20
83.312
 30
0.0
 11
57.471
 21
96.4681
 31
0.0
  0
LINE
  8
0
 62
     0
 10
57.471
 20
96.4681
 30
0.0
 11
44.3149
 21
101.255
 31
0.0
  0
LINE
  8
0
 62
     0
 10
44.3149
 20
101.255
 30
0.0
 11
39.5277
 21
88.1006
 31
0.0
  0
LINE
  8
0
 62
     0
 10
221.434
 20
96.5496
 30
0.0
 11
226.223
 21
83.3949
 31
0.0
  0
LINE
  8
0
 62
     0
 10
226.223
 20
83.3949
 30
0.0
 11
239.379
 21
88.1835
 31
0.0
  0
LINE
  8
0
 62
     0
 10
239.379
 20
88.1835
 30
0.0
 11
234.59
 21
101.34
 31
0.0
  0
LINE
  8
0
 62
     0
 10
234.59
 20
101.34
 30
0.0
 11
221.434
 21
96.5496
 31
0.0
  0
LINE
  8
0
 62
     0
 10
81.8459
 20
92.9707
 30
0.0
 11
95.0006
 21
88.1835
 31
0.0
  0
LINE
  8
0
 62
     0
 10
95.0006
 20
88.1835
 30
0.0
 11
99.7892
 21
101.338
 31
0.0
  0
LINE
  8
0
 62
     0
 10
99.7892
 20
101.338
 30
0.0
 11
86.6331
 21
106.127
 31
0.0
  0
LINE
  8
0
 62
     0
 10
86.6331
 20
106.127
 30
0.0
 11
81.8459
 21
92.9707
 31
0.0
  0
LINE
  8
0
 62
     0
 10
179.116
 20
101.421
 30
0.0
 11
183.906
 21
88.2646
 31
0.0
  0
LINE
  8
0
 62
     0
 10
183.906
 20
88.2646
 30
0.0
 11
197.061
 21
93.0533
 31
0.0
  0
LINE
  8
0
 62
     0
 10
197.061
 20
93.0533
 30
0.0
 11
192.272
 21
106.209
 31
0.0
  0
LINE
  8
0
 62
     0
 10
192.272
 20
106.209
 30
0.0
 11
179.116
 21
101.421
 31
0.0
  0
LINE
  8
0
 62
     0
 10
21.6269
 20
94.6161
 30
0.0
 11
34.7831
 21
89.8275
 31
0.0
  0
LINE
  8
0
 62
     0
 10
34.7831
 20
89.8275
 30
0.0
 11
39.5704
 21
102.984
 31
0.0
  0
LINE
  8
0
 62
     0
 10
39.5704
 20
102.984
 30
0.0
 11
26.4142
 21
107.772
 31
0.0
  0
LINE
  8
0
 62
     0
 10
26.4142
 20
107.772
 30
0.0
 11
21.6269
 21
94.6161
 31
0.0
  0
LINE
  8
0
 62
     0
 10
239.335
 20
103.066
 30
0.0
 11
244.125
 21
89.91
 31
0.0
  0
LINE
  8
0
 62
     0
 10
244.125
 20
89.91
 30
0.0
 11
257.28
 21
94.6975
 31
0.0
  0
LINE
  8
0
 62
     0
 10
257.28
 20
94.6975
 30
0.0
 11
252.491
 21
107.854
 31
0.0
  0
LINE
  8
0
 62
     0
 10
252.491
 20
107.854
 30
0.0
 11
239.335
 21
103.066
 31
0.0
  0
LINE
  8
0
 62
     0
 10
63.9452
 20
99.4862
 30
0.0
 11
77.0999
 21
94.6975
 31
0.0
  0
LINE
  8
0
 62
     0
 10
77.0999
 20
94.6975
 30
0.0
 11
81.8885
 21
107.854
 31
0.0
  0
LINE
  8
0
 62
     0
 10
81.8885
 20
107.854
 30
0.0
 11
68.7324
 21
112.644
 31
0.0
  0
LINE
  8
0
 62
     0
 10
68.7324
 20
112.644
 30
0.0
 11
63.9452
 21
99.4862
 31
0.0
  0
LINE
  8
0
 62
     0
 10
197.018
 20
107.936
 30
0.0
 11
201.807
 21
94.7801
 31
0.0
  0
LINE
  8
0
 62
     0
 10
201.807
 20
94.7801
 30
0.0
 11
214.963
 21
99.5687
 31
0.0
  0
LINE
  8
0
 62
     0
 10
214.963
 20
99.5687
 30
0.0
 11
210.173
 21
112.723
 31
0.0
  0
LINE
  8
0
 62
     0
 10
210.173
 20
112.723
 30
0.0
 11
197.018
 21
107.936
 31
0.0
  0
LINE
  8
0
 62
     0
 10
46.0431
 20
106.002
 30
0.0
 11
59.1993
 21
101.214
 31
0.0
  0
LINE
  8
0
 62
     0
 10
59.1993
 20
101.214
 30
0.0
 11
63.9865
 21
114.369
 31
0.0
  0
LINE
  8
0
 62
     0
 10
63.9865
 20
114.369
 30
0.0
 11
50.8317
 21
119.158
 31
0.0
  0
LINE
  8
0
 62
     0
 10
50.8317
 20
119.158
 30
0.0
 11
46.0431
 21
106.002
 31
0.0
  0
LINE
  8
0
 62
     0
 10
214.919
 20
114.452
 30
0.0
 11
219.708
 21
101.296
 31
0.0
  0
LINE
  8
0
 62
     0
 10
219.708
 20
101.296
 30
0.0
 11
232.864
 21
106.084
 31
0.0
  0
LINE
  8
0
 62
     0
 10
232.864
 20
106.084
 30
0.0
 11
228.075
 21
119.24
 31
0.0
  0
LINE
  8
0
 62
     0
 10
228.075
 20
119.24
 30
0.0
 11
214.919
 21
114.452
 31
0.0
  0
LINE
  8
0
 62
     0
 10
28.1409
 20
112.517
 30
0.0
 11
41.2972
 21
107.73
 31
0.0
  0
LINE
  8
0
 62
     0
 10
41.2972
 20
107.73
 30
0.0
 11
46.0858
 21
120.886
 31
0.0
  0
LINE
  8
0
 62
     0
 10
46.0858
 20
120.886
 30
0.0
 11
32.931
 21
125.673
 31
0.0
  0
LINE
  8
0
 62
     0
 10
32.931
 20
125.673
 30
0.0
 11
28.1409
 21
112.517
 31
0.0
  0
LINE
  8
0
 62
     0
 10
232.821
 20
120.967
 30
0.0
 11
237.608
 21
107.811
 31
0.0
  0
LINE
  8
0
 62
     0
 10
237.608
 20
107.811
 30
0.0
 11
250.764
 21
112.6
 31
0.0
  0
LINE
  8
0
 62
     0
 10
250.764
 20
112.6
 30
0.0
 11
245.977
 21
125.756
 31
0.0
  0
LINE
  8
0
 62
     0
 10
245.977
 20
125.756
 30
0.0
 11
232.821
 21
120.967
 31
0.0
  0
ENDSEC
  0
EOF
